<?xml version="1.0" encoding="utf-8"?>
<!-- Generator: Adobe Illustrator 19.0.0, SVG Export Plug-In . SVG Version: 6.00 Build 0)  -->
<svg version="1.1" xmlns="http://www.w3.org/2000/svg" xmlns:xlink="http://www.w3.org/1999/xlink" x="0px" y="0px"
	 viewBox="0 0 753.1 527" style="enable-background:new 0 0 753.1 527;" xml:space="preserve">
<style type="text/css">
	.st0{display:none;}
	
		.st1{display:inline;fill:#BE9C3A;stroke:#4482C4;stroke-width:1.9027;stroke-linecap:round;stroke-linejoin:round;stroke-miterlimit:10;}
	.st2{fill:none;stroke:#1087A0;stroke-width:1.9027;stroke-linecap:round;stroke-linejoin:round;stroke-miterlimit:10;}
	.st3{fill:#1087A0;}
	.st4{fill:#EAEAEA;}
	.st5{opacity:0.34;fill:#EAEAEA;}
	.st6{fill:#322E7C;}
	.st7{fill:none;stroke:#FFFFFF;stroke-width:1.2685;stroke-linecap:round;stroke-linejoin:round;stroke-miterlimit:10;}
	.st8{fill:#312F7C;}
	.st9{fill:none;stroke:#312F7C;stroke-width:1.2685;stroke-linecap:round;stroke-linejoin:round;stroke-miterlimit:10;}
	.st10{fill:#0B87A0;}
	.st11{fill:#F9A01B;}
	.st12{fill:#EF3E4E;}
	
		.st13{opacity:0.5;fill:none;stroke:#0B87A0;stroke-width:1.9027;stroke-linecap:round;stroke-linejoin:round;stroke-miterlimit:10;}
	.st14{fill:#10696B;}
	.st15{opacity:0.11;fill:#0B87A0;}
	.st16{fill:#0E87A0;}
	.st17{fill:none;stroke:#0E87A0;stroke-width:1.9027;stroke-linecap:round;stroke-linejoin:round;stroke-miterlimit:10;}
	.st18{fill:none;stroke:#FFFFFF;stroke-width:1.9027;stroke-linecap:round;stroke-linejoin:round;stroke-miterlimit:10;}
	.st19{fill:#EF4150;}
	.st20{fill:#FFFFFF;}
	.st21{fill:#F9A01D;}
	.st22{fill:none;stroke:#EF4150;stroke-width:1.9027;stroke-linecap:round;stroke-linejoin:round;stroke-miterlimit:10;}
	.st23{opacity:0.34;fill:#0E87A0;}
	.st24{fill:#A81F23;}
	.st25{fill:none;stroke:#A81F23;stroke-width:1.2685;stroke-linecap:round;stroke-linejoin:round;stroke-miterlimit:10;}
	.st26{fill:#181840;}
	.st27{fill:#FADAB6;}
	.st28{fill:none;stroke:#EAEAEA;stroke-width:1.9027;stroke-linecap:round;stroke-linejoin:round;stroke-miterlimit:10;}
	.st29{fill:#221F53;}
	.st30{fill:#FBDBB6;}
	.st31{fill:#FDBE70;}
	.st32{fill:none;stroke:#221F52;stroke-width:0.6342;stroke-linecap:round;stroke-linejoin:round;stroke-miterlimit:10;}
	.st33{fill:none;stroke:#FDBE70;stroke-width:1.9027;stroke-linecap:round;stroke-linejoin:round;stroke-miterlimit:10;}
	.st34{fill:none;stroke:#F37321;stroke-width:1.2685;stroke-linecap:round;stroke-linejoin:round;stroke-miterlimit:10;}
	.st35{fill:#F37321;}
	.st36{fill:none;stroke:#FDBE6F;stroke-width:1.9027;stroke-linecap:round;stroke-linejoin:round;stroke-miterlimit:10;}
	.st37{fill:none;stroke:#0E87A0;stroke-width:1.2685;stroke-linecap:round;stroke-linejoin:round;stroke-miterlimit:10;}
	.st38{fill:none;stroke:#A81F24;stroke-width:1.2685;stroke-linecap:round;stroke-linejoin:round;stroke-miterlimit:10;}
	.st39{fill:none;stroke:#15152A;stroke-width:0.6342;stroke-linecap:round;stroke-linejoin:round;stroke-miterlimit:10;}
	.st40{fill:#F093BE;}
	.st41{fill:#221F52;}
	.st42{fill:#FDBE6E;}
	.st43{fill:#F069A2;}
	.st44{fill:#A5ACD7;}
	.st45{fill:none;stroke:#F069A2;stroke-width:1.9027;stroke-linecap:round;stroke-linejoin:round;stroke-miterlimit:10;}
	.st46{fill:none;stroke:#221F53;stroke-width:1.9027;stroke-linecap:round;stroke-linejoin:round;stroke-miterlimit:10;}
	.st47{fill:none;stroke:#181840;stroke-width:1.9027;stroke-linecap:round;stroke-linejoin:round;stroke-miterlimit:10;}
	.st48{fill:#FDBE6D;}
	.st49{fill:none;stroke:#F37422;stroke-width:1.9027;stroke-linecap:round;stroke-linejoin:round;stroke-miterlimit:10;}
	.st50{fill:none;stroke:#FDBE6D;stroke-width:1.9027;stroke-linecap:round;stroke-linejoin:round;stroke-miterlimit:10;}
	.st51{fill:none;stroke:#BC3545;stroke-width:1.9027;stroke-linecap:round;stroke-linejoin:round;stroke-miterlimit:10;}
	.st52{fill:none;stroke:#FDBE6E;stroke-width:1.9027;stroke-linecap:round;stroke-linejoin:round;stroke-miterlimit:10;}
	.st53{fill:#F37422;}
	.st54{fill:#161840;}
	.st55{fill:#FAC8CA;}
	.st56{fill:#0887A0;}
	.st57{fill:#FCDDB6;}
	.st58{fill:#221F51;}
	.st59{fill:none;stroke:#10696B;stroke-width:1.9027;stroke-linecap:round;stroke-linejoin:round;stroke-miterlimit:10;}
	.st60{fill:none;stroke:#EAEAEA;stroke-width:1.2685;stroke-linecap:round;stroke-linejoin:round;stroke-miterlimit:10;}
	.st61{fill:#FDBE6C;}
	.st62{fill:none;stroke:#D85D27;stroke-width:1.9027;stroke-linecap:round;stroke-linejoin:round;stroke-miterlimit:10;}
	.st63{fill:none;stroke:#A81F23;stroke-width:1.9027;stroke-linecap:round;stroke-linejoin:round;stroke-miterlimit:10;}
	.st64{fill:#D85D27;}
	.st65{fill:none;stroke:#A81F23;stroke-width:1.9409;stroke-linecap:round;stroke-linejoin:round;stroke-miterlimit:10;}
	.st66{display:inline;}
	.st67{fill:#50BFA3;}
	.st68{fill:#FFCA65;}
	
		.st69{display:inline;fill:none;stroke:#A81F23;stroke-width:1.9409;stroke-linecap:round;stroke-linejoin:round;stroke-miterlimit:10;}
</style>
<g id="Layer_4" class="st0">
	<rect x="-12.4" y="-11" class="st1" width="796" height="545"/>
</g>
<g id="Layer_3">
	<g>
		<path class="st2" d="M375.5,40.3h-6.9c-1.5,0-2.8-0.9-3.3-2.3c-0.2-0.4-0.4-0.9-0.5-1.3c-0.6-1.3-0.3-2.9,0.7-3.9l4.9-4.9
			c1.4-1.4,1.4-3.6,0-5l-12.1-12.1c-1.4-1.4-3.6-1.4-5,0l-4.9,4.9c-1,1-2.6,1.3-3.9,0.7c-0.4-0.2-0.9-0.4-1.3-0.5
			c-1.4-0.5-2.3-1.8-2.3-3.3V5.6c0-2-1.6-3.5-3.5-3.5h-17.2c-2,0-3.5,1.6-3.5,3.5v6.9c0,1.5-0.9,2.8-2.3,3.3
			c-0.4,0.2-0.9,0.4-1.3,0.5c-1.3,0.6-2.9,0.3-3.9-0.7l-4.9-4.9c-1.4-1.4-3.6-1.4-5,0l-12.1,12.1c-1.4,1.4-1.4,3.6,0,5l4.9,4.9
			c1,1,1.3,2.6,0.7,3.9c-0.2,0.4-0.4,0.9-0.5,1.3c-0.5,1.4-1.8,2.3-3.3,2.3H282c-2,0-3.5,1.6-3.5,3.5V61c0,2,1.6,3.5,3.5,3.5h6.9
			c1.5,0,2.8,0.9,3.3,2.3c0.2,0.4,0.4,0.9,0.5,1.3c0.6,1.3,0.3,2.9-0.7,3.9l-4.9,4.9c-1.4,1.4-1.4,3.6,0,5l12.1,12.1
			c1.4,1.4,3.6,1.4,5,0l4.9-4.9c1-1,2.6-1.3,3.9-0.7c0.4,0.2,0.9,0.4,1.3,0.5c1.4,0.5,2.3,1.8,2.3,3.3v6.9c0,2,1.6,3.5,3.5,3.5h17.2
			c2,0,3.5-1.6,3.5-3.5v-6.9c0-1.5,0.9-2.8,2.3-3.3c0.4-0.2,0.9-0.4,1.3-0.5c1.3-0.6,2.9-0.3,3.9,0.7l4.9,4.9c1.4,1.4,3.6,1.4,5,0
			l12.1-12.1c1.4-1.4,1.4-3.6,0-5l-4.9-4.9c-1-1-1.3-2.6-0.7-3.9c0.2-0.4,0.4-0.9,0.5-1.3c0.5-1.4,1.8-2.3,3.3-2.3h6.9
			c2,0,3.5-1.6,3.5-3.5V43.8C379.1,41.9,377.5,40.3,375.5,40.3z M328.7,79.8c-15.1,0-27.4-12.3-27.4-27.4
			c0-15.1,12.3-27.4,27.4-27.4c15.1,0,27.4,12.3,27.4,27.4C356.1,67.5,343.9,79.8,328.7,79.8z M352.4,52.4c0,13-10.5,23.5-23.5,23.5
			c-13,0-23.5-10.5-23.5-23.5c0-13,10.5-23.5,23.5-23.5C341.8,28.9,352.4,39.4,352.4,52.4z"/>
		<path class="st3" d="M411.5,46h-2.7c-0.6,0-1.1-0.4-1.3-0.9c-0.1-0.2-0.1-0.3-0.2-0.5c-0.2-0.5-0.1-1.1,0.3-1.5l1.9-1.9
			c0.5-0.5,0.5-1.4,0-2l-4.8-4.8c-0.5-0.5-1.4-0.5-2,0l-1.9,1.9c-0.4,0.4-1,0.5-1.5,0.3c-0.2-0.1-0.3-0.1-0.5-0.2
			c-0.5-0.2-0.9-0.7-0.9-1.3v-2.7c0-0.8-0.6-1.4-1.4-1.4h-6.8c-0.8,0-1.4,0.6-1.4,1.4v2.7c0,0.6-0.4,1.1-0.9,1.3
			c-0.2,0.1-0.3,0.1-0.5,0.2c-0.5,0.2-1.1,0.1-1.5-0.3l-1.9-1.9c-0.5-0.5-1.4-0.5-2,0l-4.8,4.8c-0.5,0.5-0.5,1.4,0,2l1.9,1.9
			c0.4,0.4,0.5,1,0.3,1.5c-0.1,0.2-0.1,0.3-0.2,0.5c-0.2,0.5-0.7,0.9-1.3,0.9h-2.7c-0.8,0-1.4,0.6-1.4,1.4v6.8
			c0,0.8,0.6,1.4,1.4,1.4h2.7c0.6,0,1.1,0.4,1.3,0.9c0.1,0.2,0.1,0.3,0.2,0.5c0.2,0.5,0.1,1.1-0.3,1.5l-1.9,1.9
			c-0.5,0.5-0.5,1.4,0,2l4.8,4.8c0.5,0.5,1.4,0.5,2,0l1.9-1.9c0.4-0.4,1-0.5,1.5-0.3c0.2,0.1,0.3,0.1,0.5,0.2
			c0.5,0.2,0.9,0.7,0.9,1.3v2.7c0,0.8,0.6,1.4,1.4,1.4h6.8c0.8,0,1.4-0.6,1.4-1.4v-2.7c0-0.6,0.4-1.1,0.9-1.3
			c0.2-0.1,0.3-0.1,0.5-0.2c0.5-0.2,1.1-0.1,1.5,0.3l1.9,1.9c0.5,0.5,1.4,0.5,2,0l4.8-4.8c0.5-0.5,0.5-1.4,0-2l-1.9-1.9
			c-0.4-0.4-0.5-1-0.3-1.5c0.1-0.2,0.1-0.3,0.2-0.5c0.2-0.5,0.7-0.9,1.3-0.9h2.7c0.8,0,1.4-0.6,1.4-1.4v-6.8
			C412.9,46.6,412.2,46,411.5,46z M393.1,61.5c-6,0-10.8-4.8-10.8-10.8c0-6,4.8-10.8,10.8-10.8c6,0,10.8,4.8,10.8,10.8
			C403.8,56.7,399,61.5,393.1,61.5z M400.4,50.8c0,4.1-3.3,7.3-7.3,7.3c-4.1,0-7.3-3.3-7.3-7.3s3.3-7.3,7.3-7.3
			C397.1,43.4,400.4,46.7,400.4,50.8z"/>
		<path class="st4" d="M397.4,93.2H394c-0.7,0-1.3-0.4-1.6-1.1c-0.1-0.2-0.2-0.4-0.3-0.6c-0.3-0.7-0.1-1.4,0.4-1.9l2.4-2.4
			c0.7-0.7,0.7-1.8,0-2.4l-5.9-5.9c-0.7-0.7-1.8-0.7-2.4,0l-2.4,2.4c-0.5,0.5-1.3,0.6-1.9,0.4c-0.2-0.1-0.4-0.2-0.6-0.3
			c-0.7-0.3-1.1-0.9-1.1-1.6v-3.3c0-1-0.8-1.7-1.7-1.7h-8.4c-1,0-1.7,0.8-1.7,1.7v3.3c0,0.7-0.4,1.3-1.1,1.6
			c-0.2,0.1-0.4,0.2-0.6,0.3c-0.7,0.3-1.4,0.1-1.9-0.4l-2.4-2.4c-0.7-0.7-1.8-0.7-2.4,0l-5.9,5.9c-0.7,0.7-0.7,1.8,0,2.4l2.4,2.4
			c0.5,0.5,0.6,1.3,0.4,1.9c-0.1,0.2-0.2,0.4-0.3,0.6c-0.3,0.7-0.9,1.1-1.6,1.1h-3.3c-1,0-1.7,0.8-1.7,1.7v8.4c0,1,0.8,1.7,1.7,1.7
			h3.3c0.7,0,1.3,0.4,1.6,1.1c0.1,0.2,0.2,0.4,0.3,0.6c0.3,0.7,0.1,1.4-0.4,1.9l-2.4,2.4c-0.7,0.7-0.7,1.8,0,2.4l5.9,5.9
			c0.7,0.7,1.8,0.7,2.4,0l2.4-2.4c0.5-0.5,1.3-0.6,1.9-0.4c0.2,0.1,0.4,0.2,0.6,0.3c0.7,0.3,1.1,0.9,1.1,1.6v3.3
			c0,1,0.8,1.7,1.7,1.7h8.4c1,0,1.7-0.8,1.7-1.7v-3.3c0-0.7,0.4-1.3,1.1-1.6c0.2-0.1,0.4-0.2,0.6-0.3c0.7-0.3,1.4-0.1,1.9,0.4
			l2.4,2.4c0.7,0.7,1.8,0.7,2.4,0l5.9-5.9c0.7-0.7,0.7-1.8,0-2.4l-2.4-2.4c-0.5-0.5-0.6-1.3-0.4-1.9c0.1-0.2,0.2-0.4,0.3-0.6
			c0.3-0.7,0.9-1.1,1.6-1.1h3.3c1,0,1.7-0.8,1.7-1.7v-8.4C399.1,94,398.3,93.2,397.4,93.2z M374.6,112.5c-7.4,0-13.4-6-13.4-13.4
			c0-7.4,6-13.4,13.4-13.4c7.4,0,13.4,6,13.4,13.4C387.9,106.5,382,112.5,374.6,112.5z M383.7,99.1c0,5-4.1,9.1-9.1,9.1
			c-5,0-9.1-4.1-9.1-9.1c0-5,4.1-9.1,9.1-9.1C379.6,90,383.7,94.1,383.7,99.1z"/>
		<path class="st5" d="M287,25.1h-3.3c-0.7,0-1.3-0.4-1.6-1.1c-0.1-0.2-0.2-0.4-0.3-0.6c-0.3-0.7-0.1-1.4,0.4-1.9l2.4-2.4
			c0.7-0.7,0.7-1.8,0-2.4l-5.9-5.9c-0.7-0.7-1.8-0.7-2.4,0l-2.4,2.4c-0.5,0.5-1.3,0.6-1.9,0.4c-0.2-0.1-0.4-0.2-0.6-0.3
			c-0.7-0.3-1.1-0.9-1.1-1.6V8.2c0-1-0.8-1.7-1.7-1.7H260c-1,0-1.7,0.8-1.7,1.7v3.3c0,0.7-0.4,1.3-1.1,1.6c-0.2,0.1-0.4,0.2-0.6,0.3
			c-0.7,0.3-1.4,0.1-1.9-0.4l-2.4-2.4c-0.7-0.7-1.8-0.7-2.4,0l-5.9,5.9c-0.7,0.7-0.7,1.8,0,2.4l2.4,2.4c0.5,0.5,0.6,1.3,0.4,1.9
			c-0.1,0.2-0.2,0.4-0.3,0.6c-0.3,0.7-0.9,1.1-1.6,1.1h-3.3c-1,0-1.7,0.8-1.7,1.7v8.4c0,1,0.8,1.7,1.7,1.7h3.3
			c0.7,0,1.3,0.4,1.6,1.1c0.1,0.2,0.2,0.4,0.3,0.6c0.3,0.7,0.1,1.4-0.4,1.9l-2.4,2.4c-0.7,0.7-0.7,1.8,0,2.4l5.9,5.9
			c0.7,0.7,1.8,0.7,2.4,0l2.4-2.4c0.5-0.5,1.3-0.6,1.9-0.4c0.2,0.1,0.4,0.2,0.6,0.3c0.7,0.3,1.1,0.9,1.1,1.6v3.3
			c0,1,0.8,1.7,1.7,1.7h8.4c1,0,1.7-0.8,1.7-1.7v-3.3c0-0.7,0.4-1.3,1.1-1.6c0.2-0.1,0.4-0.2,0.6-0.3c0.7-0.3,1.4-0.1,1.9,0.4
			l2.4,2.4c0.7,0.7,1.8,0.7,2.4,0l5.9-5.9c0.7-0.7,0.7-1.8,0-2.4l-2.4-2.4c-0.5-0.5-0.6-1.3-0.4-1.9c0.1-0.2,0.2-0.4,0.3-0.6
			c0.3-0.7,0.9-1.1,1.6-1.1h3.3c1,0,1.7-0.8,1.7-1.7v-8.4C288.7,25.8,287.9,25.1,287,25.1z M264.2,44.3c-7.4,0-13.4-6-13.4-13.4
			c0-7.4,6-13.4,13.4-13.4s13.4,6,13.4,13.4C277.5,38.3,271.6,44.3,264.2,44.3z M273.3,31c0,5-4.1,9.1-9.1,9.1c-5,0-9.1-4.1-9.1-9.1
			c0-5,4.1-9.1,9.1-9.1C269.2,21.9,273.3,25.9,273.3,31z"/>
		<g>
			<polygon class="st6" points="728.2,161.2 657.8,161.2 652.6,195.3 666.4,195.3 663.4,210.5 680.3,195.3 723.1,195.3 			"/>
			<polygon class="st7" points="662.2,165.1 658.3,189.8 718.6,189.8 723.4,165.1 			"/>
			<polygon class="st4" points="716.6,123.7 674.4,123.7 663.2,189.8 713.8,189.8 723.4,133.1 			"/>
			<polygon class="st8" points="716.6,123.7 714.8,133.1 723.4,133.1 			"/>
			<line class="st9" x1="678.1" y1="136.8" x2="716.2" y2="136.8"/>
			<line class="st9" x1="677" y1="141.3" x2="715.1" y2="141.3"/>
			<line class="st9" x1="675.9" y1="145.8" x2="714" y2="145.8"/>
			<line class="st9" x1="674.8" y1="150.3" x2="712.9" y2="150.3"/>
			<line class="st9" x1="673.7" y1="154.8" x2="711.8" y2="154.8"/>
			<polygon class="st9" points="672.6,160.5 668.3,185.8 708.5,185.8 711.8,160.5 			"/>
		</g>
		<g>
			<rect x="621.7" y="133.1" class="st9" width="38.4" height="22"/>
			<polyline class="st9" points="621.7,133.1 640.9,148.7 660.1,133.1 			"/>
			<line class="st9" x1="621.7" y1="155.1" x2="634.2" y2="143.3"/>
			<line class="st9" x1="660.1" y1="155.1" x2="647.5" y2="143.3"/>
		</g>
		<g>
			<rect x="698.2" y="202.6" class="st9" width="38.4" height="22"/>
			<polyline class="st9" points="698.2,202.6 717.4,218.1 736.6,202.6 			"/>
			<line class="st9" x1="698.2" y1="224.5" x2="710.8" y2="212.7"/>
			<line class="st9" x1="736.6" y1="224.5" x2="724.1" y2="212.7"/>
		</g>
	</g>
	<g>
		<polygon class="st10" points="273,377.8 286,368.9 282.5,384.7 		"/>
		<polygon class="st11" points="44.2,322.6 48.4,343.5 30.7,330.8 		"/>
		<ellipse transform="matrix(0.866 0.5 -0.5 0.866 140.9675 -186.8676)" class="st10" cx="419.2" cy="169.6" rx="9.5" ry="4.1"/>
		<ellipse transform="matrix(0.866 0.5 -0.5 0.866 317.8373 -299.3104)" class="st12" cx="717.4" cy="443.4" rx="9.5" ry="4.1"/>
		
			<ellipse transform="matrix(-0.3413 0.94 -0.94 -0.3413 768.5392 406.1958)" class="st13" cx="241.9" cy="472.4" rx="28.6" ry="51.8"/>
		<polygon class="st14" points="573.5,177.8 594.8,177.7 579,192.6 		"/>
		<path class="st13" d="M556.8,245.6c-57.1,26.6-122.6,28.9-181.4,6.2c-51.7-19.9-120.8-36.9-193.7-27.7
			c-149.9,19-121.9,299,166.7,272.5c347.9-31.9,413.4-190.3,334.4-268.7C659.1,204.3,603.5,223.9,556.8,245.6z"/>
		
			<ellipse transform="matrix(0.5472 0.837 -0.837 0.5472 453.8027 -395.9332)" class="st13" cx="592.8" cy="221.4" rx="38.3" ry="51.8"/>
	</g>
	<g>
		<rect x="71.8" y="78.3" class="st15" width="243.3" height="217.9"/>
		<g>
			<path class="st16" d="M225.6,241.2c22.3,0,40.3-18,40.3-40.3s-18-40.3-40.3-40.3s-40.3,18-40.3,40.3h40.3V241.2z"/>
			<circle class="st17" cx="225.6" cy="200.9" r="51"/>
			<circle class="st18" cx="225.6" cy="200.9" r="12.8"/>
			<path class="st19" d="M187.6,208c0,17.3,14,31.2,31.2,31.2c0-15.6,0-31.2,0-31.2H187.6z"/>
		</g>
		<path class="st19" d="M315.1,78.3H71.8v-0.3c0-14.1,11.4-25.5,25.5-25.5h192.2c14.1,0,25.5,11.4,25.5,25.5V78.3z"/>
		<g>
			<rect x="84" y="89.1" class="st16" width="142.3" height="52.8"/>
			<polyline class="st18" points="89.6,99.3 97.1,106.3 111.3,106.6 124.3,123.7 146.5,105.1 168,125.5 196.1,107.4 211.5,108.2 
				221.1,101.3 			"/>
			<circle class="st20" cx="90" cy="99.1" r="2.2"/>
			<circle class="st20" cx="97" cy="106.4" r="2.2"/>
			<circle class="st20" cx="111.3" cy="106.4" r="2.2"/>
			<circle class="st20" cx="124.3" cy="123.4" r="2.2"/>
			<circle class="st20" cx="146.1" cy="105.4" r="2.2"/>
			<circle class="st20" cx="167.6" cy="125.5" r="2.2"/>
			<circle class="st20" cx="196.1" cy="107.6" r="2.2"/>
			<circle class="st20" cx="211.2" cy="108.5" r="2.2"/>
			<circle class="st20" cx="221.1" cy="101.3" r="2.2"/>
			<rect x="90.2" y="117.2" class="st19" width="7.9" height="24.8"/>
			<rect x="101.2" y="129.5" class="st20" width="7.9" height="12.4"/>
			<rect x="112.2" y="127.7" class="st19" width="7.9" height="14.2"/>
			<rect x="123.3" y="134.8" class="st20" width="7.9" height="7.1"/>
			<rect x="134.3" y="123.4" class="st19" width="7.9" height="18.6"/>
			<rect x="145.3" y="129.5" class="st20" width="7.9" height="12.4"/>
			<rect x="156.4" y="131.9" class="st19" width="7.9" height="10"/>
			<rect x="167.4" y="138.4" class="st20" width="7.9" height="3.6"/>
			<rect x="178.4" y="126.3" class="st19" width="7.9" height="15.6"/>
			<rect x="189.5" y="121.2" class="st20" width="7.9" height="20.7"/>
			<rect x="200.5" y="119.4" class="st19" width="7.9" height="22.6"/>
			<rect x="211.5" y="117.2" class="st20" width="7.9" height="24.8"/>
		</g>
		<circle class="st3" cx="87.8" cy="65.6" r="5"/>
		<circle class="st21" cx="101.6" cy="65.6" r="5"/>
		<circle class="st20" cx="115.5" cy="65.6" r="5"/>
		<rect x="233.9" y="89.1" class="st16" width="30.3" height="6.6"/>
		<rect x="266.6" y="89.1" class="st19" width="26.5" height="6.6"/>
		<rect x="233.9" y="99.1" class="st16" width="35.9" height="6.6"/>
		<rect x="272.2" y="99.1" class="st19" width="21" height="6.6"/>
		<rect x="233.9" y="109.2" class="st16" width="12.5" height="6.6"/>
		<rect x="248.6" y="109.2" class="st19" width="44.5" height="6.6"/>
		<rect x="233.3" y="122.3" class="st17" width="70.8" height="19.7"/>
		<circle class="st22" cx="300.8" cy="92.4" r="3.3"/>
		<circle class="st22" cx="300.8" cy="102.4" r="3.3"/>
		<circle class="st22" cx="300.8" cy="112.5" r="3.3"/>
		<line class="st17" x1="145.3" y1="281.9" x2="314.9" y2="281.9"/>
		<path class="st16" d="M230.5,284.4h-4.4c-0.9,0-1.8-0.6-2.1-1.4c-0.1-0.3-0.2-0.6-0.4-0.8c-0.4-0.9-0.2-1.9,0.5-2.5l3.1-3.1
			c0.9-0.9,0.9-2.3,0-3.2l-7.8-7.8c-0.9-0.9-2.3-0.9-3.2,0l-3.1,3.1c-0.7,0.7-1.7,0.8-2.5,0.5c-0.3-0.1-0.6-0.2-0.8-0.4
			c-0.9-0.3-1.4-1.2-1.4-2.1v-4.4c0-1.3-1-2.3-2.3-2.3h-11c-1.3,0-2.3,1-2.3,2.3v4.4c0,0.9-0.6,1.8-1.4,2.1
			c-0.3,0.1-0.6,0.2-0.8,0.4c-0.9,0.4-1.9,0.2-2.5-0.5l-3.1-3.1c-0.9-0.9-2.3-0.9-3.2,0l-7.8,7.8c-0.9,0.9-0.9,2.3,0,3.2l3.1,3.1
			c0.7,0.7,0.8,1.7,0.5,2.5c-0.1,0.3-0.2,0.6-0.4,0.8c-0.3,0.9-1.2,1.4-2.1,1.4h-4.4c-1.3,0-2.3,1-2.3,2.3v11c0,1.3,1,2.3,2.3,2.3
			h4.4c0.9,0,1.8,0.6,2.1,1.4c0.1,0.3,0.2,0.6,0.4,0.8c0.4,0.9,0.2,1.9-0.5,2.5l-3.1,3.1c-0.9,0.9-0.9,2.3,0,3.2l7.8,7.8
			c0.9,0.9,2.3,0.9,3.2,0l3.1-3.1c0.7-0.7,1.7-0.8,2.5-0.5c0.3,0.1,0.6,0.2,0.8,0.4c0.9,0.3,1.4,1.2,1.4,2.1v4.4
			c0,1.3,1,2.3,2.3,2.3h11c1.3,0,2.3-1,2.3-2.3v-4.4c0-0.9,0.6-1.8,1.4-2.1c0.3-0.1,0.6-0.2,0.8-0.4c0.9-0.4,1.9-0.2,2.5,0.5
			l3.1,3.1c0.9,0.9,2.3,0.9,3.2,0l7.8-7.8c0.9-0.9,0.9-2.3,0-3.2l-3.1-3.1c-0.7-0.7-0.8-1.7-0.5-2.5c0.1-0.3,0.2-0.6,0.4-0.8
			c0.3-0.9,1.2-1.4,2.1-1.4h4.4c1.3,0,2.3-1,2.3-2.3v-11C232.8,285.4,231.8,284.4,230.5,284.4z M200.5,309.7
			c-9.7,0-17.6-7.9-17.6-17.6c0-9.7,7.9-17.6,17.6-17.6c9.7,0,17.6,7.9,17.6,17.6C218.1,301.9,210.2,309.7,200.5,309.7z
			 M212.5,292.2c0,6.6-5.4,12-12,12c-6.6,0-12-5.4-12-12c0-6.6,5.4-12,12-12C207.1,280.2,212.5,285.6,212.5,292.2z"/>
		<path class="st23" d="M267.7,301h-3.3c-0.7,0-1.3-0.4-1.6-1.1c-0.1-0.2-0.2-0.4-0.3-0.6c-0.3-0.7-0.1-1.4,0.4-1.9l2.4-2.4
			c0.7-0.7,0.7-1.8,0-2.4l-5.9-5.9c-0.7-0.7-1.8-0.7-2.4,0l-2.4,2.4c-0.5,0.5-1.3,0.6-1.9,0.4c-0.2-0.1-0.4-0.2-0.6-0.3
			c-0.7-0.3-1.1-0.9-1.1-1.6v-3.3c0-1-0.8-1.7-1.7-1.7h-8.4c-1,0-1.7,0.8-1.7,1.7v3.3c0,0.7-0.4,1.3-1.1,1.6
			c-0.2,0.1-0.4,0.2-0.6,0.3c-0.7,0.3-1.4,0.1-1.9-0.4l-2.4-2.4c-0.7-0.7-1.8-0.7-2.4,0l-5.9,5.9c-0.7,0.7-0.7,1.8,0,2.4l2.4,2.4
			c0.5,0.5,0.6,1.3,0.4,1.9c-0.1,0.2-0.2,0.4-0.3,0.6c-0.3,0.7-0.9,1.1-1.6,1.1H222c-1,0-1.7,0.8-1.7,1.7v8.4c0,1,0.8,1.7,1.7,1.7
			h3.3c0.7,0,1.3,0.4,1.6,1.1c0.1,0.2,0.2,0.4,0.3,0.6c0.3,0.7,0.1,1.4-0.4,1.9l-2.4,2.4c-0.7,0.7-0.7,1.8,0,2.4l5.9,5.9
			c0.7,0.7,1.8,0.7,2.4,0l2.4-2.4c0.5-0.5,1.3-0.6,1.9-0.4c0.2,0.1,0.4,0.2,0.6,0.3c0.7,0.3,1.1,0.9,1.1,1.6v3.3
			c0,1,0.8,1.7,1.7,1.7h8.4c1,0,1.7-0.8,1.7-1.7v-3.3c0-0.7,0.4-1.3,1.1-1.6c0.2-0.1,0.4-0.2,0.6-0.3c0.7-0.3,1.4-0.1,1.9,0.4
			l2.4,2.4c0.7,0.7,1.8,0.7,2.4,0l5.9-5.9c0.7-0.7,0.7-1.8,0-2.4l-2.4-2.4c-0.5-0.5-0.6-1.3-0.4-1.9c0.1-0.2,0.2-0.4,0.3-0.6
			c0.3-0.7,0.9-1.1,1.6-1.1h3.3c1,0,1.7-0.8,1.7-1.7v-8.4C269.4,301.7,268.6,301,267.7,301z M244.9,320.2c-7.4,0-13.4-6-13.4-13.4
			c0-7.4,6-13.4,13.4-13.4c7.4,0,13.4,6,13.4,13.4C258.2,314.3,252.2,320.2,244.9,320.2z M253.9,306.9c0,5-4.1,9.1-9.1,9.1
			c-5,0-9.1-4.1-9.1-9.1s4.1-9.1,9.1-9.1C249.9,297.8,253.9,301.9,253.9,306.9z"/>
		<g>
			<line class="st17" x1="236.7" y1="127.7" x2="300.7" y2="127.7"/>
			<line class="st17" x1="236.7" y1="132.1" x2="300.7" y2="132.1"/>
			<line class="st17" x1="236.7" y1="136.5" x2="300.7" y2="136.5"/>
		</g>
		<line class="st18" x1="129.1" y1="65.6" x2="297.5" y2="65.6"/>
	</g>
	<g>
		<path class="st10" d="M421.9,407.4h67l29.3-93.6c0,0-44.5-14.8-68.8,9.4C441.5,353,435.3,368.5,421.9,407.4z"/>
		<path class="st10" d="M421.9,407.8h67l29.3-93.6C518.2,314.3,463.4,337.1,421.9,407.8z"/>
		<path class="st10" d="M377.3,407.8h67l5.1-84.6C449.4,323.3,420.4,349.3,377.3,407.8z"/>
		<rect x="441.4" y="407.8" class="st24" width="40.4" height="3.2"/>
		<line class="st25" x1="461.6" y1="411" x2="461.6" y2="509.2"/>
		<path class="st24" d="M465.1,501.3h-3.5h-3.5c0,0-10.9,23.4-31.7,23.4l35.2-0.5l35.2,0.5C476,524.8,465.1,501.3,465.1,501.3z"/>
		<polyline class="st7" points="425.4,401.9 484.3,401.9 511.3,317.7 		"/>
		<path class="st25" d="M421.9,407.8c0,0,38-76.4,96.3-93.6"/>
		<line class="st25" x1="488.9" y1="407.8" x2="377.3" y2="407.8"/>
	</g>
	<g>
		<path class="st16" d="M214.3,407.2h-67L118,313.6c0,0,44.5-14.8,68.8,9.4C194.7,352.8,200.9,368.3,214.3,407.2z"/>
		<path class="st16" d="M214.3,407.5h-67L118,314C118,314,172.8,336.8,214.3,407.5z"/>
		<path class="st16" d="M258.9,407.5h-67l-5.1-84.6C186.7,323,215.8,349.1,258.9,407.5z"/>
		<rect x="154.4" y="407.5" class="st24" width="40.4" height="3.2"/>
		<line class="st25" x1="174.6" y1="410.7" x2="174.6" y2="508.9"/>
		<path class="st24" d="M171.1,501.1h3.5h3.5c0,0,10.9,23.4,31.7,23.4l-35.2-0.5l-35.2,0.5C160.2,524.5,171.1,501.1,171.1,501.1z"/>
		<polyline class="st7" points="210.8,401.7 151.9,401.7 124.9,317.4 		"/>
		<path class="st25" d="M214.3,407.5c0,0-38-76.4-96.3-93.6"/>
		<line class="st25" x1="147.3" y1="407.5" x2="258.9" y2="407.5"/>
	</g>
	<g>
		<path class="st26" d="M542.6,498.7l24.7,1.1c0,0,2.8,10.3,9,12.4c13.1,4.5,12.6,7.3,12.6,12.3l-43.9,0.1
			C544.9,524.6,544,512.8,542.6,498.7z"/>
		<path class="st27" d="M567.3,499.8l-4.4-17.8c0,0-3-0.6-11-0.6c-6,0-10.9,9.2-10.9,9.2l1.6,8.1L567.3,499.8z"/>
		<path class="st26" d="M502.7,500.6l-27.8-1.9c0,0-4.8,11.3-20.7,15.8c-15.9,4.5-20.4,4.9-21.5,10.2h67.6
			C500.2,524.6,501.9,513.1,502.7,500.6z"/>
		<path class="st27" d="M502.7,500.6l2.1-16.1c0,0-2.9-0.9-14.2-0.9c-5.6,0-15.3,7-15.3,7l-0.5,8.1L502.7,500.6z"/>
		<line class="st28" x1="544.5" y1="519.7" x2="588" y2="519.7"/>
		<line class="st28" x1="500.9" y1="519.7" x2="435.8" y2="519.7"/>
		<line class="st28" x1="567" y1="510.3" x2="574.4" y2="506"/>
		<line class="st28" x1="569.4" y1="513.8" x2="576.8" y2="509.4"/>
		<line class="st28" x1="471.9" y1="508.6" x2="464.5" y2="504.2"/>
		<line class="st28" x1="469.5" y1="512" x2="462.1" y2="507.7"/>
		<path class="st11" d="M527.9,187.8c0,0,0.7-0.4,14,6.1c11.6,5.7,11.4,17.9,11.6,25l-0.3,77.9h-62.8l2.5-56.8c0,0-6.6-51,15-51.2
			L527.9,187.8z"/>
		<path class="st14" d="M553.2,296.8h-62.6c0,0-5.5,75.9-5.5,84c0,8.1-9.9,109.7-9.9,109.7h34.1c0,0,5-29.8,5-67.4s1-52.8,3.7-66
			c2.7-13.2,4.4-26.4,4.4-26.4s6.4,67.1,7.8,77c1.4,9.8,8.2,82.9,8.2,82.9H569c0,0,9-35.6,1.2-61.3s-10.5-51.5-10.2-55.9
			S553.2,296.8,553.2,296.8z"/>
		<path class="st11" d="M527.9,187.8l19.9,0c0,0,10.8,0.8,19.4,20.1l18.6,37.9c6.4,12.9-2.7,28.1-17.1,28.6l-36.2-0.2l-14.2,0.7
			l-1.1-31.1l12.4,1.8L527.9,187.8z"/>
		<path class="st11" d="M507.9,188.8l-13.6-0.1c0,0-10.8,0.8-19.4,20.1l-18.6,40.5c-6.4,12.9,2.3,25.1,16.7,25.6h47.3l-2.4-29.9
			l-9.7,0L507.9,188.8z"/>
		<path class="st29" d="M524.3,174.1l8.9-15.3c0,0,0-6.9-5.3-7.2c0,0,2-3.5-0.7-4.5c-2.7-1-14.4,3.1-28.3,3.9
			C498.8,151,498.8,168.4,524.3,174.1z"/>
		<path class="st30" d="M505.6,159.8l-1.6,16.4c0,0,1.5,6.1,8.4,6.5l-2.1,9.8c0,0-3.2,10.2,7,8.9c0,0,7.5-2.8,8.3-12.4l-0.8-15.5
			c0,0,7.4,0.7,6-5.7c0,0-3.1-5.6-7,2.5c0,0-2-7.4,0-12C523.8,158.2,507.9,163.9,505.6,159.8z"/>
		<path class="st20" d="M522.1,168c0,0-4.3-3.3-7.5,0.4C514.5,168.5,517.9,173.1,522.1,168z"/>
		<path class="st31" d="M512.5,182.7c0,0,4.6,0.2,6-2.2c0,0-0.6,4.4-6.6,4.7L512.5,182.7z"/>
		<path class="st29" d="M514.4,164.9c0,0,4.1-1.3,6.7,0.8c0,0-1.6-1.8-4.9-2.2C516.3,163.5,515.1,163.8,514.4,164.9z"/>
		<polyline class="st32" points="512.5,168.4 511,173.4 512.7,173.6 		"/>
		<path class="st29" d="M516.8,175.1c0,0-1.8,4.3-6.3,1L516.8,175.1z"/>
		
			<ellipse transform="matrix(-0.998 -6.387641e-002 6.387641e-002 -0.998 1022.6082 369.8082)" class="st29" cx="517.2" cy="168.6" rx="1.5" ry="1.8"/>
		<path class="st29" d="M505.3,163.3c0.7-0.2,1.5-0.3,2.5-0.3c0,0,1.2,0.4,1.7,1.6c0,0-2-0.9-4.2-0.8L505.3,163.3z"/>
		<line class="st33" x1="525.9" y1="171.2" x2="528.8" y2="169.2"/>
		<path class="st30" d="M496.8,229.3c-5-1.3-18.4,3.9-23,4.6c-4.6,0.7-0.2,3.6,0.8,3.6c0,0-3.1,2-0.3,2.8c0,0-0.6,2.7,2.6,2.1
			c0,0-0.8,2.1,3.5,1.6c0,0,6.3-1.4,11.2,0.8c4.9,2.2,7.2,3.3,7.2,3.3l23.1-2.5C522,245.6,501.8,230.7,496.8,229.3z"/>
		<path class="st30" d="M544.7,233.9c5-1,18,5.3,22.5,6.4c4.5,1-0.1,3.6-1,3.5c0,0,3,2.3,0.1,2.8c0,0,0.4,2.8-2.8,1.9
			c0,0,0.7,2.1-3.6,1.3c0,0-6.2-1.9-11.2,0c-5,1.9-24.8,11.8-24.8,11.8l-6.5-17.6C517.3,243.9,539.6,234.8,544.7,233.9z"/>
		<polygon class="st30" points="523.8,261.6 510.6,268.4 510.3,246.3 517.3,243.9 		"/>
		<polygon class="st11" points="514.4,244.3 481.1,248.1 482,274.3 514.8,273.3 		"/>
		<polyline class="st34" points="556.4,274.9 521.7,274.9 491.2,274.9 		"/>
		<polygon class="st35" points="514.3,244.5 514.6,266.3 518.8,264.1 		"/>
		<polygon class="st35" points="525.4,187.9 533,187.9 525.1,211.9 517.3,201.4 		"/>
		<polygon class="st35" points="517.3,201.4 511.5,188.7 505.1,188.7 510.3,212.5 		"/>
		<path class="st36" d="M566.2,243.8c-0.4-0.7-14.4-5.1-14.4-5.1"/>
		<line class="st36" x1="566.3" y1="246.5" x2="554.4" y2="242.3"/>
		<line class="st36" x1="563.5" y1="248.4" x2="554.4" y2="244.9"/>
		<line class="st36" x1="474.7" y1="237.5" x2="486.1" y2="234.5"/>
		<line class="st36" x1="474.3" y1="240.3" x2="484.9" y2="238"/>
		<line class="st36" x1="476.9" y1="242.4" x2="484.9" y2="241.1"/>
		<line class="st37" x1="544.6" y1="309.4" x2="559.3" y2="490.6"/>
		<line class="st37" x1="495.4" y1="308.1" x2="482.8" y2="490.6"/>
		<line class="st37" x1="522.7" y1="332.3" x2="520.1" y2="310.3"/>
		<line class="st37" x1="527.2" y1="309.4" x2="514.8" y2="309.4"/>
		<polygon class="st16" points="565,490.6 565.7,493.4 540.9,490.6 		"/>
		<polygon class="st16" points="504,490.6 503.4,494.7 475.3,490.6 		"/>
		<path class="st20" d="M504.9,167l-0.2,1.7c3.6,3.4,6.5-0.4,6.5-0.4C509.2,165.7,506.5,166.3,504.9,167z"/>
		
			<ellipse transform="matrix(0.9994 -3.549096e-002 3.549096e-002 0.9994 -5.6512 18.1033)" class="st29" cx="507.1" cy="168.2" rx="1.5" ry="1.8"/>
		<line class="st37" x1="539.9" y1="306.8" x2="552.8" y2="313.8"/>
		<path class="st37" d="M499.2,304.4c-0.8,0-10.1,10.7-10.1,10.7"/>
		<line class="st34" x1="491.2" y1="229.5" x2="493.3" y2="207"/>
		<line class="st34" x1="546.4" y1="208.4" x2="550.4" y2="234.5"/>
		<line class="st34" x1="565.9" y1="248.1" x2="570.5" y2="249.4"/>
		<line class="st34" x1="474.3" y1="241.8" x2="471.8" y2="243.1"/>
		<line class="st7" x1="508.1" y1="245.1" x2="509" y2="274"/>
		<polygon class="st19" points="512.3,209.2 515.2,213.6 520.2,213.6 523.2,209.2 517.3,201.4 		"/>
		<polygon class="st19" points="515.3,213.6 510.3,237.3 518.9,244.5 525.2,240.8 520.3,213.6 		"/>
		<line class="st38" x1="515.3" y1="213.6" x2="520.3" y2="213.6"/>
		<line class="st34" x1="520.2" y1="274.9" x2="520.2" y2="296.7"/>
		<path class="st39" d="M523.8,158.2c0,0,2.5-3,3.1-5.1"/>
		<path class="st39" d="M528.6,149c0,0-7.5,12.4-22.9,10.8"/>
		<path class="st39" d="M524.3,147.1c0,0-8.3,14.4-24.8,8"/>
		<path class="st39" d="M517.8,148.2c0,0-9.3,8.8-18.9,3.6"/>
		<path class="st39" d="M525,156.7c0,0,3.4,3.2,1.6,9.7"/>
		<path class="st39" d="M526.9,153.9c-0.2-0.3,4.5,2.1,4.7,7.7"/>
		<g>
			<polygon class="st3" points="434.1,110.3 504.5,110.3 509.6,144.4 495.8,144.4 498.9,159.6 481.9,144.4 439.2,144.4 			"/>
			<polygon class="st7" points="500,114.1 503.9,138.8 443.6,138.8 438.8,114.1 			"/>
			<line class="st7" x1="495.9" y1="119.2" x2="445.8" y2="119.2"/>
			<line class="st7" x1="496.9" y1="122.6" x2="446.8" y2="122.6"/>
			<line class="st7" x1="497.8" y1="126.1" x2="447.7" y2="126.1"/>
			<line class="st7" x1="498.8" y1="129.5" x2="448.7" y2="129.5"/>
			<polygon class="st18" points="429.1,142.1 472.2,142.1 477.3,162.4 468.2,162.4 470.9,174.2 456.4,162.4 434.2,162.4 			"/>
		</g>
	</g>
	<g>
		<path class="st40" d="M589.9,314.4l19.4-4l17.2,17l8.9-55.6c0,0,7.2-13.3,16.1-12.9l6.7,84L643,362.3c-6.3,8.2-18.9,7.5-24.3-1.3
			L589.9,314.4z"/>
		<path class="st29" d="M677.6,222.9c0,0-2,12.1,8.5,11.3c10.6-0.9,15,8.2,15.2,14.3l-56.6,9.1c0,0-2.6-6.9,3.2-9.8
			c5.8-2.8,10.5-15.3,10.8-19.9L677.6,222.9z"/>
		<path class="st6" d="M640.9,352.7l-51.8,21.4c0,0-21.8,13,0,33.6l66.4,79.9l35.6,0l-61.1-88.9l33.3-37.7L640.9,352.7z"/>
		<path class="st6" d="M696.2,354.7c0,0,9.5,28.4-42.3,41.6l-26,91.4h-36.8l22.8-88.7c1.4-13.5,7.5-16.1,19.7-26.3l17.7-19.6
			L696.2,354.7z"/>
		<path class="st29" d="M651.3,231.1c0,0-8-7.1-3.4-12.9c4.6-5.8,17.1-0.6,17.1-0.6s11-2,12.6,5.7c1.6,7.6-8.1,25.7-8.1,25.7
			L651.3,231.1z"/>
		<path class="st40" d="M672.4,255.8c0,0,8.5-1.3,16.8,3.1c10.5,5.6,10,13.6,9.8,20.7l-8.8,40.6l6,34.5h-57.6l7.1-44.3
			c0,0-15.4-43.6,8.1-52.8L672.4,255.8z"/>
		<path class="st30" d="M670.4,238.2c0,0,4.5-6.7,0.1-8.9c-2.7-1.4-4.7,3.6-4.7,3.6s-6.9-1.3-5.8-6.4c0,0-5.2,0.6-8.4-1.2
			c0,0-0.5,7.6-0.9,12.4c-1,0.8-2.1,1.7-2.7,2.1c-0.8,0.6,1.2,1,2.5,1.2c0,6.7,1.7,11.9,11.2,7.6l-4.2,8.6l0,0
			c-1.7,6.1,12,4.9,15.7-1.7L670.4,238.2z"/>
		<path class="st20" d="M658.7,234.5c0,0-4.5-1.5-6.1,2.4C652.6,236.9,656.7,239.8,658.7,234.5z"/>
		<path class="st41" d="M654.1,235c0.4,0.1,0.7,0.2,1,0.5c0.5,0.6,0.5,1.6-0.2,2.2c-1.3-0.1-2.3-0.8-2.3-0.8
			C653,236,653.5,235.4,654.1,235z"/>
		<path class="st32" d="M652.8,241.2c0,0,2.7,1.6,5.3-0.7"/>
		<path class="st42" d="M661.9,248.7l4.2-2.5c0,0-1.2,4-5.8,5.7L661.9,248.7z"/>
		<path class="st42" d="M668.3,236c0,0,1-3.6,2.6-4.8C670.8,231.2,667.7,230.4,668.3,236z"/>
		<path class="st41" d="M654.2,233c0,0,3.5-1.3,5.7,1.1C660,234.2,658.9,230.5,654.2,233z"/>
		<path class="st40" d="M677.8,255.7l9.2,1.4c4.7,0.7,8.8,3.6,11,7.8l22.7,50.9c4.9,9.2,0.7,20.6-9,24.5l-71.7,18.9l-3.7-22.8
			l53.5-22.5L677.8,255.7z"/>
		<path class="st30" d="M637.2,341.1l-19.1,2.3l-29,11.4c0,0,3.7,1.6,6.6,0c0,0,2.4,2.1,4.3,0.7l16.8-2.7l8.5,1.2
			c3.6,0.5,7.3,0,10.7-1.5l2.9-1.3L637.2,341.1z"/>
		<polygon class="st43" points="673.3,254.7 662.2,261.2 668.9,266.4 679.7,255.9 		"/>
		<polygon class="st43" points="657.1,255.8 662.2,261.2 655.8,265.4 651.4,257.7 		"/>
		<polygon class="st30" points="594.9,487.7 592.1,500.5 615.6,500.5 619.8,487.7 		"/>
		<path class="st30" d="M592.1,500.5l-2.9,12.6c0,0-2.8,6.9-12.6,7.6l23.8-1.1l9.2-5.9l5.9-13.2H592.1z"/>
		<path class="st44" d="M615.6,500.5L615.6,500.5c-7.4,0-14.2,3.8-18,10.1l-1.8,2.9c0,0-3.3,6-18.5,5.3c0,0-8.3,1.5-9.3,5.8h32.6
			l4.4-4.9l-0.8,4.9h5.3L615.6,500.5z"/>
		<path class="st30" d="M686.9,487.7H662l4.9,5.5c4,4.4,4.7,10.8,1.9,16l-2.2,3.9c0,0-2.8,6.9-12.6,7.6l23.8-1.1l9.2-5.9l5.9-13.2
			L686.9,487.7z"/>
		<path class="st44" d="M693,500.5L693,500.5c-7.4,0-14.2,3.8-18,10.1l-1.8,2.9c0,0-3.3,6-18.5,5.3c0,0-8.3,1.5-9.3,5.8h32.6
			l4.4-4.9l-0.8,4.9h5.3L693,500.5z"/>
		<polyline class="st45" points="643.9,327.1 645.8,310.4 651.4,310.2 		"/>
		<path class="st45" d="M645.8,310.4c0,0-4.9-14.7-4.9-26.4"/>
		<polyline class="st45" points="642,334.1 692.9,312.7 675.7,276.3 		"/>
		<line class="st7" x1="647.7" y1="331.7" x2="650.4" y2="355.9"/>
		<line class="st36" x1="595.7" y1="354.8" x2="612.9" y2="348.5"/>
		<line class="st36" x1="600" y1="355.4" x2="614.9" y2="350.8"/>
		<polygon class="st43" points="637.2,341.1 637.6,351.6 638.8,351.1 		"/>
		<polygon class="st43" points="656.8,354.6 694.6,344.9 696.2,354.7 		"/>
		<line class="st45" x1="692.9" y1="312.7" x2="699.1" y2="314.2"/>
		<g>
			<rect x="597.7" y="294" class="st14" width="55.1" height="2.8"/>
			<polygon class="st14" points="553.6,296.9 534.4,249.1 598,250 618,296.9 			"/>
			<polygon class="st10" points="535.2,251.1 595.8,252.1 615.4,296.7 553.6,296.9 			"/>
			<circle class="st20" cx="571.7" cy="273" r="5.7"/>
		</g>
		<line class="st7" x1="667.4" y1="361" x2="685.5" y2="368.9"/>
		<path class="st7" d="M676.5,364.9L635.3,390c0,0-6.6,3.3-10.4,22.6l-17.4,75.1"/>
		<path class="st7" d="M642,364.9l-36.8,16c0,0-8.2,8.9-2.6,17.4l8.7,11"/>
		<line class="st7" x1="641.2" y1="441" x2="676.5" y2="487.6"/>
		<path class="st46" d="M606.3,428.5l8.1-33.1c0,0,3.7-12.7,11.7-16.6l20.3-20.2"/>
		<polygon class="st29" points="619.8,487.7 618.6,491.3 594.9,487.7 		"/>
		<polygon class="st29" points="662,487.7 686.9,487.7 689,492 		"/>
		<polygon class="st29" points="653.9,396.3 646.9,396.3 646.4,422.5 		"/>
		<line class="st46" x1="646.4" y1="422.5" x2="634.6" y2="464.3"/>
		<path class="st30" d="M599.2,301.1c-3.3-3.3-9.1-6.1-12.8-5.7l-1.8,0.2c0,0-12.9-5.1-14.8-3.7c-1,0.8,2.6,2.6,6.1,4.2l-14.7-2.8
			c-3.2-0.8-4.3,0.6-4.3,0.6c-2.9-1.6-6.6-0.2-6.6-0.2l33.6,10.9l8.7,9.2l15.7-3.3L599.2,301.1z"/>
		<polyline class="st36" points="575.4,295.9 581.4,296.7 584.1,296.4 		"/>
		<line class="st36" x1="556.9" y1="293.9" x2="573.6" y2="298.8"/>
		<line class="st45" x1="626.4" y1="327.4" x2="632.3" y2="332.5"/>
		<line class="st7" x1="592.8" y1="319.2" x2="612.9" y2="314"/>
		<polygon class="st43" points="608.2,310.6 590.9,312.1 592.5,313.8 		"/>
	</g>
	<g>
		<path class="st44" d="M297.8,500.1l24.7-1.1c0,0-3.2,8.2,7.7,13.5c12.5,6,12.6,7.3,12.6,12.3h-49.9
			C292.9,524.9,295.6,512,297.8,500.1z"/>
		<path class="st27" d="M297.8,500.1l3-17.6c0,0,4.4-0.8,12.5-0.8c6,0,12.6,1,12.6,1l-3.3,16.3L297.8,500.1z"/>
		<path class="st44" d="M365.8,500.9l27.8-1.9c0,0,4.8,11.3,20.7,15.8c15.9,4.5,20.4,4.9,21.5,10.2h-67.6
			C368.2,525,366.6,513.4,365.8,500.9z"/>
		<path class="st27" d="M365.8,500.9l-2.9-16c0,0,3.7-1.1,15-1.1c5.6,0,14.9,1,14.9,1l0.8,14.1L365.8,500.9z"/>
		<polygon class="st6" points="316.1,288.9 295.6,483.9 329,483.9 349.5,362.3 360,486.8 396.5,486.8 375.6,288.9 		"/>
		<polygon class="st29" points="349,364.9 358,311.6 352.3,386.4 		"/>
		<line class="st46" x1="315.6" y1="313.9" x2="338.6" y2="299.9"/>
		<line class="st46" x1="325.6" y1="307.8" x2="308.3" y2="483.9"/>
		<line class="st46" x1="370.8" y1="304.5" x2="389.5" y2="486.2"/>
		<polygon class="st29" points="300.6,483.9 300.1,486.8 325.9,483.9 		"/>
		<line class="st47" x1="293.9" y1="520" x2="342" y2="520"/>
		<line class="st47" x1="367.6" y1="520" x2="432.6" y2="520"/>
		<polygon class="st29" points="363.2,486.8 363.7,489.6 392.9,486.8 		"/>
		<line class="st47" x1="321" y1="510.7" x2="328.4" y2="506.3"/>
		<line class="st47" x1="323.4" y1="514.1" x2="330.8" y2="509.8"/>
		<line class="st47" x1="396.5" y1="509" x2="404" y2="504.6"/>
		<line class="st47" x1="399" y1="512.4" x2="406.4" y2="508.1"/>
		<line class="st46" x1="366.1" y1="299.9" x2="378" y2="311.6"/>
		<path class="st19" d="M342.7,188.2c0,0-2.9-0.4-16.1,6.1c-11.6,5.7-11.4,17.9-11.6,25l0.3,77.9H378l-2.5-56.8l20.7-17.1
			c0,0-14.1-33.9-35.7-34.1L342.7,188.2z"/>
		<polygon class="st20" points="346.9,196.9 359.6,241.2 360.5,196.2 		"/>
		<path class="st29" d="M347.8,175.5l-7.9-15.8c0,0,0.5-6.9,5.7-6.9c0,0-1.8-3.7,1-4.5s22.6-4.5,24.5,9.1
			C371.1,157.4,369.7,171.6,347.8,175.5z"/>
		<path class="st30" d="M367.3,162.3l0.6,16.4c0,0,0.1,6.5-7.3,6.1v9.8c0,0,1.3,8.8-8.8,6.8c0,0-6.1-1.6-6.3-11.3l1.8-15.4
			c0,0-7.4,0.2-5.7-6.1c0,0,3.4-5.4,6.9,3c0,0,2.5-7.3,0.8-12c0,0,4.3,3.9,6.1,3.2c3-1.2,1.4-3.2,1.4-3.2S364.7,166.3,367.3,162.3z"
			/>
		<path class="st20" d="M353.3,169.5c0,0,4.5-3,7.5,0.9C360.8,170.5,357.1,174.9,353.3,169.5z"/>
		<path class="st41" d="M358.6,168.8c-0.4,0.2-0.7,0.5-0.9,0.9c-0.4,0.9,0,1.9,0.8,2.3c1.4-0.4,2.3-1.5,2.3-1.5
			C360.1,169.6,359.3,169.1,358.6,168.8z"/>
		<path class="st20" d="M367.5,168.5c-1.4-0.2-3.2,0.1-4.6,2c0,0,2,2.5,4.7,1.5L367.5,168.5z"/>
		<path class="st41" d="M366.5,168.5c0,0-2,1.2-0.4,3.7c0,0,1.1,0.2,1.5-0.2l-0.1-3.4C367.5,168.5,366.7,168.3,366.5,168.5z"/>
		<polygon class="st20" points="346,186.5 339.1,188.4 347.8,206 355.2,201.8 		"/>
		<polygon class="st20" points="355.2,201.8 360.5,187.3 365.9,190.6 362.7,206.8 		"/>
		<polyline class="st7" points="338,188.6 333.6,194.3 340.3,199.3 335.8,204.8 359,239 		"/>
		<polyline class="st7" points="365.9,190.6 370.8,195.2 365.9,202.4 370.8,206 359.6,239.5 		"/>
		<path class="st48" d="M360.5,184.8c0,0-4-0.7-5.3-3.2c0,0,0.7,4.5,5.4,5.6L360.5,184.8z"/>
		<path class="st41" d="M359.6,166.4c0,0-4-1.5-6.8,0.4c0,0,1.7-1.6,5-1.9C357.8,164.9,359,165.2,359.6,166.4z"/>
		<path class="st41" d="M367.4,165.1c-0.4-0.1-0.9-0.2-1.4-0.2c0,0-1.2,0.3-1.8,1.5c0,0,1.4-0.6,3.2-0.6L367.4,165.1z"/>
		<polyline class="st32" points="361.8,170.3 364.2,175.7 361.8,175.7 		"/>
		<path class="st41" d="M357.6,177.3c0,0,1.5,4.4,6.2,1.4L357.6,177.3z"/>
		<path class="st30" d="M253.4,189.3c0,0-2.4-6.6-7.9-14.2c-5-7.1-9.6-8.3-12.1-10.2c-0.7-0.5-11.9-9.3-12.9-8
			c-0.5,0.7,10.3,11,11.4,12.7c0,0-5.3,0.5-1.2,6.1c0,0-6.2-2,0.5,6.8c0,0,8.4,13.9,8.4,17L253.4,189.3z"/>
		<path class="st30" d="M249.9,181.9c0,0-0.9-7.8-3-9.5c-2.2-1.7-6.8-2.4-6.8-2.4S244.9,178.7,249.9,181.9z"/>
		<polygon class="st21" points="350.8,204.2 353.7,208.8 357.2,208.8 358.4,203.8 355.2,201.8 		"/>
		<polyline class="st49" points="349.8,204.8 355.2,201.8 359.6,204.6 		"/>
		<polygon class="st21" points="353.7,208.8 353.7,220.9 359.4,240.4 360,220.9 357.2,208.8 		"/>
		<line class="st49" x1="353.7" y1="208.8" x2="357.2" y2="208.8"/>
		<line class="st39" x1="349.3" y1="159.6" x2="346.3" y2="156.7"/>
		<line class="st39" x1="356.8" y1="159.6" x2="354.6" y2="156.7"/>
		<line class="st39" x1="367.3" y1="162.3" x2="367.8" y2="157.3"/>
		<line class="st46" x1="351.4" y1="311.6" x2="364.3" y2="311.6"/>
		<path class="st19" d="M330,192.7c0,0-12,2.6-23.2,20l-21.3,25l-29.9-50l-18.7,14l37.6,65.3c5.7,8.7,18.2,9.6,25,1.8l24.2-27.6
			L330,192.7z"/>
		<path class="st50" d="M240.1,170c0,0-3.1,0.7-1.9,2.8c1.2,2.1,4.5,2.3,4.5,2.3"/>
		<path class="st50" d="M242.6,175c0,0-3.6,2.3-5.8,8.8"/>
		<line class="st50" x1="230.9" y1="175.7" x2="235.7" y2="179.8"/>
		<path class="st50" d="M232,169.6l6.5,6.9c0,0,0.3,3.3-2.8,3.3c0,0-0.2,2-1.6,2.1l-4.8-2.4"/>
		<path class="st30" d="M428.2,218.6l6.3-11c0,0,17.3-13.8,19.7-16s2.5,0.6-0.6,3.1c-3.1,2.5-5.5,5.4-4.3,6.4
			c1.3,1,14.7-9.7,17.9-10.3s1.1,2.4,1.1,2.4s2.4-0.2,1.5,0.8c-0.9,1-1.7,1.7-1.7,1.7s1.9,0.2-1.2,1.8c-3.2,1.6-15.8,11-21.6,14.3
			l-3.9,11.7L428.2,218.6z"/>
		<path class="st19" d="M444.5,224.6c-1.1-0.3-18.5-6.7-18.5-6.7l-38.8,49.5c-4.8,6.2-3.6,15.2,2.7,19.9l0,0
			c7.1,5.3,17.2,2.8,21-5.1L444.5,224.6z"/>
		<path class="st19" d="M396.2,223.3c0,0,11.2,25.7,14.8,42.7c0,0-4.9,20.5-16.2,22.9c-15,3.2-20.6-54.6-20.6-54.6L396.2,223.3z"/>
		<line class="st51" x1="375" y1="238.3" x2="375" y2="220.5"/>
		<polygon class="st20" points="428.2,218.6 429.6,216.1 443.6,222.1 443,224.1 		"/>
		<line class="st51" x1="315.2" y1="252.3" x2="316.9" y2="223.4"/>
		<line class="st52" x1="468.3" y1="193.1" x2="450.6" y2="204.3"/>
		<line class="st52" x1="468.1" y1="195.7" x2="452.8" y2="205.5"/>
		<circle class="st20" cx="243.3" cy="204.2" r="1.6"/>
		<circle class="st20" cx="436" cy="226.9" r="1.6"/>
		<line class="st7" x1="359.9" y1="257.1" x2="359" y2="297.2"/>
		<line class="st51" x1="285.5" y1="237.6" x2="290.8" y2="243.7"/>
		<polygon class="st20" points="237.9,200.9 236.1,198.3 253.4,185.8 254.9,188.2 		"/>
	</g>
	<g>
		<path class="st10" d="M656.5,407.5h67l29.3-93.6C752.8,314,698,336.8,656.5,407.5z"/>
		<rect x="676" y="407.5" class="st24" width="40.4" height="3.2"/>
		<line class="st25" x1="696.2" y1="410.7" x2="696.2" y2="508.9"/>
		<path class="st24" d="M699.7,501.1h-3.5h-3.5c0,0-10.9,23.4-31.7,23.4l35.2-0.5l35.2,0.5C710.6,524.5,699.7,501.1,699.7,501.1z"/>
		<polyline class="st7" points="660.1,401.7 718.9,401.7 745.9,317.4 		"/>
	</g>
	<g>
		<path class="st29" d="M66.1,184.3c-7.2-9-1.3-10.3,9.8-10.4c5.6-0.1,8-9,8-9c-0.2-3,0.5-5.7,3.5-7.2c0,0,0-2.5,4.9-3.3
			c3.2-0.5,8.8-2.5,13.5-2.8c4.9-0.3,9,3.7,8.7,8.5c-0.2,3-2,5.7-7.3,6.1c-4.3,0.3-7.8,1.6-10.5,3.2c5.6,2.1,9.2,1.8,9.1,2.3
			c-0.1,1.1-1,10,5,15.5c5.9,5.4,5.9,20.3-12.9,14.7c-10.2-3-31.4,3.2-37-2.4C51.7,190.3,68.9,187.8,66.1,184.3z"/>
		<path class="st53" d="M148.9,247.4L128.6,258l8,19.4l35.1-14.4c18.9-8.4,6.1-21.8,6.1-21.8s-43.9-40.4-49.4-43.9
			c-11.4-7.2-22.9-5.3-22.9-5.3l5.4,30.9L148.9,247.4z"/>
		<path class="st39" d="M98.9,180.8c0,0,3.7,6.2,2.9,10.1"/>
		<path class="st54" d="M48.4,499.5l24.7-1.1c0,0-3.2,8.2,7.7,13.5c12.5,6,12.6,7.3,12.6,12.3H43.5
			C43.5,524.2,46.2,511.3,48.4,499.5z"/>
		<path class="st55" d="M48.4,499.5l3-17.6c0,0,4.4-0.8,12.5-0.8c6,0,12.6,1,12.6,1l-3.3,16.3L48.4,499.5z"/>
		<path class="st54" d="M119.2,500.3l27.8-1.9c0,0,4.8,11.3,20.7,15.8c15.9,4.5,20.4,4.9,21.5,10.2h-67.6
			C121.6,524.3,120,512.8,119.2,500.3z"/>
		<path class="st55" d="M119.2,500.3l-2.9-16c0,0,3.7-1.1,15-1.1c5.6,0,14.9,1,14.9,1l0.8,14.1L119.2,500.3z"/>
		<path class="st53" d="M85.9,189.3c0,0-8.5-1.3-16.8,3.1c-10.5,5.6-10,13.6-9.8,20.7l8.8,40.6l-1.4,34.5h53l-7.1-44.3
			c0,0,15.4-43.6-8.1-52.8L85.9,189.3z"/>
		<path class="st56" d="M66.6,288.2c0,0-7.5,5.9-6.4,37.1c-5.1,20.6-11.8,44.4-15.3,68C40,426,42.6,456,45.1,475.2
			c0.7,5.6,6,8.1,6,8.1h25c0,0,5.6-2.1,6.2-7.9c2.7-23.5,7.6-34.5,11-72.9c1.6-18.4,6.2-61.8,6.2-61.8l9.4,126.7
			c0.3,4.2,0,8.3,2.9,12.7l4.5,5.5l29.7-1.2c6.6-5.2,10-14.7,8.7-23c0,0-7.7-75.6-12.1-101.7c-10.3-61.5-23.2-71.3-23.2-71.3H66.6z"
			/>
		<path class="st57" d="M87.9,171.6c0,0-4.5-6.7-0.1-8.9c2.7-1.4,4.7,3.6,4.7,3.6s6.9-1.3,5.8-6.4c0,0,5.2,0.6,8.4-1.2
			c0,0,0.5,7.6,0.9,12.4c1,0.8,2.1,1.7,2.7,2.1c0.8,0.6-1.2,1-2.5,1.2c0,6.7-1.7,11.9-11.2,7.6l4.2,8.6v0c1.7,6.1-12,4.9-15.7-1.7
			L87.9,171.6z"/>
		<path class="st20" d="M99.3,168.4c0,0,4.2-2.2,6.4,1.4C105.8,169.8,102.3,173.4,99.3,168.4z"/>
		<path class="st58" d="M104,168.2c-0.4,0.1-0.7,0.3-0.9,0.7c-0.4,0.7-0.2,1.7,0.5,2.1c1.2-0.3,2.1-1.2,2.1-1.2
			C105.3,169,104.6,168.5,104,168.2z"/>
		<polygon class="st14" points="99.6,340.6 104.4,313.4 102.1,373.5 		"/>
		<path class="st7" d="M126.2,283.7c-0.5,0.1-60,0-60,0"/>
		<line class="st59" x1="104.4" y1="313.4" x2="110.9" y2="313.4"/>
		<line class="st59" x1="60.3" y1="325.3" x2="66.2" y2="325.3"/>
		<polygon class="st14" points="146.2,484.3 146.6,490.3 117.7,491.8 116.5,485.5 		"/>
		<path class="st14" d="M51.1,483.3l-0.7,4.1l24.8,0.7l1-4.8C76.2,483.3,50.5,483.2,51.1,483.3z"/>
		<path class="st60" d="M188,521.6c-1.2-1.1-65.8,0-65.8,0"/>
		<line class="st60" x1="93.4" y1="521.1" x2="44.1" y2="521.1"/>
		<path class="st28" d="M156.5,504.3c-0.5,0.2-8,6.1-8,6.1"/>
		<path class="st28" d="M160.5,507.4c-0.5,0.2-8,6.1-8,6.1"/>
		<path class="st28" d="M80.1,505.9c-0.5,0.2-8,6.1-8,6.1"/>
		<path class="st28" d="M84.1,508.9c-0.5,0.2-8,6.1-8,6.1"/>
		<path class="st61" d="M96.4,182.1l-4.2-2.5c0,0,1.2,4,5.8,5.7L96.4,182.1z"/>
		<path class="st39" d="M85,165.8c0,0,1.6,8.7-3.9,9.9c-5.5,1.1-13.8,0.8-13,3.9c0.8,3.1,6.5,8,2.7,9.2c-3.7,1.2-3.7,4.9-3.7,4.9"/>
		<path class="st39" d="M87.9,171.6c0,0-0.5,7.8-5.3,8.1c-4.9,0.2-8.3,2-7,4c1.4,2,2.2,4.9-0.3,6.4"/>
		<path class="st61" d="M90,169.5c0,0-1-3.6-2.6-4.8C87.4,164.6,90.6,163.9,90,169.5z"/>
		<path class="st39" d="M87.7,162.7c0,0-1.1-3.9,5-5.5c6.1-1.6,13.9-4.7,20.3-2.4"/>
		<path class="st39" d="M90.7,163.5c0,0,2.4-5.1,8.3-5.6c5.9-0.5,14.9-1.8,14.1,5.6"/>
		<path class="st58" d="M104.5,166.6c0,0-3-2.1-5.9-0.3C98.7,166.3,100.6,163,104.5,166.6z"/>
		<path class="st30" d="M129.1,259.2l-13.2,6.2l3.6,20.8l13.7,7.2c0,0,2.1-2.5-1.1-4.3c-3.2-1.9-4.9-3.1-4.9-3.1l9.7,4.3
			c0,0,1.7-2.1-0.9-3.4c-2.6-1.4-8.2-5.3-8.2-5.3s0.5-3.4,2.8-4.2l5-2.3L129.1,259.2z"/>
		<path class="st62" d="M115,200.9c0,0,3.5,12.5,1.5,24.5"/>
		<path class="st53" d="M85,189.1l-14.8,0.8c-5.6,0.3-10.8,3.2-13.9,8c-2,3-5.1,5.3-7.3,12.1l-25.4,50c-4.2,8.4,9.6,28.3,25.6,16.4
			L92.4,238l-16.7-29.7L85,189.1z"/>
		<line class="st50" x1="127.3" y1="286.1" x2="123.7" y2="281.9"/>
		<line class="st7" x1="135.2" y1="254.6" x2="142.1" y2="272.8"/>
		<line class="st62" x1="112.5" y1="243.9" x2="106.9" y2="243.6"/>
		<line class="st62" x1="148.9" y1="247.4" x2="156.9" y2="246.1"/>
		<line class="st59" x1="85.4" y1="299.6" x2="63.2" y2="305.5"/>
		<line class="st59" x1="74.3" y1="302.5" x2="59.2" y2="481.5"/>
		<line class="st59" x1="106.9" y1="297.8" x2="128.1" y2="302.5"/>
		<line class="st59" x1="119.6" y1="300.2" x2="139.2" y2="483.2"/>
		<polygon class="st30" points="101,204.9 94.4,211.3 101.9,229.4 109.5,222.4 		"/>
		<polygon class="st12" points="115.3,192.8 115.9,223.3 123.8,223.3 123.3,192.8 		"/>
		<g>
			<path class="st30" d="M101,204.9c0,0,6.2-5,14.9-4.7c8.7,0.3,14.4,1.1,15.8,1.7c1.3,0.6,2.6,3.3-2.4,4.3c0,0,3.3,4.2-3.6,5.1
				c0,0,5.8,3.1-5.3,4.3c0,0-8.5,4.6-10.8,6.9L101,204.9z"/>
			<path class="st50" d="M129.2,206.2c0,0-8-2-16.3-0.7"/>
			<path class="st50" d="M129.5,209.6c0,0-8.9-2.7-15.9-1.1"/>
			<path class="st50" d="M125.5,211.3c0,0-4.8-0.5-9,1.2"/>
		</g>
		<path class="st58" d="M100.4,175.1l5.6,1.6c0,0-2.2,2.5-4.1,1.9S100.4,175.1,100.4,175.1z"/>
		<rect x="113.6" y="188.3" class="st12" width="12" height="6.9"/>
		<rect x="111.3" y="176.3" class="st61" width="19.6" height="13.7"/>
		<path class="st61" d="M111.3,187.9L111.3,187.9l0-9.5h0c-1.5,0-2.6,1.2-2.6,2.6v4.2C108.7,186.7,109.9,187.9,111.3,187.9z"/>
		<line class="st63" x1="113.6" y1="190" x2="125.6" y2="190"/>
		<line class="st63" x1="115.3" y1="195.2" x2="123.3" y2="195.2"/>
		<path class="st61" d="M130.9,179.7v3.5v3.5c0,0,29.3,2.1,31.8,22.4v-25.9v-25.9C160.2,177.6,130.9,179.7,130.9,179.7z"/>
		<ellipse class="st12" cx="162.8" cy="183.4" rx="5.7" ry="26.2"/>
		<path class="st63" d="M157.1,177.8c2.5,0,4.6,2,4.6,4.6s-2,4.6-4.6,4.6"/>
		<line class="st18" x1="111.3" y1="180.8" x2="130.9" y2="180.8"/>
		<line class="st63" x1="111.3" y1="178.4" x2="111.3" y2="187.9"/>
		<line class="st63" x1="130.9" y1="179.7" x2="130.9" y2="186.7"/>
		<line class="st18" x1="152.9" y1="172.4" x2="152.9" y2="193.9"/>
		<line class="st62" x1="101.9" y1="229.4" x2="67.8" y2="260.2"/>
		<path class="st62" d="M83.5,214.5c-0.7,0.3-27.8,21.2-27.8,21.2"/>
		<line class="st62" x1="67.8" y1="219.7" x2="67.8" y2="226.4"/>
		<polygon class="st64" points="129.1,259.2 133.5,276.1 135.7,275.1 		"/>
		<polygon class="st64" points="93.9,211.5 104.1,227.4 101.9,229.4 		"/>
		<line class="st7" x1="87.9" y1="214.5" x2="97.6" y2="233.3"/>
		<polygon class="st64" points="85,189.1 78,189.1 88.7,204.9 93.9,194.7 		"/>
		<polygon class="st64" points="93.9,194.7 99.3,203.7 102.6,190.9 100.6,190.8 		"/>
	</g>
	<line class="st65" x1="1.4" y1="524.6" x2="751" y2="524.6"/>
</g>
<g id="Layer_3_copy" class="st0">
	<g class="st66">
		<path class="st2" d="M366.5,44.2h-6.8c-1.4,0-2.7-0.9-3.3-2.2c-0.2-0.4-0.4-0.9-0.5-1.3c-0.6-1.3-0.3-2.9,0.7-3.9l4.8-4.8
			c1.4-1.4,1.4-3.6,0-4.9l-12-12c-1.4-1.4-3.6-1.4-4.9,0l-4.8,4.8c-1,1-2.6,1.3-3.9,0.7c-0.4-0.2-0.9-0.4-1.3-0.5
			c-1.3-0.5-2.2-1.8-2.2-3.3V10c0-1.9-1.6-3.5-3.5-3.5h-17c-1.9,0-3.5,1.6-3.5,3.5v6.8c0,1.4-0.9,2.7-2.2,3.3
			c-0.4,0.2-0.9,0.4-1.3,0.5c-1.3,0.6-2.9,0.3-3.9-0.7l-4.8-4.8c-1.4-1.4-3.6-1.4-4.9,0l-12,12c-1.4,1.4-1.4,3.6,0,4.9l4.8,4.8
			c1,1,1.3,2.6,0.7,3.9c-0.2,0.4-0.4,0.9-0.5,1.3c-0.5,1.3-1.8,2.2-3.3,2.2h-6.8c-1.9,0-3.5,1.6-3.5,3.5v17c0,1.9,1.6,3.5,3.5,3.5
			h6.8c1.4,0,2.7,0.9,3.3,2.2c0.2,0.4,0.4,0.9,0.5,1.3c0.6,1.3,0.3,2.9-0.7,3.9l-4.8,4.8c-1.4,1.4-1.4,3.6,0,4.9l12,12
			c1.4,1.4,3.6,1.4,4.9,0l4.8-4.8c1-1,2.6-1.3,3.9-0.7c0.4,0.2,0.9,0.4,1.3,0.5c1.3,0.5,2.2,1.8,2.2,3.3v6.8c0,1.9,1.6,3.5,3.5,3.5
			h17c1.9,0,3.5-1.6,3.5-3.5v-6.8c0-1.4,0.9-2.7,2.2-3.3c0.4-0.2,0.9-0.4,1.3-0.5c1.3-0.6,2.9-0.3,3.9,0.7l4.8,4.8
			c1.4,1.4,3.6,1.4,4.9,0l12-12c1.4-1.4,1.4-3.6,0-4.9l-4.8-4.8c-1-1-1.3-2.6-0.7-3.9c0.2-0.4,0.4-0.9,0.5-1.3
			c0.5-1.3,1.8-2.2,3.3-2.2h6.8c1.9,0,3.5-1.6,3.5-3.5v-17C370,45.7,368.5,44.2,366.5,44.2z M320.4,83.2c-14.9,0-27-12.1-27-27
			c0-14.9,12.1-27,27-27c14.9,0,27,12.1,27,27C347.4,71.1,335.3,83.2,320.4,83.2z M343.7,56.1c0,12.8-10.4,23.2-23.2,23.2
			c-12.8,0-23.2-10.4-23.2-23.2c0-12.8,10.4-23.2,23.2-23.2C333.3,33,343.7,43.3,343.7,56.1z"/>
		<path class="st3" d="M402,49.8h-2.7c-0.6,0-1.1-0.3-1.3-0.9c-0.1-0.2-0.1-0.3-0.2-0.5c-0.2-0.5-0.1-1.1,0.3-1.5L400,45
			c0.5-0.5,0.5-1.4,0-1.9l-4.7-4.7c-0.5-0.5-1.4-0.5-1.9,0l-1.9,1.9c-0.4,0.4-1,0.5-1.5,0.3c-0.2-0.1-0.3-0.1-0.5-0.2
			c-0.5-0.2-0.9-0.7-0.9-1.3v-2.7c0-0.8-0.6-1.4-1.4-1.4h-6.7c-0.8,0-1.4,0.6-1.4,1.4V39c0,0.6-0.3,1.1-0.9,1.3
			c-0.2,0.1-0.3,0.1-0.5,0.2c-0.5,0.2-1.1,0.1-1.5-0.3l-1.9-1.9c-0.5-0.5-1.4-0.5-1.9,0l-4.7,4.7c-0.5,0.5-0.5,1.4,0,1.9l1.9,1.9
			c0.4,0.4,0.5,1,0.3,1.5c-0.1,0.2-0.1,0.3-0.2,0.5c-0.2,0.5-0.7,0.9-1.3,0.9h-2.7c-0.8,0-1.4,0.6-1.4,1.4v6.7
			c0,0.8,0.6,1.4,1.4,1.4h2.7c0.6,0,1.1,0.3,1.3,0.9c0.1,0.2,0.1,0.3,0.2,0.5c0.2,0.5,0.1,1.1-0.3,1.5l-1.9,1.9
			c-0.5,0.5-0.5,1.4,0,1.9l4.7,4.7c0.5,0.5,1.4,0.5,1.9,0l1.9-1.9c0.4-0.4,1-0.5,1.5-0.3c0.2,0.1,0.3,0.1,0.5,0.2
			c0.5,0.2,0.9,0.7,0.9,1.3v2.7c0,0.8,0.6,1.4,1.4,1.4h6.7c0.8,0,1.4-0.6,1.4-1.4V70c0-0.6,0.3-1.1,0.9-1.3c0.2-0.1,0.3-0.1,0.5-0.2
			c0.5-0.2,1.1-0.1,1.5,0.3l1.9,1.9c0.5,0.5,1.4,0.5,1.9,0L400,66c0.5-0.5,0.5-1.4,0-1.9l-1.9-1.9c-0.4-0.4-0.5-1-0.3-1.5
			c0.1-0.2,0.1-0.3,0.2-0.5c0.2-0.5,0.7-0.9,1.3-0.9h2.7c0.8,0,1.4-0.6,1.4-1.4v-6.7C403.4,50.4,402.8,49.8,402,49.8z M383.8,65.2
			c-5.9,0-10.6-4.8-10.6-10.6c0-5.9,4.8-10.6,10.6-10.6c5.9,0,10.6,4.8,10.6,10.6C394.5,60.4,389.7,65.2,383.8,65.2z M391.1,54.5
			c0,4-3.2,7.2-7.2,7.2c-4,0-7.2-3.2-7.2-7.2s3.2-7.2,7.2-7.2C387.8,47.3,391.1,50.5,391.1,54.5z"/>
		<path class="st4" d="M388.1,96.4h-3.3c-0.7,0-1.3-0.4-1.6-1.1c-0.1-0.2-0.2-0.4-0.3-0.6c-0.3-0.6-0.1-1.4,0.4-1.9l2.3-2.3
			c0.7-0.7,0.7-1.7,0-2.4l-5.8-5.8c-0.7-0.7-1.7-0.7-2.4,0l-2.3,2.3c-0.5,0.5-1.2,0.6-1.9,0.4c-0.2-0.1-0.4-0.2-0.6-0.3
			c-0.7-0.3-1.1-0.9-1.1-1.6v-3.3c0-0.9-0.8-1.7-1.7-1.7h-8.3c-0.9,0-1.7,0.8-1.7,1.7V83c0,0.7-0.4,1.3-1.1,1.6
			c-0.2,0.1-0.4,0.2-0.6,0.3c-0.6,0.3-1.4,0.1-1.9-0.4l-2.3-2.3c-0.7-0.7-1.7-0.7-2.4,0l-5.8,5.8c-0.7,0.7-0.7,1.7,0,2.4l2.3,2.3
			c0.5,0.5,0.6,1.2,0.4,1.9c-0.1,0.2-0.2,0.4-0.3,0.6c-0.3,0.7-0.9,1.1-1.6,1.1h-3.3c-0.9,0-1.7,0.8-1.7,1.7v8.3
			c0,0.9,0.8,1.7,1.7,1.7h3.3c0.7,0,1.3,0.4,1.6,1.1c0.1,0.2,0.2,0.4,0.3,0.6c0.3,0.6,0.1,1.4-0.4,1.9l-2.3,2.3
			c-0.7,0.7-0.7,1.7,0,2.4l5.8,5.8c0.7,0.7,1.7,0.7,2.4,0l2.3-2.3c0.5-0.5,1.2-0.6,1.9-0.4c0.2,0.1,0.4,0.2,0.6,0.3
			c0.7,0.3,1.1,0.9,1.1,1.6v3.3c0,0.9,0.8,1.7,1.7,1.7h8.3c0.9,0,1.7-0.8,1.7-1.7v-3.3c0-0.7,0.4-1.3,1.1-1.6
			c0.2-0.1,0.4-0.2,0.6-0.3c0.6-0.3,1.4-0.1,1.9,0.4l2.3,2.3c0.7,0.7,1.7,0.7,2.4,0l5.8-5.8c0.7-0.7,0.7-1.7,0-2.4l-2.3-2.3
			c-0.5-0.5-0.6-1.2-0.4-1.9c0.1-0.2,0.2-0.4,0.3-0.6c0.3-0.7,0.9-1.1,1.6-1.1h3.3c0.9,0,1.7-0.8,1.7-1.7v-8.3
			C389.8,97.2,389.1,96.4,388.1,96.4z M365.6,115.4c-7.3,0-13.2-5.9-13.2-13.2c0-7.3,5.9-13.2,13.2-13.2c7.3,0,13.2,5.9,13.2,13.2
			C378.8,109.5,372.9,115.4,365.6,115.4z M374.6,102.3c0,5-4,9-9,9s-9-4-9-9c0-5,4-9,9-9S374.6,97.3,374.6,102.3z"/>
		<path class="st5" d="M279.2,29.1h-3.3c-0.7,0-1.3-0.4-1.6-1.1c-0.1-0.2-0.2-0.4-0.3-0.6c-0.3-0.6-0.1-1.4,0.4-1.9l2.3-2.3
			c0.7-0.7,0.7-1.7,0-2.4l-5.8-5.8c-0.7-0.7-1.7-0.7-2.4,0l-2.3,2.3c-0.5,0.5-1.2,0.6-1.9,0.4c-0.2-0.1-0.4-0.2-0.6-0.3
			c-0.7-0.3-1.1-0.9-1.1-1.6v-3.3c0-0.9-0.8-1.7-1.7-1.7h-8.3c-0.9,0-1.7,0.8-1.7,1.7v3.3c0,0.7-0.4,1.3-1.1,1.6
			c-0.2,0.1-0.4,0.2-0.6,0.3c-0.6,0.3-1.4,0.1-1.9-0.4l-2.3-2.3c-0.7-0.7-1.7-0.7-2.4,0l-5.8,5.8c-0.7,0.7-0.7,1.7,0,2.4l2.3,2.3
			c0.5,0.5,0.6,1.2,0.4,1.9c-0.1,0.2-0.2,0.4-0.3,0.6c-0.3,0.7-0.9,1.1-1.6,1.1h-3.3c-0.9,0-1.7,0.8-1.7,1.7v8.3
			c0,0.9,0.8,1.7,1.7,1.7h3.3c0.7,0,1.3,0.4,1.6,1.1c0.1,0.2,0.2,0.4,0.3,0.6c0.3,0.6,0.1,1.4-0.4,1.9l-2.3,2.3
			c-0.7,0.7-0.7,1.7,0,2.4l5.8,5.8c0.7,0.7,1.7,0.7,2.4,0l2.3-2.3c0.5-0.5,1.2-0.6,1.9-0.4c0.2,0.1,0.4,0.2,0.6,0.3
			c0.7,0.3,1.1,0.9,1.1,1.6v3.3c0,0.9,0.8,1.7,1.7,1.7h8.3c0.9,0,1.7-0.8,1.7-1.7v-3.3c0-0.7,0.4-1.3,1.1-1.6
			c0.2-0.1,0.4-0.2,0.6-0.3c0.6-0.3,1.4-0.1,1.9,0.4l2.3,2.3c0.7,0.7,1.7,0.7,2.4,0l5.8-5.8c0.7-0.7,0.7-1.7,0-2.4l-2.3-2.3
			c-0.5-0.5-0.6-1.2-0.4-1.9c0.1-0.2,0.2-0.4,0.3-0.6c0.3-0.7,0.9-1.1,1.6-1.1h3.3c0.9,0,1.7-0.8,1.7-1.7v-8.3
			C280.9,29.9,280.1,29.1,279.2,29.1z M256.6,48.2c-7.3,0-13.2-5.9-13.2-13.2c0-7.3,5.9-13.2,13.2-13.2s13.2,5.9,13.2,13.2
			C269.8,42.3,263.9,48.2,256.6,48.2z M265.6,35c0,5-4,9-9,9c-5,0-9-4-9-9c0-5,4-9,9-9C261.6,26,265.6,30,265.6,35z"/>
		<g>
			<polygon class="st6" points="714.6,163.5 645.1,163.5 640.1,197.2 653.7,197.2 650.7,212.2 667.4,197.2 709.6,197.2 			"/>
			<polygon class="st7" points="649.5,167.3 645.7,191.7 705.2,191.7 709.9,167.3 			"/>
			<polygon class="st4" points="703.2,126.6 661.6,126.6 650.5,191.7 700.4,191.7 710,135.8 			"/>
			<polygon class="st8" points="703.2,126.6 701.5,135.8 710,135.8 			"/>
			<line class="st9" x1="665.2" y1="139.4" x2="702.8" y2="139.4"/>
			<line class="st9" x1="664.1" y1="143.9" x2="701.7" y2="143.9"/>
			<line class="st9" x1="663" y1="148.3" x2="700.6" y2="148.3"/>
			<line class="st9" x1="662" y1="152.8" x2="699.5" y2="152.8"/>
			<line class="st9" x1="660.9" y1="157.2" x2="698.5" y2="157.2"/>
			<polygon class="st9" points="659.8,162.9 655.5,187.8 695.2,187.8 698.5,162.9 			"/>
		</g>
		<g>
			<rect x="609.5" y="135.8" class="st9" width="37.9" height="21.7"/>
			<polyline class="st9" points="609.5,135.8 628.5,151.2 647.4,135.8 			"/>
			<line class="st9" x1="609.5" y1="157.5" x2="621.9" y2="145.8"/>
			<line class="st9" x1="647.4" y1="157.5" x2="635" y2="145.8"/>
		</g>
		<g>
			<rect x="685.1" y="204.4" class="st9" width="37.9" height="21.7"/>
			<polyline class="st9" points="685.1,204.4 704,219.7 723,204.4 			"/>
			<line class="st9" x1="685.1" y1="226" x2="697.5" y2="214.4"/>
			<line class="st9" x1="723" y1="226" x2="710.6" y2="214.4"/>
		</g>
	</g>
	<g class="st66">
		<polygon class="st10" points="265.3,377.4 278.1,368.5 274.7,384.1 		"/>
		<polygon class="st11" points="39.5,322.8 43.6,343.4 26.2,330.9 		"/>
		<ellipse transform="matrix(0.866 0.5 -0.5 0.866 140.7957 -181.7992)" class="st10" cx="409.6" cy="171.8" rx="9.4" ry="4"/>
		<ellipse transform="matrix(0.866 0.5 -0.5 0.866 315.3801 -292.7891)" class="st12" cx="704" cy="442.1" rx="9.4" ry="4"/>
		
			<ellipse transform="matrix(-0.3413 0.94 -0.94 -0.3413 757.2138 410.7352)" class="st13" cx="234.7" cy="470.7" rx="28.3" ry="51.1"/>
		<polygon class="st14" points="562,179.9 583,179.8 567.3,194.5 		"/>
		<path class="st13" d="M545.5,246.8c-56.4,26.2-121,28.5-179,6.2c-51.1-19.7-119.2-36.5-191.2-27.3
			c-148,18.8-120.3,295.1,164.5,269c343.4-31.5,408-187.8,330.1-265.3C646.4,206,591.6,225.4,545.5,246.8z"/>
		
			<ellipse transform="matrix(0.5472 0.837 -0.837 0.5472 449.7574 -385.3678)" class="st13" cx="581" cy="223" rx="37.8" ry="51.1"/>
	</g>
	<g class="st66">
		<rect x="66.8" y="81.6" class="st15" width="240.1" height="215.1"/>
		<g>
			<path class="st16" d="M218.6,242.5c22,0,39.8-17.8,39.8-39.8s-17.8-39.8-39.8-39.8s-39.8,17.8-39.8,39.8h39.8V242.5z"/>
			<circle class="st17" cx="218.6" cy="202.7" r="50.3"/>
			<circle class="st18" cx="218.6" cy="202.7" r="12.6"/>
			<path class="st19" d="M181,209.7c0,17,13.8,30.8,30.8,30.8c0-15.4,0-30.8,0-30.8H181z"/>
		</g>
		<path class="st19" d="M306.9,81.6H66.8v0c0-14.1,11.4-25.5,25.5-25.5h189.1C295.5,56.1,306.9,67.6,306.9,81.6L306.9,81.6z"/>
		<g>
			<rect x="78.8" y="92.3" class="st16" width="140.5" height="52.2"/>
			<polyline class="st18" points="84.3,102.4 91.7,109.3 105.8,109.6 118.5,126.5 140.4,108.1 161.7,128.3 189.5,110.4 204.6,111.2 
				214.1,104.4 			"/>
			<circle class="st20" cx="84.7" cy="102.3" r="2.1"/>
			<circle class="st20" cx="91.6" cy="109.4" r="2.1"/>
			<circle class="st20" cx="105.7" cy="109.4" r="2.1"/>
			<circle class="st20" cx="118.6" cy="126.2" r="2.1"/>
			<circle class="st20" cx="140.1" cy="108.4" r="2.1"/>
			<circle class="st20" cx="161.3" cy="128.3" r="2.1"/>
			<circle class="st20" cx="189.5" cy="110.6" r="2.1"/>
			<circle class="st20" cx="204.4" cy="111.5" r="2.1"/>
			<circle class="st20" cx="214.1" cy="104.4" r="2.1"/>
			<rect x="85" y="120.1" class="st19" width="7.8" height="24.4"/>
			<rect x="95.8" y="132.3" class="st20" width="7.8" height="12.2"/>
			<rect x="106.6" y="130.4" class="st19" width="7.8" height="14.1"/>
			<rect x="117.5" y="137.5" class="st20" width="7.8" height="7"/>
			<rect x="128.4" y="126.2" class="st19" width="7.8" height="18.3"/>
			<rect x="139.3" y="132.3" class="st20" width="7.8" height="12.2"/>
			<rect x="150.2" y="134.6" class="st19" width="7.8" height="9.9"/>
			<rect x="161.1" y="141" class="st20" width="7.8" height="3.5"/>
			<rect x="172" y="129.1" class="st19" width="7.8" height="15.4"/>
			<rect x="182.9" y="124.1" class="st20" width="7.8" height="20.4"/>
			<rect x="193.8" y="122.2" class="st19" width="7.8" height="22.3"/>
			<rect x="204.7" y="120.1" class="st20" width="7.8" height="24.4"/>
		</g>
		<circle class="st67" cx="82.5" cy="69.1" r="4.9"/>
		<circle class="st68" cx="96.2" cy="69.1" r="4.9"/>
		<circle class="st20" cx="109.9" cy="69.1" r="4.9"/>
		<rect x="226.8" y="92.3" class="st16" width="29.9" height="6.5"/>
		<rect x="259" y="92.3" class="st19" width="26.2" height="6.5"/>
		<rect x="226.8" y="102.3" class="st16" width="35.5" height="6.5"/>
		<rect x="264.5" y="102.3" class="st19" width="20.7" height="6.5"/>
		<rect x="226.8" y="112.2" class="st16" width="12.4" height="6.5"/>
		<rect x="241.3" y="112.2" class="st19" width="43.9" height="6.5"/>
		<rect x="226.1" y="125.1" class="st17" width="69.9" height="19.4"/>
		<circle class="st22" cx="292.8" cy="95.6" r="3.3"/>
		<circle class="st22" cx="292.8" cy="105.5" r="3.3"/>
		<circle class="st22" cx="292.8" cy="115.4" r="3.3"/>
		<line class="st17" x1="139.3" y1="282.6" x2="306.7" y2="282.6"/>
		<path class="st16" d="M223.4,285.1H219c-0.9,0-1.7-0.6-2.1-1.4c-0.1-0.3-0.2-0.6-0.3-0.8c-0.4-0.8-0.2-1.8,0.5-2.5l3.1-3.1
			c0.9-0.9,0.9-2.3,0-3.2l-7.7-7.7c-0.9-0.9-2.3-0.9-3.2,0l-3.1,3.1c-0.7,0.7-1.6,0.8-2.5,0.5c-0.3-0.1-0.6-0.2-0.8-0.3
			c-0.9-0.3-1.4-1.2-1.4-2.1v-4.3c0-1.2-1-2.2-2.2-2.2h-10.9c-1.2,0-2.2,1-2.2,2.2v4.3c0,0.9-0.6,1.7-1.4,2.1
			c-0.3,0.1-0.6,0.2-0.8,0.3c-0.8,0.4-1.8,0.2-2.5-0.5l-3.1-3.1c-0.9-0.9-2.3-0.9-3.2,0l-7.7,7.7c-0.9,0.9-0.9,2.3,0,3.2l3.1,3.1
			c0.7,0.7,0.8,1.6,0.5,2.5c-0.1,0.3-0.2,0.6-0.3,0.8c-0.3,0.9-1.2,1.4-2.1,1.4h-4.3c-1.2,0-2.2,1-2.2,2.2v10.9c0,1.2,1,2.2,2.2,2.2
			h4.3c0.9,0,1.7,0.6,2.1,1.4c0.1,0.3,0.2,0.6,0.3,0.8c0.4,0.8,0.2,1.8-0.5,2.5l-3.1,3.1c-0.9,0.9-0.9,2.3,0,3.2l7.7,7.7
			c0.9,0.9,2.3,0.9,3.2,0l3.1-3.1c0.7-0.7,1.6-0.8,2.5-0.5c0.3,0.1,0.6,0.2,0.8,0.3c0.9,0.3,1.4,1.2,1.4,2.1v4.3
			c0,1.2,1,2.2,2.2,2.2h10.9c1.2,0,2.2-1,2.2-2.2v-4.3c0-0.9,0.6-1.7,1.4-2.1c0.3-0.1,0.6-0.2,0.8-0.3c0.8-0.4,1.8-0.2,2.5,0.5
			l3.1,3.1c0.9,0.9,2.3,0.9,3.2,0l7.7-7.7c0.9-0.9,0.9-2.3,0-3.2l-3.1-3.1c-0.7-0.7-0.8-1.6-0.5-2.5c0.1-0.3,0.2-0.6,0.3-0.8
			c0.3-0.9,1.2-1.4,2.1-1.4h4.3c1.2,0,2.2-1,2.2-2.2v-10.9C225.6,286.1,224.6,285.1,223.4,285.1z M193.8,310.1
			c-9.6,0-17.3-7.8-17.3-17.3c0-9.6,7.8-17.3,17.3-17.3c9.6,0,17.3,7.8,17.3,17.3C211.1,302.4,203.4,310.1,193.8,310.1z
			 M205.6,292.8c0,6.5-5.3,11.8-11.8,11.8c-6.5,0-11.8-5.3-11.8-11.8c0-6.5,5.3-11.8,11.8-11.8C200.3,281,205.6,286.3,205.6,292.8z"
			/>
		<path class="st23" d="M260.1,301.5h-3.3c-0.7,0-1.3-0.4-1.6-1.1c-0.1-0.2-0.2-0.4-0.3-0.6c-0.3-0.6-0.1-1.4,0.4-1.9l2.3-2.3
			c0.7-0.7,0.7-1.7,0-2.4l-5.8-5.8c-0.7-0.7-1.7-0.7-2.4,0l-2.3,2.3c-0.5,0.5-1.2,0.6-1.9,0.4c-0.2-0.1-0.4-0.2-0.6-0.3
			c-0.7-0.3-1.1-0.9-1.1-1.6v-3.3c0-0.9-0.8-1.7-1.7-1.7h-8.3c-0.9,0-1.7,0.8-1.7,1.7v3.3c0,0.7-0.4,1.3-1.1,1.6
			c-0.2,0.1-0.4,0.2-0.6,0.3c-0.6,0.3-1.4,0.1-1.9-0.4l-2.3-2.3c-0.7-0.7-1.7-0.7-2.4,0l-5.8,5.8c-0.7,0.7-0.7,1.7,0,2.4l2.3,2.3
			c0.5,0.5,0.6,1.2,0.4,1.9c-0.1,0.2-0.2,0.4-0.3,0.6c-0.3,0.7-0.9,1.1-1.6,1.1H215c-0.9,0-1.7,0.8-1.7,1.7v8.3
			c0,0.9,0.8,1.7,1.7,1.7h3.3c0.7,0,1.3,0.4,1.6,1.1c0.1,0.2,0.2,0.4,0.3,0.6c0.3,0.6,0.1,1.4-0.4,1.9l-2.3,2.3
			c-0.7,0.7-0.7,1.7,0,2.4l5.8,5.8c0.7,0.7,1.7,0.7,2.4,0l2.3-2.3c0.5-0.5,1.2-0.6,1.9-0.4c0.2,0.1,0.4,0.2,0.6,0.3
			c0.7,0.3,1.1,0.9,1.1,1.6v3.3c0,0.9,0.8,1.7,1.7,1.7h8.3c0.9,0,1.7-0.8,1.7-1.7v-3.3c0-0.7,0.4-1.3,1.1-1.6
			c0.2-0.1,0.4-0.2,0.6-0.3c0.6-0.3,1.4-0.1,1.9,0.4l2.3,2.3c0.7,0.7,1.7,0.7,2.4,0l5.8-5.8c0.7-0.7,0.7-1.7,0-2.4l-2.3-2.3
			c-0.5-0.5-0.6-1.2-0.4-1.9c0.1-0.2,0.2-0.4,0.3-0.6c0.3-0.7,0.9-1.1,1.6-1.1h3.3c0.9,0,1.7-0.8,1.7-1.7v-8.3
			C261.8,302.2,261,301.5,260.1,301.5z M237.6,320.5c-7.3,0-13.2-5.9-13.2-13.2c0-7.3,5.9-13.2,13.2-13.2c7.3,0,13.2,5.9,13.2,13.2
			C250.7,314.6,244.8,320.5,237.6,320.5z M246.5,307.3c0,5-4,9-9,9c-5,0-9-4-9-9s4-9,9-9C242.5,298.3,246.5,302.4,246.5,307.3z"/>
		<g>
			<line class="st17" x1="229.5" y1="130.5" x2="292.7" y2="130.5"/>
			<line class="st17" x1="229.5" y1="134.8" x2="292.7" y2="134.8"/>
			<line class="st17" x1="229.5" y1="139.1" x2="292.7" y2="139.1"/>
		</g>
		<line class="st18" x1="123.3" y1="69.1" x2="289.5" y2="69.1"/>
	</g>
	<g class="st66">
		<path class="st10" d="M412.3,406.6h66.2l28.9-92.4c0,0-44-14.7-67.9,9.2C431.7,352.9,425.6,368.2,412.3,406.6z"/>
		<path class="st10" d="M412.3,407h66.2l28.9-92.4C507.4,314.6,453.2,337.1,412.3,407z"/>
		<path class="st10" d="M368.3,407h66.2l5.1-83.5C439.5,323.5,410.8,349.2,368.3,407z"/>
		<rect x="431.6" y="407" class="st24" width="39.8" height="3.1"/>
		<line class="st25" x1="451.5" y1="410.1" x2="451.5" y2="507"/>
		<path class="st24" d="M454.9,499.3h-3.4H448c0,0-10.8,23.1-31.3,23.1l34.7-0.5l34.7,0.5C465.7,522.4,454.9,499.3,454.9,499.3z"/>
		<polyline class="st7" points="415.8,401.2 473.9,401.2 500.6,318 		"/>
		<path class="st25" d="M412.3,407c0,0,37.5-75.4,95.1-92.4"/>
		<line class="st25" x1="478.5" y1="407" x2="368.3" y2="407"/>
	</g>
	<g class="st66">
		<path class="st16" d="M207.4,406.3h-66.2L112.3,314c0,0,44-14.7,67.9,9.2C188,352.6,194.1,367.9,207.4,406.3z"/>
		<path class="st16" d="M207.4,406.7h-66.2l-28.9-92.4C112.3,314.3,166.5,336.8,207.4,406.7z"/>
		<path class="st16" d="M251.4,406.7h-66.2l-5.1-83.5C180.2,323.2,208.9,349,251.4,406.7z"/>
		<rect x="148.3" y="406.7" class="st24" width="39.8" height="3.1"/>
		<line class="st25" x1="168.2" y1="409.8" x2="168.2" y2="506.8"/>
		<path class="st24" d="M164.8,499h3.4h3.4c0,0,10.8,23.1,31.3,23.1l-34.7-0.5l-34.7,0.5C154,522.1,164.8,499,164.8,499z"/>
		<polyline class="st7" points="203.9,400.9 145.8,400.9 119.1,317.7 		"/>
		<path class="st25" d="M207.4,406.7c0,0-37.5-75.4-95.1-92.4"/>
		<line class="st25" x1="141.2" y1="406.7" x2="251.4" y2="406.7"/>
	</g>
	<g class="st66">
		<path class="st26" d="M531.4,496.7l24.4,1.1c0,0,2.7,10.1,8.9,12.2c12.9,4.4,12.4,7.2,12.4,12.2l-43.4,0.1
			C533.7,522.2,532.8,510.6,531.4,496.7z"/>
		<path class="st27" d="M555.8,497.7l-4.4-17.6c0,0-3-0.6-10.9-0.6c-6,0-10.8,9.1-10.8,9.1l1.6,8L555.8,497.7z"/>
		<path class="st26" d="M492,498.5l-27.5-1.9c0,0-4.8,11.1-20.4,15.6c-15.7,4.5-20.1,4.8-21.3,10.1h66.8
			C489.6,522.2,491.3,510.8,492,498.5z"/>
		<path class="st27" d="M492,498.5l2.1-15.9c0,0-2.9-0.9-14-0.9c-5.5,0-15.1,7-15.1,7l-0.5,7.9L492,498.5z"/>
		<line class="st28" x1="533.3" y1="517.4" x2="576.2" y2="517.4"/>
		<line class="st28" x1="490.3" y1="517.4" x2="426.1" y2="517.4"/>
		<line class="st28" x1="555.5" y1="508.1" x2="562.9" y2="503.8"/>
		<line class="st28" x1="557.9" y1="511.5" x2="565.2" y2="507.2"/>
		<line class="st28" x1="461.7" y1="506.4" x2="454.4" y2="502.1"/>
		<line class="st28" x1="459.3" y1="509.8" x2="452" y2="505.5"/>
		<path class="st11" d="M517,189.8c0,0,0.7-0.4,13.8,6.1c11.5,5.7,11.2,17.7,11.5,24.7l-0.3,76.9h-62l2.5-56.1
			c0,0-6.5-50.3,14.8-50.6L517,189.8z"/>
		<path class="st14" d="M542,297.4h-61.8c0,0-5.5,74.9-5.5,82.9S465,488.6,465,488.6h33.6c0,0,5-29.4,5-66.5s1-52.2,3.7-65.2
			c2.7-13,4.3-26.1,4.3-26.1s6.4,66.3,7.7,76c1.3,9.7,8.1,81.8,8.1,81.8h30.2c0,0,8.9-35.1,1.2-60.5s-10.4-50.8-10-55.2
			C549.1,368.6,542,297.4,542,297.4z"/>
		<path class="st11" d="M517,189.8l19.7,0c0,0,10.7,0.8,19.2,19.9l18.4,37.4c6.3,12.8-2.7,27.8-16.9,28.3l-35.7-0.2l-14,0.7l-1-30.7
			l12.3,1.7L517,189.8z"/>
		<path class="st11" d="M497.2,190.8l-13.4-0.1c0,0-10.7,0.8-19.2,19.9l-18.4,39.9c-6.3,12.8,2.2,24.7,16.5,25.2h46.7l-2.4-29.5
			l-9.5,0L497.2,190.8z"/>
		<path class="st29" d="M513.4,176.3l8.8-15.1c0,0,0-6.8-5.2-7.1c0,0,2-3.5-0.7-4.5c-2.7-1-14.3,3.1-28,3.8
			C488.2,153.4,488.2,170.6,513.4,176.3z"/>
		<path class="st30" d="M495,162.1l-1.6,16.1c0,0,1.5,6.1,8.3,6.4l-2.1,9.7c0,0-3.1,10.1,6.9,8.8c0,0,7.4-2.7,8.2-12.3l-0.8-15.3
			c0,0,7.3,0.6,6-5.7c0,0-3-5.6-6.9,2.5c0,0-2-7.3,0-11.8C512.9,160.6,497.2,166.2,495,162.1z"/>
		<path class="st20" d="M511.2,170.3c0,0-4.3-3.2-7.4,0.4C503.8,170.7,507.1,175.3,511.2,170.3z"/>
		<path class="st31" d="M501.7,184.7c0,0,4.5,0.2,6-2.2c0,0-0.6,4.3-6.5,4.7L501.7,184.7z"/>
		<path class="st29" d="M503.7,167.2c0,0,4-1.3,6.6,0.8c0,0-1.6-1.7-4.8-2.2C505.5,165.8,504.3,166.1,503.7,167.2z"/>
		<polyline class="st32" points="501.7,170.6 500.2,175.5 502,175.8 		"/>
		<path class="st29" d="M506,177.2c0,0-1.8,4.2-6.2,0.9L506,177.2z"/>
		
			<ellipse transform="matrix(-0.998 -6.387641e-002 6.387641e-002 -0.998 1000.8672 373.5677)" class="st29" cx="506.4" cy="170.8" rx="1.5" ry="1.8"/>
		<path class="st29" d="M494.6,165.6c0.7-0.2,1.5-0.3,2.5-0.3c0,0,1.1,0.4,1.6,1.6c0,0-2-0.9-4.2-0.8L494.6,165.6z"/>
		<line class="st33" x1="515" y1="173.4" x2="517.8" y2="171.5"/>
		<path class="st30" d="M486.3,230.8c-4.9-1.3-18.1,3.9-22.7,4.6c-4.5,0.7-0.2,3.6,0.8,3.5c0,0-3.1,2-0.3,2.7c0,0-0.6,2.7,2.6,2.1
			c0,0-0.8,2,3.5,1.6c0,0,6.2-1.4,11,0.8c4.8,2.2,7.2,3.2,7.2,3.2l22.8-2.5C511.1,246.8,491.2,232.1,486.3,230.8z"/>
		<path class="st30" d="M533.5,235.3c5-0.9,17.8,5.3,22.2,6.3c4.5,1-0.1,3.6-1,3.5c0,0,2.9,2.2,0.1,2.8c0,0,0.4,2.7-2.7,1.9
			c0,0,0.7,2.1-3.6,1.3c0,0-6.1-1.9-11.1,0c-5,1.8-24.5,11.7-24.5,11.7l-6.4-17.4C506.5,245.2,528.5,236.2,533.5,235.3z"/>
		<polygon class="st30" points="512.9,262.6 499.9,269.3 499.5,247.5 506.5,245.2 		"/>
		<polygon class="st11" points="503.6,245.5 470.7,249.3 471.6,275.2 504.1,274.1 		"/>
		<polyline class="st34" points="545.1,275.7 510.9,275.7 480.7,275.7 		"/>
		<polygon class="st35" points="503.5,245.8 503.8,267.3 508,265.1 		"/>
		<polygon class="st35" points="514.5,189.9 521.9,189.9 514.2,213.6 506.5,203.2 		"/>
		<polygon class="st35" points="506.5,203.2 500.7,190.7 494.4,190.7 499.5,214.1 		"/>
		<path class="st36" d="M554.7,245c-0.4-0.7-14.2-5.1-14.2-5.1"/>
		<line class="st36" x1="554.8" y1="247.8" x2="543.1" y2="243.6"/>
		<line class="st36" x1="552.1" y1="249.6" x2="543.1" y2="246.1"/>
		<line class="st36" x1="464.4" y1="238.9" x2="475.7" y2="235.9"/>
		<line class="st36" x1="464.1" y1="241.6" x2="474.5" y2="239.4"/>
		<line class="st36" x1="466.6" y1="243.7" x2="474.5" y2="242.4"/>
		<line class="st37" x1="533.5" y1="309.8" x2="548" y2="488.6"/>
		<line class="st37" x1="484.9" y1="308.5" x2="472.4" y2="488.6"/>
		<line class="st37" x1="511.8" y1="332.4" x2="509.2" y2="310.7"/>
		<line class="st37" x1="516.3" y1="309.8" x2="504" y2="309.8"/>
		<polygon class="st16" points="553.6,488.6 554.3,491.4 529.8,488.6 		"/>
		<polygon class="st16" points="493.3,488.6 492.8,492.7 465,488.6 		"/>
		<path class="st20" d="M494.3,169.2l-0.2,1.7c3.6,3.3,6.4-0.4,6.4-0.4C498.5,168,495.8,168.6,494.3,169.2z"/>
		
			<ellipse transform="matrix(0.9994 -3.549096e-002 3.549096e-002 0.9994 -5.7371 17.7257)" class="st29" cx="496.4" cy="170.5" rx="1.5" ry="1.8"/>
		<line class="st37" x1="528.8" y1="307.2" x2="541.6" y2="314.2"/>
		<path class="st37" d="M488.7,304.9c-0.8,0-10,10.5-10,10.5"/>
		<line class="st34" x1="480.7" y1="230.9" x2="482.8" y2="208.8"/>
		<line class="st34" x1="535.2" y1="210.1" x2="539.2" y2="235.9"/>
		<line class="st34" x1="554.5" y1="249.3" x2="559" y2="250.6"/>
		<line class="st34" x1="464.1" y1="243" x2="461.6" y2="244.4"/>
		<line class="st7" x1="497.4" y1="246.3" x2="498.3" y2="274.8"/>
		<polygon class="st19" points="501.6,210.9 504.4,215.2 509.4,215.2 512.3,210.9 506.5,203.2 		"/>
		<polygon class="st19" points="504.5,215.2 499.6,238.6 508,245.8 514.3,242.1 509.4,215.2 		"/>
		<line class="st38" x1="504.5" y1="215.2" x2="509.4" y2="215.2"/>
		<line class="st34" x1="509.4" y1="275.7" x2="509.4" y2="297.3"/>
		<path class="st39" d="M512.9,160.6c0,0,2.5-2.9,3.1-5"/>
		<path class="st39" d="M517.6,151.5c0,0-7.4,12.3-22.7,10.6"/>
		<path class="st39" d="M513.4,149.6c0,0-8.2,14.2-24.5,7.9"/>
		<path class="st39" d="M507,150.7c0,0-9.2,8.7-18.7,3.6"/>
		<path class="st39" d="M514.1,159.1c0,0,3.3,3.2,1.6,9.6"/>
		<path class="st39" d="M516,156.3c-0.2-0.3,4.4,2,4.6,7.6"/>
		<g>
			<polygon class="st3" points="424.3,113.2 493.8,113.2 498.9,146.9 485.3,146.9 488.3,161.9 471.6,146.9 429.4,146.9 			"/>
			<polygon class="st7" points="489.4,117.1 493.3,141.4 433.8,141.4 429,117.1 			"/>
			<line class="st7" x1="485.4" y1="122.1" x2="435.9" y2="122.1"/>
			<line class="st7" x1="486.3" y1="125.5" x2="436.9" y2="125.5"/>
			<line class="st7" x1="487.3" y1="128.8" x2="437.8" y2="128.8"/>
			<line class="st7" x1="488.2" y1="132.2" x2="438.8" y2="132.2"/>
			<polygon class="st18" points="419.4,144.7 461.9,144.7 467,164.7 458,164.7 460.7,176.3 446.3,164.7 424.4,164.7 			"/>
		</g>
	</g>
	<g class="st66">
		<path class="st40" d="M578.1,314.7l19.1-4l17,16.8l8.8-54.9c0,0,7.1-13.1,15.9-12.8l6.6,82.9L630.6,362c-6.3,8.1-18.7,7.4-24-1.3
			L578.1,314.7z"/>
		<path class="st29" d="M664.7,224.4c0,0-2,12,8.4,11.1c10.4-0.9,14.8,8.1,15,14.2l-55.8,9c0,0-2.5-6.8,3.2-9.6
			c5.7-2.8,10.3-15.1,10.6-19.6L664.7,224.4z"/>
		<path class="st6" d="M628.5,352.6l-51.1,21.2c0,0-21.5,12.9,0,33.2l65.6,78.9l35.1,0l-60.3-87.8l32.9-37.2L628.5,352.6z"/>
		<path class="st6" d="M683.1,354.6c0,0,9.4,28-41.8,41l-25.6,90.2h-36.3l22.5-87.6c1.4-13.3,7.4-15.9,19.4-25.9l17.5-19.3
			L683.1,354.6z"/>
		<path class="st29" d="M638.8,232.6c0,0-7.9-7-3.3-12.7c4.5-5.7,16.9-0.6,16.9-0.6s10.8-1.9,12.4,5.6c1.6,7.5-8,25.4-8,25.4
			L638.8,232.6z"/>
		<path class="st40" d="M659.6,256.9c0,0,8.4-1.3,16.6,3.1c10.3,5.5,9.9,13.5,9.7,20.4l-8.7,40l5.9,34.1h-56.8l7-43.7
			c0,0-15.2-43,8-52.1L659.6,256.9z"/>
		<path class="st30" d="M657.6,239.5c0,0,4.5-6.6,0.1-8.8c-2.7-1.4-4.6,3.6-4.6,3.6s-6.8-1.3-5.7-6.3c0,0-5.1,0.6-8.2-1.1
			c0,0-0.5,7.5-0.9,12.3c-1,0.8-2.1,1.7-2.6,2.1c-0.8,0.6,1.1,1,2.5,1.2c0,6.6,1.7,11.7,11,7.5l-4.2,8.5l0,0
			c-1.7,6,11.8,4.8,15.5-1.7L657.6,239.5z"/>
		<path class="st20" d="M646.1,235.8c0,0-4.4-1.5-6,2.4C640.1,238.3,644.1,241.1,646.1,235.8z"/>
		<path class="st41" d="M641.5,236.4c0.4,0.1,0.7,0.2,1,0.5c0.5,0.6,0.5,1.6-0.2,2.1c-1.3-0.1-2.3-0.8-2.3-0.8
			C640.4,237.4,641,236.8,641.5,236.4z"/>
		<path class="st32" d="M640.2,242.5c0,0,2.7,1.5,5.2-0.7"/>
		<path class="st42" d="M649.2,249.9l4.2-2.4c0,0-1.2,3.9-5.7,5.6L649.2,249.9z"/>
		<path class="st42" d="M655.5,237.4c0,0,1-3.5,2.5-4.8C658.1,232.6,654.9,231.8,655.5,237.4z"/>
		<path class="st41" d="M641.6,234.4c0,0,3.4-1.3,5.7,1.1C647.3,235.6,646.3,231.9,641.6,234.4z"/>
		<path class="st40" d="M665,256.8l9.1,1.4c4.6,0.7,8.7,3.6,10.9,7.7l22.5,50.3c4.9,9.1,0.7,20.4-8.9,24.2l-70.8,18.7l-3.6-22.5
			l52.8-22.2L665,256.8z"/>
		<path class="st30" d="M624.8,341.1l-18.9,2.2l-28.6,11.3c0,0,3.7,1.5,6.6,0c0,0,2.4,2,4.2,0.7l16.6-2.7l8.4,1.2
			c3.6,0.5,7.3,0,10.5-1.5l2.8-1.3L624.8,341.1z"/>
		<polygon class="st43" points="660.4,255.9 649.5,262.2 656.1,267.4 666.8,257 		"/>
		<polygon class="st43" points="644.5,256.9 649.5,262.2 643.2,266.4 638.8,258.8 		"/>
		<polygon class="st30" points="583.1,485.8 580.3,498.4 603.5,498.4 607.6,485.8 		"/>
		<path class="st30" d="M580.3,498.4l-2.8,12.4c0,0-2.8,6.8-12.4,7.5l23.5-1.1l9.1-5.8l5.9-13H580.3z"/>
		<path class="st44" d="M603.5,498.4L603.5,498.4c-7.3,0-14,3.8-17.8,10l-1.7,2.9c0,0-3.3,5.9-18.3,5.2c0,0-8.2,1.5-9.2,5.7h32.1
			l4.3-4.9l-0.8,4.9h5.2L603.5,498.4z"/>
		<path class="st30" d="M673.9,485.8h-24.6l4.9,5.4c3.9,4.3,4.7,10.7,1.9,15.8l-2.1,3.9c0,0-2.8,6.8-12.4,7.5l23.5-1.1l9.1-5.8
			l5.9-13L673.9,485.8z"/>
		<path class="st44" d="M679.9,498.4L679.9,498.4c-7.3,0-14,3.8-17.8,10l-1.7,2.9c0,0-3.3,5.9-18.3,5.2c0,0-8.2,1.5-9.2,5.7h32.1
			l4.3-4.9l-0.8,4.9h5.2L679.9,498.4z"/>
		<polyline class="st45" points="631.5,327.3 633.3,310.8 638.8,310.6 		"/>
		<path class="st45" d="M633.3,310.8c0,0-4.8-14.5-4.9-26"/>
		<polyline class="st45" points="629.6,334.2 679.8,313 662.8,277.1 		"/>
		<line class="st7" x1="635.2" y1="331.9" x2="637.8" y2="355.7"/>
		<line class="st36" x1="583.9" y1="354.6" x2="600.8" y2="348.4"/>
		<line class="st36" x1="588.1" y1="355.3" x2="602.8" y2="350.6"/>
		<polygon class="st43" points="624.8,341.1 625.3,351.5 626.4,351 		"/>
		<polygon class="st43" points="644.2,354.4 681.5,344.9 683.1,354.6 		"/>
		<line class="st45" x1="679.8" y1="313" x2="685.9" y2="314.6"/>
		<g>
			<rect x="585.8" y="294.6" class="st14" width="54.4" height="2.7"/>
			<polygon class="st14" points="542.3,297.5 523.4,250.3 586.1,251.2 605.9,297.5 			"/>
			<polygon class="st10" points="524.1,252.2 584,253.3 603.3,297.3 542.3,297.5 			"/>
			<circle class="st20" cx="560.2" cy="273.9" r="5.6"/>
		</g>
		<line class="st7" x1="654.7" y1="360.7" x2="672.5" y2="368.5"/>
		<path class="st7" d="M663.6,364.6l-40.7,24.7c0,0-6.5,3.2-10.3,22.3l-17.1,74.1"/>
		<path class="st7" d="M629.6,364.6l-36.4,15.8c0,0-8.1,8.7-2.6,17.2l8.6,10.9"/>
		<line class="st7" x1="628.8" y1="439.7" x2="663.6" y2="485.7"/>
		<path class="st46" d="M594.4,427.4l8-32.7c0,0,3.7-12.6,11.5-16.4l20-19.9"/>
		<polygon class="st29" points="607.6,485.8 606.5,489.3 583.1,485.8 		"/>
		<polygon class="st29" points="649.3,485.8 673.9,485.8 675.9,490.1 		"/>
		<polygon class="st29" points="641.3,395.6 634.5,395.6 634,421.5 		"/>
		<line class="st46" x1="634" y1="421.5" x2="622.2" y2="462.7"/>
		<path class="st30" d="M587.3,301.6c-3.3-3.2-9-6-12.6-5.6l-1.8,0.2c0,0-12.7-5.1-14.6-3.7c-1,0.8,2.6,2.6,6,4.1l-14.5-2.8
			c-3.2-0.8-4.2,0.6-4.2,0.6c-2.8-1.6-6.6-0.2-6.6-0.2l33.1,10.8l8.6,9.1l15.5-3.2L587.3,301.6z"/>
		<polyline class="st36" points="563.8,296.4 569.7,297.3 572.5,297 		"/>
		<line class="st36" x1="545.6" y1="294.5" x2="562" y2="299.3"/>
		<line class="st45" x1="614.2" y1="327.6" x2="620" y2="332.6"/>
		<line class="st7" x1="581" y1="319.5" x2="600.8" y2="314.4"/>
		<polygon class="st43" points="596.2,311 579.1,312.5 580.7,314.2 		"/>
	</g>
	<g class="st66">
		<path class="st44" d="M289.9,498.1l24.4-1.1c0,0-3.2,8.1,7.6,13.3c12.3,5.9,12.4,7.2,12.4,12.2H285
			C285,522.5,287.7,509.8,289.9,498.1z"/>
		<path class="st27" d="M289.9,498.1l2.9-17.4c0,0,4.4-0.8,12.3-0.8c6,0,12.4,1,12.4,1l-3.3,16.1L289.9,498.1z"/>
		<path class="st44" d="M356.9,498.9l27.5-1.9c0,0,4.8,11.1,20.4,15.6c15.7,4.5,20.1,4.8,21.3,10.1h-66.8
			C359.3,522.6,357.7,511.2,356.9,498.9z"/>
		<path class="st27" d="M356.9,498.9l-2.8-15.8c0,0,3.6-1,14.8-1c5.5,0,14.7,1,14.7,1l0.8,13.9L356.9,498.9z"/>
		<polygon class="st6" points="307.9,289.5 287.7,482.1 320.7,482.1 340.8,362 351.2,484.9 387.3,484.9 366.6,289.5 		"/>
		<polygon class="st29" points="340.4,364.6 349.2,312 343.6,385.8 		"/>
		<line class="st46" x1="307.4" y1="314.2" x2="330.1" y2="300.4"/>
		<line class="st46" x1="317.3" y1="308.2" x2="300.1" y2="482.1"/>
		<line class="st46" x1="361.9" y1="305" x2="380.3" y2="484.3"/>
		<polygon class="st29" points="292.6,482.1 292.1,484.9 317.5,482.1 		"/>
		<line class="st47" x1="286" y1="517.7" x2="333.4" y2="517.7"/>
		<line class="st47" x1="358.7" y1="517.7" x2="422.9" y2="517.7"/>
		<polygon class="st29" points="354.4,484.9 354.9,487.6 383.7,484.9 		"/>
		<line class="st47" x1="312.7" y1="508.5" x2="320.1" y2="504.2"/>
		<line class="st47" x1="315.1" y1="511.9" x2="322.4" y2="507.6"/>
		<line class="st47" x1="387.3" y1="506.8" x2="394.6" y2="502.5"/>
		<line class="st47" x1="389.7" y1="510.2" x2="397" y2="505.9"/>
		<line class="st46" x1="357.3" y1="300.4" x2="369" y2="312"/>
		<path class="st19" d="M334.1,190.2c0,0-2.8-0.4-15.9,6c-11.5,5.7-11.2,17.7-11.5,24.7l0.3,76.9h62l-2.5-56.1l20.5-16.9
			c0,0-13.9-33.5-35.2-33.7L334.1,190.2z"/>
		<polygon class="st20" points="338.3,198.7 350.9,242.5 351.8,198.1 		"/>
		<path class="st29" d="M339.2,177.6l-7.8-15.6c0,0,0.5-6.8,5.7-6.8c0,0-1.7-3.6,1-4.4s22.4-4.4,24.2,9
			C362.2,159.8,360.8,173.8,339.2,177.6z"/>
		<path class="st30" d="M358.4,164.7l0.6,16.2c0,0,0.1,6.5-7.2,6v9.7c0,0,1.3,8.7-8.6,6.7c0,0-6-1.6-6.2-11.2l1.8-15.2
			c0,0-7.3,0.2-5.6-6c0,0,3.4-5.4,6.8,2.9c0,0,2.4-7.2,0.8-11.8c0,0,4.3,3.8,6,3.1c3-1.2,1.4-3.1,1.4-3.1S355.9,168.6,358.4,164.7z"
			/>
		<path class="st20" d="M344.6,171.8c0,0,4.5-3,7.4,0.9C352,172.7,348.4,177,344.6,171.8z"/>
		<path class="st41" d="M349.8,171c-0.4,0.2-0.7,0.5-0.9,0.9c-0.4,0.9,0,1.9,0.8,2.3c1.4-0.4,2.3-1.5,2.3-1.5
			C351.3,171.8,350.6,171.3,349.8,171z"/>
		<path class="st20" d="M358.6,170.7c-1.4-0.2-3.1,0.1-4.5,1.9c0,0,2,2.4,4.6,1.5L358.6,170.7z"/>
		<path class="st41" d="M357.6,170.7c0,0-1.9,1.2-0.4,3.7c0,0,1.1,0.2,1.5-0.2l-0.1-3.4C358.6,170.7,357.9,170.5,357.6,170.7z"/>
		<polygon class="st20" points="337.4,188.5 330.6,190.4 339.1,207.7 346.5,203.6 		"/>
		<polygon class="st20" points="346.5,203.6 351.8,189.3 357,192.5 353.8,208.5 		"/>
		<polyline class="st7" points="329.5,190.5 325.1,196.2 331.8,201.1 327.3,206.5 350.2,240.3 		"/>
		<polyline class="st7" points="357,192.5 361.9,197.1 357,204.2 361.9,207.7 350.9,240.8 		"/>
		<path class="st48" d="M351.7,186.9c0,0-4-0.7-5.3-3.1c0,0,0.7,4.5,5.3,5.5L351.7,186.9z"/>
		<path class="st41" d="M350.8,168.6c0,0-3.9-1.5-6.7,0.4c0,0,1.7-1.6,4.9-1.8C349.1,167.2,350.2,167.5,350.8,168.6z"/>
		<path class="st41" d="M358.5,167.4c-0.4-0.1-0.9-0.2-1.4-0.2c0,0-1.2,0.3-1.7,1.5c0,0,1.4-0.6,3.2-0.6L358.5,167.4z"/>
		<polyline class="st32" points="353,172.5 355.4,177.9 353,177.9 		"/>
		<path class="st41" d="M348.8,179.4c0,0,1.5,4.3,6.1,1.3L348.8,179.4z"/>
		<path class="st30" d="M246,191.2c0,0-2.4-6.5-7.8-14c-5-7-9.5-8.2-11.9-10.1c-0.7-0.5-11.8-9.2-12.7-7.9
			c-0.5,0.7,10.2,10.8,11.3,12.6c0,0-5.3,0.5-1.1,6c0,0-6.1-2,0.5,6.7c0,0,8.3,13.7,8.3,16.8L246,191.2z"/>
		<path class="st30" d="M242.5,184c0,0-0.8-7.7-3-9.4c-2.1-1.7-6.7-2.4-6.7-2.4S237.6,180.8,242.5,184z"/>
		<polygon class="st21" points="342.2,206 345,210.5 348.5,210.5 349.6,205.6 346.5,203.6 		"/>
		<polyline class="st49" points="341.2,206.5 346.5,203.6 350.9,206.4 		"/>
		<polygon class="st21" points="345,210.5 345,222.5 350.6,241.7 351.3,222.5 348.5,210.5 		"/>
		<line class="st49" x1="345" y1="210.5" x2="348.5" y2="210.5"/>
		<line class="st39" x1="340.6" y1="162" x2="337.7" y2="159.1"/>
		<line class="st39" x1="348" y1="162" x2="345.9" y2="159.1"/>
		<line class="st39" x1="358.4" y1="164.7" x2="359" y2="159.7"/>
		<line class="st46" x1="342.8" y1="312" x2="355.5" y2="312"/>
		<path class="st19" d="M321.6,194.6c0,0-11.8,2.6-22.9,19.7l-21,24.6l-29.5-49.3l-18.5,13.9l37.1,64.5c5.6,8.6,17.9,9.5,24.7,1.7
			l23.9-27.2L321.6,194.6z"/>
		<path class="st50" d="M232.9,172.2c0,0-3.1,0.7-1.9,2.8c1.1,2,4.4,2.2,4.4,2.2"/>
		<path class="st50" d="M235.4,177.2c0,0-3.5,2.3-5.7,8.7"/>
		<line class="st50" x1="223.8" y1="177.9" x2="228.5" y2="181.9"/>
		<path class="st50" d="M224.9,171.8l6.4,6.8c0,0,0.3,3.2-2.8,3.2c0,0-0.2,2-1.6,2.1l-4.7-2.4"/>
		<path class="st30" d="M418.5,220.2l6.2-10.9c0,0,17.1-13.6,19.5-15.8c2.4-2.2,2.5,0.6-0.6,3c-3.1,2.5-5.5,5.3-4.2,6.3
			c1.2,1,14.5-9.6,17.6-10.2c3.1-0.6,1.1,2.4,1.1,2.4s2.3-0.2,1.5,0.8c-0.8,1-1.7,1.7-1.7,1.7s1.9,0.2-1.2,1.8
			c-3.1,1.6-15.6,10.8-21.4,14.1l-3.9,11.6L418.5,220.2z"/>
		<path class="st19" d="M434.7,226.1c-1.1-0.3-18.3-6.7-18.3-6.7l-38.3,48.9c-4.8,6.1-3.6,15,2.7,19.6l0,0c7,5.2,17,2.7,20.7-5.1
			L434.7,226.1z"/>
		<path class="st19" d="M387,224.8c0,0,11.1,25.4,14.6,42.1c0,0-4.9,20.2-16,22.6c-14.8,3.2-20.4-53.9-20.4-53.9L387,224.8z"/>
		<line class="st51" x1="366" y1="239.6" x2="366" y2="222.1"/>
		<polygon class="st20" points="418.5,220.2 420,217.7 433.8,223.6 433.2,225.6 		"/>
		<line class="st51" x1="307" y1="253.4" x2="308.7" y2="224.9"/>
		<line class="st52" x1="458.1" y1="195" x2="440.7" y2="206.1"/>
		<line class="st52" x1="457.9" y1="197.5" x2="442.8" y2="207.2"/>
		<circle class="st20" cx="236" cy="206" r="1.6"/>
		<circle class="st20" cx="426.3" cy="228.4" r="1.6"/>
		<line class="st7" x1="351.1" y1="258.2" x2="350.2" y2="297.8"/>
		<line class="st51" x1="277.6" y1="239" x2="282.9" y2="244.9"/>
		<polygon class="st20" points="230.7,202.7 228.9,200.2 246,187.8 247.4,190.2 		"/>
	</g>
	<g class="st66">
		<path class="st10" d="M643.9,406.7h66.2l28.9-92.4C739,314.3,684.8,336.8,643.9,406.7z"/>
		<rect x="663.1" y="406.7" class="st24" width="39.8" height="3.1"/>
		<line class="st25" x1="683.1" y1="409.8" x2="683.1" y2="506.8"/>
		<path class="st24" d="M686.5,499h-3.4h-3.4c0,0-10.8,23.1-31.3,23.1l34.7-0.5l34.7,0.5C697.3,522.1,686.5,499,686.5,499z"/>
		<polyline class="st7" points="647.4,400.9 705.5,400.9 732.2,317.7 		"/>
	</g>
	<g class="st66">
		<path class="st29" d="M61.1,186.3c-7.1-8.9-1.2-10.2,9.7-10.3c5.6-0.1,7.9-8.9,7.9-8.9c-0.2-3,0.5-5.7,3.5-7.1c0,0,0-2.5,4.8-3.3
			c3.1-0.5,8.7-2.5,13.4-2.7c4.8-0.3,8.9,3.6,8.6,8.4c-0.2,3-2,5.6-7.2,6c-4.3,0.3-7.7,1.6-10.3,3.2c5.6,2,9.1,1.7,9,2.3
			c-0.1,1.1-1,9.8,5,15.3c5.8,5.3,5.8,20.1-12.8,14.5c-10-3-31,3.2-36.5-2.4C46.9,192.2,63.9,189.8,61.1,186.3z"/>
		<path class="st53" d="M142.8,248.6l-20,10.5l7.9,19.1l34.6-14.2c18.7-8.2,6.1-21.5,6.1-21.5s-43.3-39.9-48.8-43.3
			c-11.2-7.2-22.7-5.2-22.7-5.2l5.4,30.5L142.8,248.6z"/>
		<path class="st39" d="M93.5,182.9c0,0,3.6,6.1,2.8,9.9"/>
		<path class="st54" d="M43.6,497.4l24.4-1.1c0,0-3.2,8.1,7.6,13.3C88,515.6,88,516.9,88,521.9H38.8
			C38.8,521.9,41.5,509.1,43.6,497.4z"/>
		<path class="st55" d="M43.6,497.4l2.9-17.4c0,0,4.4-0.8,12.3-0.8c6,0,12.4,1,12.4,1L68,496.4L43.6,497.4z"/>
		<path class="st54" d="M113.5,498.2l27.5-1.9c0,0,4.8,11.1,20.4,15.6c15.7,4.5,20.1,4.8,21.3,10.1h-66.8
			C115.9,522,114.3,510.6,113.5,498.2z"/>
		<path class="st55" d="M113.5,498.2l-2.8-15.8c0,0,3.6-1,14.8-1c5.5,0,14.7,1,14.7,1l0.8,13.9L113.5,498.2z"/>
		<path class="st53" d="M80.6,191.2c0,0-8.4-1.3-16.6,3.1c-10.3,5.5-9.9,13.5-9.7,20.4l8.7,40l-1.4,34.1h52.3l-7-43.7
			c0,0,15.2-43-8-52.1L80.6,191.2z"/>
		<path class="st56" d="M61.6,288.9c0,0-7.4,5.8-6.3,36.6c-5,20.4-11.6,43.8-15.1,67.1c-4.9,32.3-2.3,61.9,0.2,80.9
			c0.7,5.5,5.9,7.9,5.9,7.9h24.7c0,0,5.5-2.1,6.2-7.8c2.7-23.2,7.5-34.1,10.8-72c1.6-18.1,6.2-61,6.2-61l9.3,125
			c0.3,4.2,0,8.1,2.9,12.5l4.5,5.4l29.3-1.2c6.5-5.2,9.9-14.5,8.5-22.7c0,0-7.6-74.6-11.9-100.4c-10.1-60.7-22.9-70.4-22.9-70.4
			H61.6z"/>
		<path class="st57" d="M82.6,173.8c0,0-4.5-6.6-0.1-8.8c2.7-1.4,4.6,3.6,4.6,3.6s6.8-1.3,5.7-6.3c0,0,5.1,0.6,8.2-1.1
			c0,0,0.5,7.5,0.9,12.3c1,0.8,2.1,1.7,2.6,2.1c0.8,0.6-1.1,1-2.5,1.2c0,6.6-1.7,11.7-11,7.5l4.2,8.5v0c1.7,6-11.8,4.8-15.5-1.7
			L82.6,173.8z"/>
		<path class="st20" d="M93.9,170.7c0,0,4.1-2.2,6.3,1.4C100.3,172,96.8,175.6,93.9,170.7z"/>
		<path class="st58" d="M98.5,170.4c-0.4,0.1-0.7,0.3-0.9,0.7c-0.4,0.7-0.2,1.6,0.5,2.1c1.2-0.3,2.1-1.1,2.1-1.1
			C99.8,171.2,99.2,170.8,98.5,170.4z"/>
		<polygon class="st14" points="94.2,340.6 98.9,313.8 96.6,373.1 		"/>
		<path class="st7" d="M120.4,284.4c-0.5,0.1-59.2,0-59.2,0"/>
		<line class="st59" x1="98.9" y1="313.8" x2="105.4" y2="313.8"/>
		<line class="st59" x1="55.4" y1="325.5" x2="61.2" y2="325.5"/>
		<polygon class="st14" points="140.2,482.4 140.5,488.4 112,489.8 110.9,483.6 		"/>
		<path class="st14" d="M46.3,481.4l-0.7,4l24.4,0.7l0.9-4.7C71.1,481.4,45.7,481.3,46.3,481.4z"/>
		<path class="st60" d="M181.5,519.2c-1.2-1.1-65,0-65,0"/>
		<line class="st60" x1="88" y1="518.7" x2="39.4" y2="518.7"/>
		<path class="st28" d="M150.3,502.2c-0.5,0.2-7.9,6.1-7.9,6.1"/>
		<path class="st28" d="M154.3,505.2c-0.5,0.2-7.9,6.1-7.9,6.1"/>
		<path class="st28" d="M74.9,503.7c-0.5,0.2-7.9,6.1-7.9,6.1"/>
		<path class="st28" d="M78.9,506.8c-0.5,0.2-7.9,6.1-7.9,6.1"/>
		<path class="st61" d="M91,184.2l-4.2-2.4c0,0,1.2,3.9,5.7,5.6L91,184.2z"/>
		<path class="st39" d="M79.8,168c0,0,1.6,8.6-3.9,9.8c-5.5,1.1-13.6,0.8-12.9,3.8c0.8,3,6.4,7.9,2.7,9.1c-3.7,1.1-3.6,4.8-3.6,4.8"
			/>
		<path class="st39" d="M82.6,173.8c0,0-0.5,7.7-5.3,7.9c-4.8,0.2-8.2,2-6.9,3.9c1.3,1.9,2.2,4.9-0.3,6.3"/>
		<path class="st61" d="M84.7,171.7c0,0-1-3.5-2.5-4.8C82.2,166.9,85.3,166.1,84.7,171.7z"/>
		<path class="st39" d="M82.5,165c0,0-1.1-3.8,4.9-5.4c6-1.6,13.8-4.6,20-2.4"/>
		<path class="st39" d="M85.4,165.8c0,0,2.4-5,8.2-5.5c5.8-0.4,14.7-1.8,13.9,5.5"/>
		<path class="st58" d="M99.1,168.8c0,0-3-2.1-5.8-0.3C93.3,168.6,95.2,165.3,99.1,168.8z"/>
		<path class="st30" d="M123.3,260.3l-13,6.1l3.6,20.5l13.5,7.1c0,0,2.1-2.4-1.1-4.3c-3.2-1.8-4.9-3-4.9-3l9.6,4.2
			c0,0,1.7-2-0.9-3.4c-2.6-1.3-8.1-5.2-8.1-5.2s0.5-3.3,2.8-4.2l4.9-2.3L123.3,260.3z"/>
		<path class="st62" d="M109.4,202.7c0,0,3.4,12.4,1.5,24.2"/>
		<path class="st53" d="M79.8,191.1l-14.6,0.8c-5.6,0.3-10.7,3.2-13.7,7.9c-1.9,2.9-5,5.3-7.2,12L19.1,261
			c-4.2,8.3,9.5,27.9,25.3,16.2l42.7-37.9L70.6,210L79.8,191.1z"/>
		<line class="st50" x1="121.5" y1="286.8" x2="118" y2="282.6"/>
		<line class="st7" x1="129.3" y1="255.7" x2="136.1" y2="273.7"/>
		<line class="st62" x1="106.9" y1="245.1" x2="101.4" y2="244.9"/>
		<line class="st62" x1="142.8" y1="248.6" x2="150.8" y2="247.3"/>
		<line class="st59" x1="80.1" y1="300.1" x2="58.3" y2="305.9"/>
		<line class="st59" x1="69.2" y1="303" x2="54.3" y2="479.7"/>
		<line class="st59" x1="101.4" y1="298.4" x2="122.3" y2="303"/>
		<line class="st59" x1="113.9" y1="300.7" x2="133.2" y2="481.4"/>
		<polygon class="st30" points="95.6,206.7 89,213 96.5,230.8 103.9,224 		"/>
		<polygon class="st12" points="109.7,194.7 110.2,224.8 118.1,224.8 117.6,194.7 		"/>
		<g>
			<path class="st30" d="M95.6,206.7c0,0,6.1-4.9,14.7-4.7c8.6,0.3,14.2,1.1,15.5,1.7c1.3,0.6,2.5,3.2-2.4,4.3c0,0,3.3,4.2-3.6,5
				c0,0,5.7,3.1-5.2,4.2c0,0-8.4,4.6-10.7,6.8L95.6,206.7z"/>
			<path class="st50" d="M123.4,208c0,0-7.9-2-16.1-0.7"/>
			<path class="st50" d="M123.7,211.3c0,0-8.8-2.7-15.7-1"/>
			<path class="st50" d="M119.8,213c0,0-4.8-0.5-8.8,1.2"/>
		</g>
		<path class="st58" d="M95,177.3l5.5,1.6c0,0-2.1,2.4-4,1.9C94.6,180.3,95,177.3,95,177.3z"/>
		<rect x="108" y="190.3" class="st12" width="11.8" height="6.8"/>
		<rect x="105.8" y="178.4" class="st61" width="19.3" height="13.5"/>
		<path class="st61" d="M105.8,189.9L105.8,189.9v-9.4l0,0c-1.5,0-2.6,1.2-2.6,2.6v4.1C103.1,188.7,104.3,189.9,105.8,189.9z"/>
		<line class="st63" x1="108.1" y1="192" x2="119.8" y2="192"/>
		<line class="st63" x1="109.7" y1="197.1" x2="117.6" y2="197.1"/>
		<path class="st61" d="M125.1,181.8v3.4v3.4c0,0,28.9,2.1,31.4,22.1v-25.6v-25.6C154,179.7,125.1,181.8,125.1,181.8z"/>
		<ellipse class="st12" cx="156.5" cy="185.5" rx="5.6" ry="25.8"/>
		<path class="st63" d="M150.9,179.9c2.5,0,4.5,2,4.5,4.5c0,2.5-2,4.5-4.5,4.5"/>
		<line class="st18" x1="105.8" y1="182.9" x2="125.1" y2="182.9"/>
		<line class="st63" x1="105.8" y1="180.5" x2="105.8" y2="189.9"/>
		<line class="st63" x1="125.1" y1="181.8" x2="125.1" y2="188.7"/>
		<line class="st18" x1="146.8" y1="174.6" x2="146.8" y2="195.8"/>
		<line class="st62" x1="96.5" y1="230.8" x2="62.8" y2="261.2"/>
		<path class="st62" d="M78.3,216.1c-0.7,0.3-27.4,20.9-27.4,20.9"/>
		<line class="st62" x1="62.8" y1="221.3" x2="62.8" y2="227.9"/>
		<polygon class="st64" points="123.3,260.3 127.7,276.9 129.8,275.9 		"/>
		<polygon class="st64" points="88.6,213.2 98.7,228.8 96.5,230.8 		"/>
		<line class="st7" x1="82.6" y1="216.1" x2="92.3" y2="234.6"/>
		<polygon class="st64" points="79.8,191.1 72.9,191.1 83.5,206.7 88.6,196.6 		"/>
		<polygon class="st64" points="88.6,196.6 93.9,205.4 97.1,192.8 95.2,192.7 		"/>
	</g>
	<line class="st69" x1="-2.8" y1="522.2" x2="737.1" y2="522.2"/>
</g>
</svg>
