<?xml version="1.0" encoding="UTF-8"?> <svg xmlns="http://www.w3.org/2000/svg" width="389.28" height="360" viewBox="0 0 389.28 360"><defs><style> .cls-1 { fill: #ebf5ff; } .cls-2 { fill: #f5b19d; } .cls-3 { fill: #ea8a6c; } .cls-4, .cls-5, .cls-6 { fill: #fff; } .cls-7 { fill: #ffc2b0; } .cls-8 { fill: #ff1cf4; } .cls-9 { fill: #6588e0; } .cls-10 { fill: #97cbff; } .cls-11 { fill: #96b5eb; } .cls-12 { fill: #9ec2ff; } .cls-13, .cls-14 { fill: #baddff; } .cls-15 { fill: #c2e0ff; } .cls-16 { fill: #bad4ff; } .cls-17, .cls-18 { fill: #a8c4e5; } .cls-19 { fill: #cfe4fa; } .cls-20 { fill: #cfe5ff; } .cls-21 { fill: #dbefff; } .cls-22 { fill: #d9e9ff; } .cls-23 { fill: #d9e8ff; } .cls-24 { fill: #c6d2f2; } .cls-25 { fill: #c7dcff; } .cls-26 { fill: #c7e3ff; } .cls-27 { fill: #21ded5; } .cls-28 { fill: #1d50cf; } .cls-29 { fill: #4432db; } .cls-30 { fill: #95c1f5; } .cls-31 { fill: #85bcff; } .cls-32 { fill: #2c1f9c; } .cls-33 { fill: #2a66f7; } .cls-34 { fill: #4a3eb5; } .cls-35 { fill: #29479c; } .cls-36 { fill: #353559; } .cls-37 { fill: #3c61c7; } .cls-38 { fill: #392ca3; } .cls-39 { fill: #5986ff; } .cls-40 { fill: #5f6ccf; } .cls-41 { fill: #7a3939; } .cls-18 { opacity: .4; } .cls-18, .cls-14, .cls-42 { mix-blend-mode: multiply; } .cls-14 { opacity: .47; } .cls-42 { fill: #88bdeb; opacity: .36; } .cls-43 { isolation: isolate; } .cls-5 { opacity: .61; } .cls-6 { opacity: .71; } </style></defs><g class="cls-43"><g id="Layer_1" data-name="Layer 1"></g><g id="Layer_2" data-name="Layer 2"><g id="image"><g><path class="cls-33" d="M389.28,297.27l-253.06-118.39V3.56c0-2.76,1.7-4.23,3.77-3.26l245.53,114.86c2.07,.97,3.77,4.02,3.77,6.79v175.32Z"></path><path class="cls-10" d="M373.03,309.04L119.97,190.65V15.33c0-2.76,1.7-4.23,3.77-3.26l245.53,114.86c2.07,.97,3.77,4.02,3.77,6.79v175.32Z"></path><path class="cls-4" d="M373.03,163.72L119.97,45.34l-.09-29.9c0-3.22,1.77-4.4,4.03-3.34l245.02,114.68c2.26,1.06,4.11,4.55,4.11,7.77v29.18Z"></path><path class="cls-8" d="M144.62,40.58c0,2.13-1.51,3.16-3.37,2.29-1.86-.87-3.37-3.31-3.37-5.44s1.51-3.16,3.37-2.29,3.37,3.31,3.37,5.44Z"></path><path class="cls-39" d="M154.82,45.35c0,2.13-1.51,3.16-3.37,2.29-1.86-.87-3.37-3.31-3.37-5.44,0-2.13,1.51-3.16,3.37-2.29,1.86,.87,3.37,3.31,3.37,5.44Z"></path><path class="cls-35" d="M165.03,50.13c0,2.13-1.51,3.16-3.37,2.29-1.86-.87-3.37-3.31-3.37-5.44s1.51-3.16,3.37-2.29c1.86,.87,3.37,3.31,3.37,5.44Z"></path><g><path class="cls-25" d="M149.24,348.12l-61.45-32.37c10.83-5.26,19.15-9.56,26.06-14.62l61.37,32.23c-9.84,4.93-17.64,9.34-25.97,14.75Z"></path><path class="cls-11" d="M96.57,316.6l.51-.2c.76-.29,1.22-.7,1.21-1.09,0-.39-.46-.75-1.3-1.05l-.57-.2,.53-.24c5.83-2.69,10.87-5.61,14.98-8.69l.32-.24,.41,.19c.77,.36,2.61,.82,4.03-.07l.35-.22,.38,.19,51.64,26.59-.41,.2c-.68,.33-1.01,.69-1,1.07,.01,.4,.42,.81,1.09,1.1l.47,.21-.47,.22c-5.35,2.47-10.39,5.39-14.99,8.7l-.31,.23-.4-.17c-.8-.34-1.73-.52-2.51-.46-.59,.04-1.1,.21-1.52,.51l-.34,.24-.4-.21-51.69-26.62Zm2.62-1.69c.07,.14,.1,.27,.1,.39,0,.48-.42,.96-1.17,1.34l50.45,25.98c.52-.28,1.13-.44,1.82-.49,.9-.06,1.93,.09,2.84,.41,4.44-3.16,9.28-5.97,14.41-8.37-.63-.37-1.01-.83-1.02-1.29-.01-.33,.16-.8,.95-1.28l-50.51-26.02c-1.43,.7-3.28,.6-4.64,.1-3.98,2.95-8.8,5.75-14.35,8.34,.65,.3,.97,.61,1.12,.89Z"></path><path class="cls-11" d="M120.21,325.4c-1.16-2.23-.29-4.67,2.7-6.4,4.64-2.69,12.67-2.7,17.9,0,5.22,2.69,5.7,7.07,1.05,9.77h0c-4.64,2.69-12.67,2.7-17.9,0-1.86-.96-3.12-2.13-3.76-3.36Zm23.39-2.89c-.59-1.14-1.76-2.23-3.49-3.12-4.82-2.48-12.21-2.49-16.47-.02-4.26,2.47-3.8,6.51,1.02,8.99,4.82,2.48,12.21,2.49,16.47,.02,2.74-1.59,3.52-3.82,2.46-5.87Z"></path><path class="cls-11" d="M125.13,326.82l1.34-.75c-.87-.55-1.57-1.18-2.07-1.87l-.12-.17,3.15-1.76,.26,.42c.26,.43,.61,.86,1.05,1.29,.43,.42,.88,.76,1.33,1,.45,.24,.71,.31,.82,.33,.08,.01,.14,.02,.25-.05,.03-.02,.06-.04,.05-.1-.02-.07-.07-.22-.27-.49-.17-.24-.43-.55-.76-.94-.4-.47-.65-.89-.75-1.27-.1-.39-.06-.75,.14-1.07,.2-.32,.58-.64,1.14-.95,.88-.49,1.87-.72,2.95-.7,.93,.02,1.93,.25,2.98,.66l1.01-.56,2.18,1.17-.98,.55c.78,.51,1.43,1.11,1.93,1.79l.18,.25-3.78,.89-.18-.26c-.52-.73-1.15-1.31-1.89-1.7-.43-.23-.64-.27-.7-.28-.07,0-.1,0-.16,.03-.06,.04-.07,.06-.07,.1,0,.05,.04,.17,.21,.41,.14,.21,.37,.49,.68,.83,.68,.77,1,1.4,.99,1.93-.02,.55-.43,1.05-1.22,1.49-.88,.49-1.9,.75-3.03,.75-.99,0-2.02-.19-3.06-.58l-1.41,.79-2.18-1.17Zm2.72-.74l-1.3,.73,.75,.4,1.32-.74,.35,.15c.98,.41,1.93,.61,2.8,.61,.86,0,1.62-.2,2.32-.59,.61-.34,.91-.7,.92-1.11,.01-.43-.28-1-.89-1.68-.32-.35-.57-.65-.72-.87-.17-.25-.26-.44-.27-.58-.02-.19,.11-.37,.36-.51,.3-.17,.7-.23,1.11-.18,.34,.04,.71,.18,1.17,.42,.75,.4,1.39,.95,1.93,1.63l1.91-.45c-.49-.6-1.12-1.13-1.86-1.57l-.32-.19,.93-.52-.75-.4-.93,.52-.35-.15c-1.02-.44-1.95-.67-2.77-.69-.79-.02-1.5,.15-2.18,.53-.45,.25-.75,.5-.9,.74-.15,.24-.18,.51-.1,.82,.08,.32,.31,.7,.66,1.12,.34,.4,.61,.72,.79,.97,.2,.27,.31,.48,.34,.64,.04,.21-.07,.41-.34,.55-.36,.2-.81,.27-1.27,.19-.36-.06-.76-.21-1.23-.46-.52-.28-1.02-.65-1.5-1.12-.33-.32-.61-.65-.85-.98l-1.54,.86c.51,.64,1.21,1.23,2.07,1.74l.32,.19Z"></path><path class="cls-11" d="M141.82,333.98c-.18-.09-.14-.29,.02-.38,.17-.1,.32-.1,.54-.09,1.58,.1,1.9,.12,2.13,.19,.12,.02,.25,.08,.32,.15,.08,.09,.08,.2-.06,.29-.48,.28-.91,.53-1.4,.8l-2.8,1.62c-.22,.13-.52,.09-.74-.02-.21-.11-.27-.27-.02-.41,.56-.33,1.65-.93,2.62-1.49,.29-.17,.64-.36,.91-.52-.48-.01-.86-.03-1.2-.05-.16-.01-.22-.03-.33-.08Z"></path><path class="cls-11" d="M148.21,335.53c1.21,.63,.93,1.57-.55,2.42-1.52,.88-3.28,.94-4.34,.39-1.05-.54-1.08-1.5,.3-2.29,1.36-.79,3.21-1.23,4.59-.52Zm-3.72,.89c-.82,.47-1.18,1.12-.47,1.49,.7,.36,1.81,.25,2.83-.35,.94-.55,1.4-1.23,.64-1.63-.92-.47-2.14-.01-3,.48Z"></path><path class="cls-11" d="M152.8,337.9c1.21,.63,.93,1.57-.55,2.42-1.52,.88-3.28,.94-4.34,.39-1.05-.54-1.07-1.5,.3-2.29,1.36-.79,3.21-1.23,4.59-.52Zm-3.72,.89c-.82,.47-1.18,1.12-.47,1.49,.7,.36,1.81,.25,2.83-.35,.94-.55,1.4-1.23,.64-1.63-.92-.47-2.14-.01-3,.48Z"></path><path class="cls-23" d="M117.63,355.53l-37.68-40.25c12.68-4.2,18.57-7.34,28.88-12.07l38.46,40.89c-11.61,3.97-19.1,6.84-29.66,11.43Z"></path><path class="cls-11" d="M84.33,317.24l.57-.14c.86-.21,1.5-.58,1.71-.98,.21-.4,0-.82-.6-1.23l-.41-.27,.61-.19c6.83-2.07,13.06-4.48,18.54-7.16l.43-.21,.27,.25c.5,.46,1.92,1.15,3.71,.4l.44-.18,.23,.24,32.11,33.36-.49,.16c-.8,.26-1.31,.59-1.51,.98-.21,.41-.07,.88,.37,1.26l.31,.27-.55,.17c-6.26,1.9-12.5,4.31-18.55,7.16l-.41,.19-.27-.22c-.53-.45-1.29-.73-2.03-.77-.56-.03-1.12,.09-1.67,.34l-.45,.21-.25-.26-32.14-33.4Zm3.34-1.43c-.01,.15-.06,.29-.13,.41-.26,.49-.92,.94-1.82,1.24l31.37,32.6c.63-.22,1.28-.32,1.94-.29,.85,.04,1.71,.32,2.36,.76,5.82-2.72,11.81-5.04,17.83-6.89-.37-.45-.45-.97-.2-1.45,.17-.34,.59-.8,1.59-1.2l-31.41-32.64c-1.69,.55-3.33,.23-4.29-.44-5.28,2.56-11.26,4.86-17.76,6.86,.43,.38,.54,.74,.52,1.04Z"></path><path class="cls-11" d="M98.97,327.02c.29-2.34,2.5-4.69,6.18-6.14,5.72-2.25,12.85-1.48,15.89,1.71,3.05,3.19,.88,7.61-4.84,9.86h0c-5.72,2.25-12.85,1.48-15.89-1.71-1.08-1.14-1.51-2.43-1.35-3.72Zm22.47-.64c.15-1.2-.24-2.4-1.25-3.45-2.82-2.95-9.37-3.67-14.62-1.6-5.24,2.06-7.22,6.14-4.4,9.08,2.82,2.95,9.37,3.67,14.62,1.6,3.37-1.32,5.39-3.48,5.66-5.63Z"></path><path class="cls-11" d="M102.49,328.91l1.63-.62c-.45-.64-.69-1.33-.73-2.07v-.18l3.83-1.45-.02,.45c-.02,.45,.03,.92,.17,1.39,.13,.46,.33,.84,.59,1.13,.26,.28,.45,.37,.54,.4,.06,.02,.12,.03,.25-.02,.04-.01,.08-.03,.1-.1,.03-.07,.06-.23,.05-.52-.01-.25-.05-.59-.12-1.01-.08-.51-.05-.95,.08-1.34,.14-.4,.4-.76,.76-1.06,.36-.3,.89-.58,1.57-.84,1.07-.41,2.09-.54,3.03-.41,.81,.11,1.57,.43,2.26,.95l1.23-.46,1.24,1.37-1.19,.45c.39,.59,.61,1.25,.65,1.97l.02,.27-3.89,.53v-.28c-.03-.78-.26-1.42-.68-1.88-.25-.27-.41-.33-.45-.35-.06-.02-.09-.01-.16,.01-.08,.03-.1,.06-.12,.09-.02,.05-.07,.17-.06,.43,0,.22,.04,.52,.12,.89,.15,.84,.06,1.49-.26,2.02-.34,.55-1,1.01-1.96,1.37-1.08,.41-2.13,.56-3.14,.46-.88-.09-1.68-.38-2.37-.87l-1.71,.65-1.24-1.37Zm2.86-.48l-1.58,.6,.43,.47,1.61-.61,.23,.18c.63,.5,1.35,.8,2.13,.88,.77,.08,1.55-.04,2.4-.36,.74-.28,1.23-.62,1.48-1.02,.27-.43,.34-1.02,.2-1.76-.08-.39-.12-.7-.13-.94,0-.26,.03-.46,.1-.61,.1-.19,.32-.36,.62-.48,.37-.14,.76-.17,1.09-.07,.28,.08,.53,.24,.79,.53,.43,.47,.68,1.08,.74,1.82l1.96-.27c-.08-.65-.32-1.24-.72-1.75l-.17-.22,1.13-.43-.43-.47-1.13,.43-.22-.19c-.64-.54-1.33-.86-2.05-.96-.69-.1-1.43,0-2.25,.32-.55,.21-.96,.43-1.24,.65-.27,.22-.46,.49-.57,.81-.12,.33-.14,.73-.07,1.18,.07,.43,.11,.78,.13,1.04,.01,.29,0,.51-.08,.67-.09,.22-.3,.4-.62,.52-.44,.17-.88,.19-1.24,.07-.29-.09-.56-.28-.82-.57-.3-.33-.52-.75-.67-1.26-.1-.35-.16-.71-.18-1.06l-1.88,.71c.07,.69,.35,1.34,.81,1.93l.18,.22Z"></path><path class="cls-11" d="M116.44,340.98c-.1-.11,.04-.3,.24-.38,.21-.08,.34-.07,.54-.04,1.35,.25,1.62,.3,1.78,.39,.1,.04,.17,.11,.19,.19,.02,.1-.05,.21-.22,.28-.59,.23-1.12,.44-1.71,.67l-3.44,1.35c-.27,.11-.51,.04-.64-.09-.12-.13-.08-.3,.22-.42,.69-.27,2.01-.77,3.2-1.23,.36-.14,.79-.3,1.11-.43-.41-.06-.74-.12-1.03-.17-.13-.03-.18-.05-.24-.12Z"></path><path class="cls-11" d="M121.2,343.15c.71,.74-.1,1.65-1.92,2.37-1.87,.74-3.47,.62-4.08-.03-.61-.64-.07-1.6,1.62-2.26,1.67-.66,3.58-.92,4.38-.08Zm-3.83,.54c-1.01,.4-1.71,1.01-1.3,1.44,.41,.43,1.46,.42,2.72-.07,1.16-.46,1.97-1.1,1.53-1.56-.54-.56-1.89-.22-2.95,.2Z"></path><path class="cls-11" d="M123.88,345.96c.71,.74-.1,1.65-1.92,2.37-1.87,.74-3.46,.62-4.08-.03-.61-.64-.07-1.6,1.62-2.26,1.67-.66,3.58-.92,4.38-.08Zm-3.83,.54c-1.01,.4-1.71,1.01-1.3,1.44,.41,.43,1.46,.42,2.72-.07,1.16-.46,1.97-1.1,1.53-1.56-.54-.56-1.89-.22-2.95,.2Z"></path></g><g><ellipse class="cls-20" cx="147.24" cy="296.5" rx="16.29" ry="9.22"></ellipse><g><path class="cls-11" d="M161.46,292.5c.11,.62-.21,3.23-.52,3.89-.61,2.12-2.53,4.14-5.69,5.62-6.93,3.25-17.2,2.7-22.94-1.22-2.67-1.83-3.89-4.07-3.73-6.26-.03-.21,.18-2.93,.18-2.93,.25-.76,.66-1.51,1.25-2.22,.97-1.4,2.57-2.69,4.76-3.72,6.93-3.25,17.2-2.7,22.94,1.22,2.42,1.65,3.64,3.64,3.73,5.63Z"></path><ellipse class="cls-23" cx="145.04" cy="292.01" rx="16.29" ry="9.22"></ellipse><ellipse class="cls-4" cx="145.04" cy="292.01" rx="11.93" ry="6.75"></ellipse><path class="cls-36" d="M138.17,293.66c-.82-.69-1.49-1.65-1.5-2.51l2.72-.16c.16,.86,.52,1.5,1.28,2.01,.89,.59,1.69,.66,2.47,.27,1.77-.87-2.47-3.66,.61-5.19,1.68-.83,3.77-.79,5.6,.04l1.77-.87,1.55,1.03-1.73,.86c.87,.76,1.05,1.52,.97,2.28l-2.62-.07c0-.66-.21-1.14-.88-1.58-.76-.51-1.5-.62-2.28-.24-1.63,.81,2.71,3.54-.56,5.16-1.65,.82-3.76,.88-5.78-.03l-1.78,.88-1.55-1.03,1.72-.85Z"></path></g><g><path class="cls-11" d="M161.81,286.99c.11,.62-.21,3.23-.52,3.89-.61,2.12-2.53,4.14-5.69,5.62-6.93,3.25-17.2,2.7-22.94-1.22-2.67-1.83-3.89-4.07-3.73-6.26-.03-.21,.18-2.93,.18-2.93,.25-.76,.66-1.51,1.25-2.22,.97-1.4,2.57-2.69,4.76-3.72,6.93-3.25,17.2-2.7,22.94,1.22,2.42,1.65,3.64,3.64,3.73,5.63Z"></path><ellipse class="cls-23" cx="145.39" cy="286.51" rx="16.29" ry="9.22"></ellipse><ellipse class="cls-4" cx="145.39" cy="286.51" rx="11.93" ry="6.75"></ellipse><path class="cls-36" d="M138.53,288.15c-.82-.69-1.49-1.65-1.5-2.51l2.72-.16c.16,.86,.52,1.5,1.28,2.01,.89,.59,1.69,.66,2.47,.27,1.77-.87-2.47-3.66,.61-5.19,1.68-.83,3.77-.79,5.6,.04l1.77-.87,1.55,1.03-1.73,.86c.87,.76,1.05,1.52,.97,2.28l-2.62-.07c0-.66-.21-1.14-.88-1.58-.76-.51-1.5-.62-2.28-.24-1.63,.81,2.71,3.54-.56,5.16-1.65,.82-3.76,.88-5.78-.03l-1.78,.88-1.55-1.03,1.72-.85Z"></path></g><g><path class="cls-11" d="M162.25,280.22c.11,.62-.21,3.23-.52,3.89-.61,2.12-2.53,4.14-5.69,5.62-6.93,3.25-17.2,2.7-22.94-1.22-2.67-1.83-3.89-4.07-3.73-6.26-.03-.21,.18-2.93,.18-2.93,.25-.76,.66-1.51,1.25-2.22,.97-1.4,2.57-2.69,4.76-3.72,6.93-3.25,17.2-2.7,22.94,1.22,2.42,1.65,3.64,3.64,3.73,5.63Z"></path><ellipse class="cls-23" cx="145.82" cy="279.73" rx="16.29" ry="9.22"></ellipse><ellipse class="cls-4" cx="145.82" cy="279.73" rx="11.93" ry="6.75"></ellipse><path class="cls-31" d="M138.96,281.38c-.82-.69-1.49-1.65-1.5-2.51l2.72-.16c.16,.86,.52,1.5,1.28,2.01,.89,.59,1.69,.66,2.47,.27,1.77-.87-2.47-3.66,.61-5.19,1.68-.83,3.77-.79,5.6,.04l1.77-.87,1.55,1.03-1.73,.86c.87,.76,1.05,1.52,.97,2.28l-2.62-.07c0-.66-.21-1.14-.88-1.58-.76-.51-1.5-.62-2.28-.24-1.63,.81,2.71,3.54-.56,5.16-1.65,.82-3.76,.88-5.78-.03l-1.78,.88-1.55-1.03,1.72-.85Z"></path></g></g><g><ellipse class="cls-20" cx="176.78" cy="309.54" rx="16.29" ry="9.22"></ellipse><g><path class="cls-11" d="M189.01,306.02c.11,.62-.21,3.23-.52,3.89-.61,2.12-2.53,4.14-5.69,5.62-6.93,3.25-17.2,2.7-22.94-1.22-2.67-1.83-3.89-4.07-3.73-6.26-.03-.21,.18-2.93,.18-2.93,.25-.76,.66-1.51,1.25-2.22,.97-1.4,2.57-2.69,4.76-3.72,6.93-3.25,17.2-2.7,22.94,1.22,2.42,1.65,3.64,3.64,3.73,5.63Z"></path><ellipse class="cls-23" cx="172.59" cy="305.53" rx="16.29" ry="9.22"></ellipse><ellipse class="cls-4" cx="172.59" cy="305.53" rx="11.93" ry="6.75"></ellipse><path class="cls-31" d="M165.73,307.18c-.82-.69-1.49-1.65-1.5-2.51l2.72-.16c.16,.86,.52,1.5,1.28,2.01,.89,.59,1.69,.66,2.47,.27,1.77-.87-2.47-3.66,.61-5.19,1.68-.83,3.77-.79,5.6,.04l1.77-.87,1.55,1.03-1.73,.86c.87,.76,1.05,1.52,.97,2.28l-2.62-.07c0-.66-.21-1.14-.88-1.58-.76-.51-1.5-.62-2.28-.24-1.63,.81,2.71,3.54-.56,5.16-1.65,.82-3.76,.88-5.78-.03l-1.78,.88-1.55-1.03,1.72-.85Z"></path></g></g><g><g><polygon class="cls-6" points="134.99 132.35 135.44 65.34 303.45 146.57 302.26 212.15 134.99 132.35"></polygon><path class="cls-15" d="M276.19,198.45h-.03c-.47-.02-.84-.41-.82-.89l2.22-61.81c.02-.47,.4-.84,.89-.82,.47,.02,.84,.41,.82,.89l-2.22,61.81c-.02,.46-.4,.82-.85,.82Z"></path><path class="cls-15" d="M221.52,173.18h-.02c-.47,0-.85-.4-.84-.87l1.33-64.46c0-.47,.39-.84,.85-.84h.02c.47,0,.85,.4,.84,.87l-1.33,64.46c0,.47-.39,.84-.85,.84Z"></path><path class="cls-15" d="M198.73,162.81h-.02c-.47,0-.85-.4-.84-.87l1.23-65.13c0-.47,.4-.83,.87-.84,.47,0,.85,.4,.84,.87l-1.23,65.13c0,.47-.39,.84-.85,.84Z"></path><path class="cls-15" d="M152.49,138.78h-.01c-.47,0-.85-.39-.84-.87l.86-64.71c0-.47,.39-.84,.85-.84h.01c.47,0,.85,.39,.84,.87l-.86,64.71c0,.47-.39,.84-.85,.84Z"></path><path class="cls-15" d="M249.31,187.28h0c-.47,0-.85-.39-.85-.86l.55-66.39c0-.47,.39-.85,.85-.85h0c.47,0,.85,.39,.85,.86l-.55,66.39c0,.47-.39,.85-.85,.85Z"></path><path class="cls-15" d="M173.45,149.33h-.02c-.47-.01-.85-.4-.84-.87l1.44-64.44c.01-.47,.41-.86,.87-.84,.47,.01,.85,.4,.84,.87l-1.44,64.44c-.01,.47-.39,.84-.85,.84Z"></path><path class="cls-15" d="M298.49,164.62c-.13,0-.25-.03-.37-.09L137.53,86.51c-.42-.21-.6-.72-.4-1.14,.21-.42,.72-.6,1.14-.4l160.59,78.03c.42,.21,.6,.72,.4,1.14-.15,.3-.45,.48-.77,.48Z"></path><path class="cls-15" d="M297.53,179.67c-.13,0-.25-.03-.37-.09L136.61,101.58c-.42-.21-.6-.72-.4-1.14,.21-.42,.72-.6,1.14-.4l160.54,78c.42,.21,.6,.72,.4,1.14-.15,.3-.45,.48-.77,.48Z"></path><path class="cls-15" d="M297.64,195.24c-.13,0-.25-.03-.37-.09L135.7,116.66c-.42-.21-.6-.72-.4-1.14,.21-.42,.72-.6,1.14-.4l161.56,78.5c.42,.21,.6,.72,.4,1.14-.15,.3-.45,.48-.77,.48Z"></path></g><path class="cls-5" d="M135.11,113.7s16.54-.71,21.93,8.89c5.39,9.6,7.66,9.3,14.12,9.2,6.46-.1,7.27-21.38,17.4-15.49,10.13,5.89,8.07,27.33,13.59,30.18,5.53,2.85,2.67-7.97,9.9-4.12,10.28,5.47,10.04,22.08,15.38,21.88,5.35-.21,7.53-4.76,15.42-.22,6.67,3.84,5.94,13.03,13.19,16.6,24.78,12.2,14.55-25.59,47.13-18.37l-.91,49.92-167.27-79.81,.13-18.65Z"></path><path class="cls-33" d="M261.52,186.42c-2.46,0-5.41-.75-9.06-2.55-4.04-1.99-5.75-5.54-7.41-8.97-1.48-3.06-2.87-5.95-5.83-7.66-4-2.31-6.12-1.35-8.36-.35-1.86,.84-3.97,1.78-6.92,.62-2.67-1.05-3.8-4.38-5.11-8.24-1.7-5-3.62-10.67-9.19-13.64-3.08-1.64-3.91-.3-5.16,1.72-1.08,1.73-2.55,4.1-5.9,2.37-2.76-1.42-3.73-6-4.96-11.8-1.51-7.14-3.23-15.24-8.67-18.4-1.47-.86-2.74-1.1-3.87-.74-2.56,.8-4.32,4.58-6.01,8.23-1.93,4.16-3.75,8.08-7.02,8.13h-.5c-6.64,.12-9.21-.32-14.47-9.68-5.04-8.99-20.9-8.41-21.06-8.4-.52,.03-.97-.38-.99-.91-.02-.52,.38-.97,.91-.99,.7-.03,17.19-.62,22.79,9.37,4.97,8.85,6.78,8.82,12.78,8.72h.5c2.08-.04,3.73-3.6,5.33-7.04,1.87-4.03,3.81-8.19,7.17-9.25,1.65-.52,3.46-.21,5.39,.91,6.17,3.59,8.06,12.5,9.58,19.65,1.04,4.88,2.01,9.49,3.97,10.5,1.72,.89,2.26,.17,3.42-1.69,1.2-1.94,3.02-4.86,7.67-2.39,6.24,3.32,8.38,9.63,10.1,14.71,1.16,3.41,2.15,6.36,4.01,7.09,2.21,.87,3.64,.23,5.45-.59,2.46-1.11,5.25-2.36,10.09,.43,3.47,2,5.06,5.29,6.6,8.48,1.58,3.29,3.08,6.39,6.54,8.09,11.24,5.53,14.65,.31,18.98-6.3,4.67-7.13,10.48-16.01,27.94-12.14,.51,.11,.84,.62,.72,1.13-.11,.51-.62,.84-1.13,.72-16.18-3.59-21.36,4.34-25.94,11.32-3.18,4.86-6.23,9.52-12.34,9.52Z"></path><path class="cls-8" d="M240.71,166.7c-.3,1.82-2.08,2.28-3.97,1.03-1.89-1.25-3.17-3.73-2.87-5.55,.3-1.82,2.08-2.28,3.97-1.03,1.89,1.25,3.17,3.73,2.87,5.55Z"></path><polygon class="cls-14" points="229.19 152.11 261.31 168.31 261.82 145.16 229.69 128.96 229.19 152.11"></polygon><polygon class="cls-4" points="227.11 146.81 259.24 163.01 259.74 139.85 227.62 123.65 227.11 146.81"></polygon><polygon class="cls-13" points="231.14 135.86 255.08 147.81 255.15 143.85 231.21 131.9 231.14 135.86"></polygon><polygon class="cls-13" points="230.95 138.07 250.46 147.9 250.4 152.55 230.89 142.73 230.95 138.07"></polygon></g><polygon class="cls-6" points="302.3 250.61 302.27 231.73 218.87 192.17 218.87 192.29 198.8 182.77 198.82 201.54 302.3 250.61"></polygon><path class="cls-13" d="M203.85,196.69l63.65,30.14c1.03,.49,1.81-.03,1.74-1.14h0c-.07-1.11-.96-2.42-1.99-2.91l-63.65-30.14c-1.03-.49-1.81,.03-1.74,1.14h0c.07,1.11,.96,2.42,1.99,2.91Z"></path><g><ellipse class="cls-8" cx="287.43" cy="234.07" rx="4.88" ry="8.31" transform="translate(-82.63 212.66) rotate(-35.85)"></ellipse><path class="cls-4" d="M286.91,236.78s-.06,0-.09,0c-.21-.03-.39-.14-.51-.31l-2.2-3.21c-.23-.33-.14-.78,.19-1.01,.33-.23,.78-.14,1.01,.19l1.74,2.54,2.63-2.29c.3-.26,.76-.23,1.03,.07,.26,.3,.23,.76-.07,1.03l-3.24,2.82c-.13,.12-.3,.18-.48,.18Z"></path></g><g><polygon class="cls-6" points="190.55 197.54 190.77 178.94 135.02 152.55 134.8 171.15 190.55 197.54"></polygon><polygon class="cls-8" points="144.25 166.86 151.41 170.51 151.37 176.06 144.2 172.63 144.25 166.86"></polygon><polygon class="cls-8" points="153.72 169.11 161.33 172.79 161.26 180.72 153.65 177.09 153.72 169.11"></polygon><polygon class="cls-8" points="163.87 172.45 171.47 175.78 171.39 185.5 163.79 181.92 163.87 172.45"></polygon><polygon class="cls-8" points="173.93 174.82 181.55 178.43 181.44 190.27 173.82 186.67 173.93 174.82"></polygon></g><polygon class="cls-6" points="316.45 258.02 316.64 236.18 355.33 253.81 355.14 275.64 316.45 258.02"></polygon><g><polygon class="cls-6" points="319.95 219.16 320.54 152.59 357.93 169.62 357.33 236.18 319.95 219.16"></polygon><polygon class="cls-13" points="323.46 203.43 348.28 214.52 348.32 210.6 323.5 199.5 323.46 203.43"></polygon><polygon class="cls-13" points="328 207.65 348.23 216.78 348.19 221.39 327.97 212.26 328 207.65"></polygon><g><path class="cls-39" d="M340.64,166.14c-5.08-2.5-9.88-1.88-13.08,1.1l3.76,5.12c2.15-1.94,5.33-2.33,8.7-.67,4.61,2.27,8.1,7.64,8.77,12.95l4.96,1.03c-.94-8-6.18-16.12-13.11-19.53Z"></path><path class="cls-39" d="M340.64,166.14c-5.08-2.5-9.88-1.88-13.08,1.1l3.76,5.12c2.15-1.94,5.33-2.33,8.7-.67,4.61,2.27,8.1,7.64,8.77,12.95l4.96,1.03c-.94-8-6.18-16.12-13.11-19.53Z"></path><path class="cls-8" d="M326.27,188.57l4.17-1.73c-1.39-2.79-2.08-5.93-1.75-8.83,.29-2.63,1.37-4.65,2.93-5.91l-3.4-5.42c-2.39,1.86-4.03,4.91-4.48,8.89-.48,4.27,.51,8.88,2.53,13Z"></path><g><polygon class="cls-35" points="328.23 166.67 331.62 172.1 328.23 166.67 328.23 166.67"></polygon><path class="cls-35" d="M326.27,188.57l4.17-1.73h0c1.59,3.19,4.09,5.95,7.06,7.41,5.56,2.74,10.64-.09,11.33-6.32,.12-1.07,.09-2.18-.05-3.28l4.97,1.07c.18,1.57,.2,3.13,.03,4.65-1.04,9.29-8.6,13.51-16.9,9.43-4.48-2.2-8.25-6.38-10.62-11.22h0Z"></path><polygon class="cls-35" points="331.62 172.1 331.63 172.1 331.63 172.1 331.62 172.1"></polygon></g></g></g><g><ellipse class="cls-22" cx="285.35" cy="349.5" rx="17.77" ry="10.07" transform="translate(-64.63 64.74) rotate(-11.64)"></ellipse><polygon class="cls-22" points="329.26 337.33 294.2 320.47 329.04 297.91 364.45 314.71 329.26 337.33"></polygon><g><polygon class="cls-21" points="313.52 323.81 278.46 306.95 313.3 284.39 348.71 301.19 313.52 323.81"></polygon><polygon class="cls-16" points="313.52 323.81 313.57 348.98 278.51 332.12 278.51 306.94 313.52 323.81"></polygon><polygon class="cls-12" points="313.52 323.81 348.71 301.19 348.71 325.17 312.91 349.12 313.52 323.81"></polygon></g><path class="cls-32" d="M284.59,311.41s7.88,13.39,16.98,8.55c9.1-4.84-10.03-13.79-10.03-13.79l-6.95,5.25Z"></path><path class="cls-7" d="M308.61,266.59c-.98,6.21-3.26,10.89-6.38,16.43-1.03,1.82-2.14,3.46-1.79,5.45,.47,2.73,1.36,5.29,1.68,8.1,.35,3.07-4.62,3.46-4.97,.41-.57-5.02-2.93-8.63-.47-13.71,1.29-2.67,3.03-5.13,4.38-7.77,1.59-3.12,2.23-6.45,2.76-9.8,.49-3.12,5.28-2.21,4.79,.89h0Z"></path><path class="cls-28" d="M309.82,266.61c-2.03,5.8-4.73,11.31-6.99,17.03-1.56,3.95-7.97,2.82-6.39-1.19,2.26-5.72,4.96-11.23,6.99-17.03,1.41-4.02,7.81-2.87,6.39,1.19h0Z"></path><path class="cls-2" d="M311.62,301.46c-5.58,2.92-12.43,8.09-15.29,13.81-1.66,3.33-1.42,6.59-1.23,9.99l.99,17.92c.24,4.39-5.48,5.07-5.73,.69-.36-6.53-2.01-13.17-2.37-19.71-.25-4.55,.46-9.12,3.07-13.25,3.85-6.09,10.65-11.75,17.01-15.08,4.08-2.14,7.65,3.47,3.54,5.62h0Z"></path><path class="cls-7" d="M269.4,331.41c5.08-5.82,8.23-13.5,13.92-18.88,3.53-3.33,7.35-5.33,11.96-4.4,5.55,1.12,10.12,1.03,15.16-2.69,3.76-2.78,7.27,2.87,3.54,5.62-4.71,3.48-9.99,5.08-15.58,4.64-1.9-.15-3.67-.65-5.53-.93-.77-.11-.7-.15-1.11-.07-1.66,.36-3.15,1.91-4.3,3.05-5.25,5.21-8.2,10.38-13.01,15.9-3.06,3.51-9.1,2.01-6.05-1.49l1-.76Z"></path><path class="cls-32" d="M269.97,339.38l-.2-.39c-.12-.22-.01-.52,.22-.65h0c.24-.13,.53-.06,.65,.17l.2,.39c.12,.22,.01,.52-.22,.65h0c-.24,.13-.53,.06-.65-.17Z"></path><path class="cls-32" d="M269.82,338.48l1.31-1.83c.16-.22,.46-.29,.68-.15h0c.21,.14,.26,.43,.1,.65l-1.31,1.83c-.16,.22-.46,.29-.68,.15h0c-.21-.14-.26-.43-.1-.65Z"></path><g><path class="cls-32" d="M276.32,332.6c.19-1.14-.28-2.81-1.01-3.02l-3.53,1.65-.3-.07c-1.72,.61-9.77,2.71-12.27,3.72-1.27,.51-.23,1.99-.23,1.99,2.63,2.55,6.69,3.07,6.69,3.07,1.97-.09,2.02-1.9,4.79-3.07,.47-.2,1.25-.21,1.11,.17l-1.66,2.09,.83,.32s2.64-2.81,4.52-4.63c.78-.76,1.13-1.58,1.06-2.21Z"></path><path class="cls-7" d="M275.05,329.09l-2.18,.3s-7.33,3.34-8.76,4.03c-1.66,.8,1.23,5.87,9.67,.31,5.08-2.54,1.27-4.63,1.27-4.63Z"></path></g><path class="cls-33" d="M304.16,292.71c-12.02,8.45-20.74,13.12-19.57,18.7,0,0,5.65-4.47,10.35-2.2,4.65,2.25,3.89,4.33,4.28,5.93,1.06,4.36,1.09,5.85,2.35,4.81,4.45-3.65,21.24-5.83,21.58-16.13,.29-8.73-.93-9.67-.93-9.67,0,0-11.52,6.35-18.06-1.45Z"></path><path class="cls-32" d="M295.3,349.81l-.42-.18c-.24-.1-.33-.38-.21-.63h0c.12-.24,.42-.36,.66-.26l.42,.18c.24,.1,.33,.38,.21,.63h0c-.12,.24-.42,.36-.66,.26Z"></path><path class="cls-32" d="M294.61,349.22v-2.16c0-.26,.22-.5,.49-.52h0c.27-.02,.49,.17,.49,.44v2.16c0,.26-.22,.5-.49,.52h0c-.27,.02-.49-.17-.49-.44Z"></path><g><path class="cls-32" d="M296.6,340.92c-.54-.98-1.96-1.97-2.73-1.69l-2.02,3.33-.3,.12c-1.1,1.48-6.75,7.83-8.28,10.07-.78,1.14,1.03,1.65,1.03,1.65,3.83,.38,7.64-1.63,7.64-1.63,1.64-1.23,.57-2.64,2.24-5.16,.28-.43,.95-.89,1.06-.52l-.14,2.56,.91-.25s.54-3.69,1.04-6.18c.2-1.04,0-1.87-.45-2.3Z"></path><path class="cls-2" d="M293.35,339l-1.7,1.51s-4.26,6.87-5.06,8.24c-.93,1.59,4.66,3.73,8.51-5.49,2.81-4.93-1.75-4.27-1.75-4.27Z"></path></g><path class="cls-7" d="M331.46,273.42c.63,4.07,.6,7.89,.52,12.03-.08,3.76,1.03,8.04-.08,11.83-.72,2.44-2.7,3.66-5.09,4.14-4.07,.82-8.2,.96-12.29,1.81-3.16,.66-3.13-4.21,0-4.86,3.52-.73,7.01-1.1,10.55-1.54,1.81-.23,2.03,.11,2.2-1.36,.41-3.52-.36-7.09-.22-10.62,.14-3.35,.14-6.44-.37-9.73-.47-3.02,4.32-4.73,4.79-1.69h0Z"></path><path class="cls-7" d="M300.58,301.32h0c-1.56,.37-3.03-.55-3.28-2.05l-.98-5.88c-.25-1.5,.82-3.03,2.37-3.41h0c1.56-.37,3.03,.55,3.28,2.05l.98,5.88c.25,1.5-.82,3.03-2.37,3.41Z"></path><path class="cls-17" d="M316.3,303.92v-.54l-.72,.33-.15-.33-17.91-8.62c-.22-.1-.6-.06-.85,.1l-7.71,4.99v-.12l-1.43,.68v.58h0c.02,.05,.06,.1,.14,.14l18.64,8.97c.22,.1,.6,.06,.85-.1l8.93-5.78c.14-.09,.21-.19,.21-.29h0Z"></path><path class="cls-16" d="M306.31,309.52l-18.64-8.97c-.22-.1-.19-.32,.06-.48l8.93-5.78c.25-.16,.63-.21,.85-.1l18.64,8.97c.22,.1,.19,.32-.06,.48l-8.93,5.78c-.25,.16-.63,.21-.85,.1Z"></path><path class="cls-17" d="M307.58,302.64l-4.51-2.17c-.05-.03-.05-.08,.01-.12l2.16-1.4c.06-.04,.15-.05,.2-.03l4.51,2.17c.05,.03,.05,.08-.01,.12l-2.16,1.4c-.06,.04-.15,.05-.2,.03Z"></path><path class="cls-4" d="M305.83,297.72c-.08-.47-.46-1.01-.86-1.2l-18.5-8.74c-.16-.08-.31-.08-.41-.03h0s-.07,.05-.1,.08l-.61,.68,.56-.09,1.76,10.97c.08,.47,.46,1.01,.86,1.2l17.5,8.26,.56,.57,.07,.15c.35,.05,1.2-.61,1.2-.61l-2.02-11.23Z"></path><path class="cls-32" d="M306.37,310.05l-18.5-8.74c-.4-.19-.78-.72-.86-1.2l-1.78-11.09c-.08-.47,.19-.7,.58-.52l18.5,8.74c.4,.19,.78,.72,.86,1.2l1.78,11.09c.08,.47-.19,.7-.58,.52Z"></path><path class="cls-7" d="M307.56,303.57h0c-.49-1.42,.33-3.08,1.83-3.68l5.18-2.09c1.5-.6,3.12,.07,3.61,1.49h0c.49,1.42-.33,3.08-1.83,3.68l-5.18,2.09c-1.5,.6-3.12-.07-3.61-1.49Z"></path><path class="cls-4" d="M296.54,299.99c.09,.59-.46,.77-1.24,.4-.78-.37-1.48-1.14-1.58-1.73-.09-.59,.46-.77,1.24-.4,.78,.37,1.48,1.14,1.58,1.73Z"></path><path class="cls-33" d="M305.88,269.03l-2.17,6.21s.22,15.82,.44,17.47c0,0,5.63,9.77,18.06,1.45l5.56-19.32-21.89-5.81Z"></path><path class="cls-33" d="M327.77,277.61c.53-.36,2.43-.04,2.43-.04,.37-3.15,3.56-4.31-.99-8.98-.69-.71-11.36-4.86-17.08-5.4-2.77-.26-3.48-1.04-4.6,1.58-.65,1.53-3.32,7.02-3.32,7.02-.27,5.76,2.33-1.99,2.74,1.14-.01-.08-.03-.15-.05-.23,0,0,.71,5.29,1.25,9.39,.33,2.56,.57,4.41,.59,4.67v.03l9.92,6.81,5.22-9.64h0l3.89-6.36Z"></path><path class="cls-33" d="M305.84,269.18s-4.53,3.4-4.79,8.96c-.26,5.56,4.36,8.6,4.36,8.6l.43-17.56Z"></path><polygon class="cls-28" points="304.02 285.14 307.35 284.96 304.06 287.35 304.02 285.14"></polygon><path class="cls-28" d="M317.5,296.62l1.54-7.49-4.57-2.07s7.54,2.55,9.54-7.78c0,0,1.98-4.2,6.62-.86l-8.42,15.73c-1.57,1.06-3.14,1.88-4.71,2.47Z"></path><path class="cls-33" d="M330.7,269.59c3.03,7.39,2.27,14.71,2.07,22.72-.11,4.17-6.73,4.73-6.63,.55,.19-7.44,.98-14.16-1.84-21.02-1.54-3.76,4.86-5.97,6.39-2.25h0Z"></path><path class="cls-7" d="M313.04,263.35s-5.68,5.5-1.32,9.24c4.36,3.74,12.79-4.96,12.79-4.96-3.96-2.46-7.81-4.11-11.47-4.28Z"></path><path class="cls-4" d="M314.32,274.26c-1.11,0-2.17-.32-3.09-1.11-1.22-1.05-1.86-2.31-1.9-3.77-.1-3.34,3.06-6.44,3.19-6.57,.29-.29,.76-.28,1.05,.02,.29,.29,.28,.76-.02,1.05-.03,.03-2.82,2.78-2.74,5.46,.03,1.03,.48,1.91,1.38,2.68,3.14,2.69,9.56-2.64,11.77-4.92,.29-.29,.75-.3,1.05-.02,.29,.28,.3,.75,.02,1.05-.29,.3-6,6.12-10.72,6.12Z"></path><path class="cls-7" d="M324.51,267.62c-3.96-2.46-7.81-4.11-11.47-4.28"></path><path class="cls-32" d="M306.1,254.96c-.64,1.77-.82,3.86,.31,5.22,.21,.25,.45,.47,.69,.69,.61,.59,1.15,1.26,1.58,2,.08,.13,.15,.26,.28,.34,.29,.18,.71,.02,.97-.25,.25-.27,.39-.61,.59-.92,.59-.91,12.67,5.09,13.28,4.19,.82-1.22-2.06-14.13-2.36-15.48-.39-1.72-9.27,1.27-10.72,.28-.28-.19-.6-.35-.85-.58h0c-.37-.33-.7-1.07-1.31-.77-.49,.24-.66,1.12-.84,1.56-.5,1.25-1.16,2.45-1.62,3.71Z"></path><path class="cls-7" d="M315.28,268.27l-2.32-8.84,5.76,1.35,1.88,7.22c.4,1.17-3.64,4.74-5.33,.27Z"></path><path class="cls-7" d="M314.83,263l-1.6,.17c-2.46,.27-4.52-1.48-4.58-3.87l-.21-7.91c-.06-2.4,1.9-4.57,4.35-4.84l1.6-.17c2.46-.27,4.52,1.48,4.58,3.87l.21,7.91c.06,2.4-1.9,4.57-4.35,4.84Z"></path><path class="cls-32" d="M316.07,252.79c-1.83-2.1-5.29,.83-7.13,.27-2-.61-1.3-2.67,.07-4.41,.74-.93,1.67-1.74,3.53-2.56,5.21-2.31,10.4-.55,10.55,5.18,0,0,.61,7.76-4.08,9.28l-.5-1.06s2.72-3.11-.14-4.59c-.67-.35-.7-.36-.63-1.31,.07-.97-1.06-.08-1.68-.79Z"></path><path class="cls-7" d="M320.15,259.47c-.83,.73-1.77,.57-2.1-.36s.07-2.28,.9-3.01c.83-.73,1.77-.57,2.1,.36,.33,.93-.07,2.28-.9,3.01Z"></path><path class="cls-32" d="M307.65,257.7s.1-2.65,6.59-6.58c6.49-3.94,.29-.18,.29-.18l-6.39-.93s-2.55,3-.49,7.7Z"></path><path class="cls-32" d="M315.8,252.53s5.14,6.26,4.64,10.64c-.41,3.62-4.43,6.21-5.18,11.7-.16,1.14,1.33,1.63,2.06,.67,.91-1.2,2.1-2.53,3.53-3.58,3.49-2.58,6.17-5.14,6.17-6.97,0-5.11-4-14.78-4-14.78l-7.96-.18,.74,2.49Z"></path><path class="cls-3" d="M313.96,263.21s3.09-.98,3.1-1.01c0,0-1.3,1.62-2.63,2.45l-.47-1.44Z"></path></g><path class="cls-7" d="M230.71,199.82l1.69,6.49,8.7-3.11c3.86-2,6.4-2.38,7.27-5.23l6.66-21.79-3.26-.2-9.4,17.34-11.67,6.49Z"></path><path class="cls-7" d="M196.43,217.24s-2.63,8.2,5.14,13.48c0,0,3.43,.73,3.23-3.47-.2-4.2-.43-10.13-.43-10.13l-7.94,.12Z"></path><path class="cls-33" d="M208.09,207.19l-5.19,14.71c-.74,1.14-11.35-4.23-10.44-5.98,.16-.31,5.81-18.08,11.89-20.94,4.94-2.33,6.47,5.52,3.75,12.22Z"></path><path class="cls-7" d="M217.91,197.97l-.42-.03c-1.41-.09-2.49-1.32-2.4-2.73l.5-7.96c.09-1.41,1.32-2.49,2.73-2.4l.42,.03c1.41,.09,2.49,1.32,2.4,2.73l.64,7.72c-.09,1.41-2.46,2.73-3.87,2.64Z"></path><path class="cls-7" d="M217.24,188.1c1.66,3.46,4.54,4.02,6.43,1.26,1.89-2.76,2.07-7.81,.41-11.26-1.66-3.46-4.54-4.02-6.43-1.26-1.89,2.76-2.07,7.81-.41,11.26Z"></path><path class="cls-41" d="M216.69,178.62s1.33,6.99-4.14,8.99c0,0-6.57-3.17-2.45-10.3,3.63-6.29,10.51-2.23,10.51-2.23l-3.91,3.54Z"></path><path class="cls-27" d="M224.71,179.78s-2.04-2.36-5.91-1.82l1.8-2.87s2.95-.75,4.11,4.69Z"></path><path class="cls-41" d="M214.08,182.98c1.17-1.84,4.03-1.93,8.23-.66,3.78-.05,3.98-4.4,3.98-4.4,.43-2.34-1.17-3.26-3.51-3.69l-6.1-1.11c-3.45-.65-6.52,2.38-6.95,4.72l-.13,.39c-.43,2.34,2.13,4.32,4.47,4.74Z"></path><ellipse class="cls-18" cx="219.53" cy="302.55" rx="16.79" ry="8.34" transform="translate(-5.33 3.94) rotate(-1.02)"></ellipse><path class="cls-32" d="M235.2,304.03l-7.51,4.43c-1.86,.84-2.83-.11-4.18-.64-.61-.24-.95-.88-.84-1.52l.23-1.38c.27-2.01,2.3-2.88,3.68-3.28l7.36-2.6c1.38-.4,5.2,2.45,1.26,5Z"></path><path class="cls-32" d="M211.39,293.12l1.87,8.51c.63,4.46-6.5,5.2-6.88,.37l-.14-9.24c.05-1.43,3.94-4.18,5.14,.36Z"></path><path class="cls-24" d="M228.85,302.98c.02,2.07-5.02,2.11-5.03,.04l-.06-6.73,5.03-.04,.06,6.73Z"></path><path class="cls-24" d="M212.29,298.86c0,2.07-5.03,2.07-5.03,0v-6.73h5.03v6.73Z"></path><path class="cls-38" d="M212.96,296.95c-1.97,1.42-5.24,1.38-6.33-.26-1.29-24.62-5.33-41.08-5.08-62.14l15.64-4.64c-2.79,25.28-3.08,47.48-4.23,67.04Z"></path><path class="cls-32" d="M212.96,296.95c-.72,.51-1.6,.84-2.49,.96,0,0-.11-11.13-.11-24.85,0-13.31,1.93-26.56,5.7-39.32l1.13-3.83c-2.79,25.28-3.08,47.48-4.23,67.04Z"></path><path class="cls-32" d="M229.41,299.26c-1.59,2.23-5.2,2.24-6.26,.63l-10.54-66.39h18.17l-1.37,65.76Z"></path><path class="cls-33" d="M200.93,232.83c1.3-7.14,1.74-15.24,.56-25.1,0-13.66,1.88-13.68,11.04-14.23l2.13-.13c2.61-.16,5.23,.35,7.58,1.49,8.08,3.93,12,4.85,10.36,14.55l-1.82,24.09c0,12.4-30.52,13.91-29.86-.66Z"></path><path class="cls-41" d="M212.14,189.8c1.66,3.46,5.78,4.11,7.67,1.35,1.89-2.76,4.46-8.24,2.8-11.7s-11.41-3.27-13.3-.51c-1.89,2.76,1.17,7.4,2.83,10.86Z"></path><path class="cls-7" d="M252.16,179.14h0c-1.37-.44-2.13-1.93-1.69-3.3l.86-2.65c.44-1.37,1.93-2.13,3.3-1.68h0c1.37,.44,2.13,1.93,1.69,3.3l-.86,2.65c-.44,1.37-1.93,2.13-3.3,1.68Z"></path><g><polygon class="cls-1" points="91.37 47.96 127.78 64.7 127.12 110.99 90.71 94.26 91.37 47.96"></polygon><polygon class="cls-13" points="91.37 47.96 122.8 62.33 122.21 103.9 90.78 89.46 91.37 47.96"></polygon><polygon class="cls-4" points="119.6 99.03 83.19 82.29 83.85 36 120.26 52.73 119.6 99.03"></polygon><ellipse class="cls-33" cx="100.34" cy="61.46" rx="8.56" ry="13.15" transform="translate(-17.29 64.61) rotate(-33.02)"></ellipse><path class="cls-4" d="M100.2,70.64c2.58,1.19,4.91,1,6.5-.26-1.15-2.82-3.57-5.5-6.4-6.8-2.83-1.3-5.29-.86-6.51,.87,1.53,2.69,3.83,5.01,6.41,6.2Z"></path><path class="cls-4" d="M103.49,59.16c-.03,1.86-1.44,2.74-3.15,1.95-1.71-.79-3.08-2.94-3.06-4.8,.03-1.86,1.44-2.74,3.15-1.95s3.08,2.94,3.06,4.8Z"></path><polygon class="cls-13" points="89.4 74.1 110.4 83.75 110.44 80.34 89.44 70.69 89.4 74.1"></polygon><polygon class="cls-13" points="91.8 78.17 106.49 84.92 106.45 88.33 91.76 81.58 91.8 78.17"></polygon></g><g><path class="cls-19" d="M173.43,242.87l-56.43-27.46c-3.38-1.64-9.24-1.24-13.08,.91L6.83,270.58c.83-2.2,1.68-4.55,1.68-4.55l-8.51,2.14,.28,7.59c-.38,1.38,.34,2.73,2.21,3.64l56.43,27.46c3.38,1.64,9.24,1.24,13.08-.91l100.6-56.22c3.84-2.15,4.22-5.22,.84-6.87Z"></path><path class="cls-30" d="M175.61,237.45l-10.78,1.23-47.82-23.27c-3.38-1.64-9.24-1.24-13.08,.91l-39.33,62.23,.68,29.28c2.37-.16,4.79-.8,6.71-1.88l100.6-56.22c2.2-1.23,3.26-2.76,3.13-4.16l-.11-8.13Z"></path><path class="cls-9" d="M55.77,300.93c.01,.88-.67,1.26-1.52,.84-.85-.42-1.56-1.47-1.57-2.35-.01-.88,.67-1.26,1.52-.84,.85,.42,1.56,1.47,1.57,2.35Z"></path><path class="cls-4" d="M58.78,298.35L2.36,270.89c-3.38-1.64-3-4.72,.84-6.87l100.6-56.22c3.84-2.15,9.7-2.56,13.08-.91l56.43,27.46c3.38,1.64,3,4.72-.84,6.87l-100.6,56.22c-3.84,2.15-9.7,2.56-13.08,.91Z"></path><path class="cls-37" d="M58.76,296.72L2.33,269.26c-3.38-1.64-3-4.72,.84-6.87l100.6-56.22c3.84-2.15,9.7-2.56,13.08-.91l56.43,27.46c3.38,1.64,3,4.72-.84,6.87l-100.6,56.22c-3.84,2.15-9.7,2.56-13.08,.91Z"></path><path class="cls-34" d="M147.05,226.59l-15.58-7.58c-.64-.31-.57-.9,.16-1.31h0c.73-.41,1.85-.49,2.5-.17l15.58,7.58c.64,.31,.57,.9-.16,1.31h0c-.73,.41-1.85,.49-2.5,.17Z"></path><path class="cls-9" d="M35.69,292.44l-12.51-6.09c-.53-.26-.97-.99-.98-1.62h0c0-.63,.42-.94,.95-.68l12.51,6.09c.53,.26,.97,.99,.98,1.62h0c0,.63-.42,.94-.95,.69Z"></path><path class="cls-10" d="M105.08,209.46L15.18,259.7c-2.09,1.17-2.05,3.93,.07,4.96l55.43,26.97c.99,.48,2.19,.44,3.16-.1l89.9-50.24c2.09-1.17,2.05-3.93-.07-4.96l-55.43-26.97c-.99-.48-2.19-.44-3.16,.1Z"></path><path class="cls-26" d="M69.54,287.41l-48.5-24.72c-2.15-1.09-1.89-3.08,.56-4.42l35.42-19.28c2.45-1.34,6.22-1.53,8.36-.44l48.5,24.72c2.15,1.09,1.89,3.08-.56,4.42l-35.42,19.28c-2.45,1.34-6.22,1.53-8.36,.44Z"></path><path class="cls-26" d="M115.27,261.54l-48.5-24.72c-2.15-1.09-1.89-3.08,.56-4.42l35.42-19.28c2.45-1.34,6.22-1.53,8.36-.44l48.5,24.72c2.15,1.09,1.89,3.08-.56,4.42l-35.42,19.28c-2.45,1.34-6.22,1.53-8.36,.44Z"></path><g><g><path class="cls-8" d="M80.9,279.02s2.52-4.08-2.35-6.52c-3.72-1.86-2.74-.36-6.15-3.16-2.01-1.65,1.23-7.62-4.75-11.14-10.84-6.37-.96-15.91-9.56-16.6l-29.91,16.01,48.23,23.82,4.5-2.41Z"></path><g><path class="cls-40" d="M76.06,281.61c.04,.07,.15,.09,.25,.03l29.88-16c.1-.05,.14-.15,.1-.22-.04-.07-.15-.09-.25-.03l-29.88,16c-.1,.05-.14,.15-.1,.22Z"></path><path class="cls-40" d="M64.39,275.49c.04,.07,.15,.09,.25,.03l29.88-16c.1-.05,.14-.15,.1-.22-.04-.07-.15-.09-.25-.03l-29.88,16c-.1,.05-.14,.15-.1,.22Z"></path><path class="cls-40" d="M52.34,269.58c.04,.07,.15,.09,.25,.03l29.88-16c.1-.05,.14-.15,.1-.22-.04-.07-.15-.09-.25-.03l-29.88,16c-.1,.05-.14,.15-.1,.22Z"></path><path class="cls-40" d="M40.3,263.66c.04,.07,.15,.09,.25,.03l29.88-16c.1-.05,.14-.15,.1-.22-.04-.07-.15-.09-.25-.03l-29.88,16c-.1,.05-.14,.15-.1,.22Z"></path></g><path class="cls-40" d="M28.14,257.62c.04,.07,.15,.09,.25,.03l29.88-16c.1-.05,.14-.15,.1-.22-.04-.07-.15-.09-.25-.03l-29.88,16c-.1,.05-.14,.15-.1,.22Z"></path><g><path class="cls-4" d="M60.86,240.43l1.69,.73c.19,.08,.55,.04,.8-.1h0c.25-.14,.31-.31,.12-.39l-1.69-.73c-.19-.08-.55-.04-.8,.1h0c-.25,.14-.31,.31-.12,.39Z"></path><path class="cls-4" d="M72.53,246.74l1.69,.73c.19,.08,.55,.04,.8-.1h0c.25-.14,.31-.31,.12-.39l-1.69-.73c-.19-.08-.55-.04-.8,.1h0c-.25,.14-.31,.31-.12,.39Z"></path><path class="cls-4" d="M84,252.86l1.69,.73c.19,.08,.55,.04,.8-.1h0c.25-.14,.31-.31,.12-.39l-1.69-.73c-.19-.08-.55-.04-.8,.1h0c-.25,.14-.31,.31-.12,.39Z"></path><path class="cls-4" d="M95.71,259.04l1.69,.73c.19,.08,.55,.04,.8-.1h0c.25-.14,.31-.31,.12-.39l-1.69-.73c-.19-.08-.55-.04-.8,.1h0c-.25,.14-.31,.31-.12,.39Z"></path><path class="cls-4" d="M107.43,265.03l1.69,.73c.19,.08,.55,.04,.8-.1h0c.25-.14,.31-.31,.12-.39l-1.69-.73c-.19-.08-.55-.04-.8,.1h0c-.25,.14-.31,.31-.12,.39Z"></path></g><g><path class="cls-4" d="M26.59,258.92l1.69,.73h.01l1.25,.55c.19,.08,.13,.26-.12,.39s-.61,.18-.8,.1l-1.69-.73h-.01l-1.25-.55c-.19-.08-.13-.26,.12-.39,.25-.14,.61-.18,.8-.1Z"></path><path class="cls-4" d="M52.87,271.07l1.69,.73h.01l1.25,.55c.19,.08,.13,.26-.12,.39-.25,.14-.61,.18-.8,.1l-1.69-.73h-.01l-1.25-.55c-.19-.08-.13-.26,.12-.39,.25-.14,.61-.18,.8-.1Z"></path><path class="cls-4" d="M39.5,264.68l1.69,.73h.01l1.25,.55c.19,.08,.13,.26-.12,.39-.25,.14-.61,.18-.8,.1l-1.69-.73h-.01l-1.25-.55c-.19-.08-.13-.26,.12-.39,.25-.14,.61-.18,.8-.1Z"></path><path class="cls-4" d="M64.73,276.66l1.69,.73h.01l1.25,.55c.19,.08,.13,.26-.12,.39-.25,.14-.61,.18-.8,.1l-1.69-.73h-.01l-1.25-.55c-.19-.08-.13-.26,.12-.39,.25-.14,.61-.18,.8-.1Z"></path><path class="cls-4" d="M76.97,282.83l1.69,.73h.01l1.25,.55c.19,.08,.13,.26-.12,.39-.25,.14-.61,.18-.8,.1l-1.69-.73h-.01l-1.25-.55c-.19-.08-.13-.26,.12-.39,.25-.14,.61-.18,.8-.1Z"></path></g></g><path class="cls-29" d="M139.58,239.41c-.08,.21,0,.46,.17,.6l2.12,1.68-1.93,1.82c-.17,.16-.18,.46-.04,.66,.15,.21,.4,.25,.57,.09l2.35-2.21c.1-.09,.15-.23,.14-.39-.01-.15-.08-.29-.19-.38l-2.6-2.06c-.19-.15-.44-.1-.55,.11-.01,.02-.02,.04-.03,.06Z"></path><g><g><rect class="cls-10" x="110.34" y="211.95" width=".63" height="13.81" transform="translate(-134.59 218.46) rotate(-63.09)"></rect><path class="cls-4" d="M141.82,247.57l-.15-.07-12.85-6.52,12.62-6.84,.15,.07,12.85,6.52-12.62,6.84Zm-11.65-6.62l11.64,5.91,11.28-6.11-11.64-5.91-11.28,6.11Z"></path><path class="cls-4" d="M129.5,241.32l-.15-.07-12.85-6.52,12.62-6.84,.15,.07,12.85,6.52-12.62,6.84Zm-11.65-6.61l11.64,5.91,11.28-6.11-11.64-5.91-11.28,6.11Z"></path><path class="cls-4" d="M104.87,228.81l-.15-.07-12.85-6.52,12.62-6.84,.15,.07,12.85,6.52-12.62,6.84Zm-11.65-6.61l11.64,5.91,11.28-6.11-11.64-5.91-11.28,6.11Z"></path><rect class="cls-4" x="129.04" y="250.14" width="13.59" height=".63" transform="translate(-102.89 94.93) rotate(-28.44)"></rect><path class="cls-4" d="M117.55,247.8l-.15-.07-12.85-6.52,12.62-6.84,.15,.07,12.85,6.52-12.62,6.84Zm-11.65-6.62l11.64,5.91,11.28-6.11-11.64-5.91-11.28,6.11Z"></path><path class="cls-4" d="M105.24,241.54l-.15-.07-12.85-6.52,12.61-6.84,.15,.07,12.85,6.52-12.62,6.84Zm-11.65-6.62l11.64,5.91,11.28-6.11-11.64-5.91-11.28,6.11Z"></path><path class="cls-4" d="M92.92,235.29l-12.99-6.6,12.62-6.84,12.99,6.6-12.62,6.84Zm-11.65-6.61l11.64,5.91,11.28-6.11-11.64-5.91-11.28,6.11Z"></path><rect class="cls-10" x="117.1" y="256.62" width="13.59" height=".63" transform="translate(-107.43 90.04) rotate(-28.45)"></rect><path class="cls-4" d="M117.92,260.52l-.15-.07-12.85-6.52,12.62-6.84,.15,.07,12.85,6.52-12.62,6.84Zm-11.65-6.61l11.64,5.91,11.28-6.11-11.64-5.91-11.28,6.11Z"></path><path class="cls-4" d="M105.61,254.27l-.15-.07-12.85-6.52,12.61-6.84,.15,.07,12.85,6.52-12.62,6.84Zm-11.65-6.61l11.64,5.91,11.28-6.11-11.64-5.91-11.28,6.11Z"></path><path class="cls-4" d="M93.29,248.02l-12.99-6.6,12.62-6.84,12.99,6.6-12.62,6.84Zm-11.65-6.62l11.64,5.91,11.28-6.11-11.64-5.91-11.28,6.11Z"></path><path class="cls-4" d="M80.98,241.77l-12.99-6.6,12.62-6.84,12.99,6.6-12.62,6.84Zm-11.65-6.62l11.64,5.91,11.28-6.11-11.64-5.91-11.28,6.11Z"></path></g><rect class="cls-4" x="122.65" y="218.2" width=".63" height="13.81" transform="translate(-133.42 232.86) rotate(-63.08)"></rect></g><path class="cls-29" d="M109.43,243.09c-.13,0-.25-.03-.36-.09l-16.16-8.87-17.41,2.01c-.41,.05-.78-.25-.83-.66-.05-.41,.25-.78,.66-.83l17.65-2.04c.15-.02,.31,.01,.45,.09l16.19,8.88,21.61-.85s.03,0,.05,0l10.78,.3c.41,.01,.74,.36,.73,.77-.01,.41-.36,.75-.77,.73l-10.75-.3-21.8,.86h-.03Z"></path><path class="cls-29" d="M155.63,240.28c-.05,0-.11-.01-.16-.04l-49.49-25.88c-.16-.09-.23-.29-.14-.45,.09-.16,.29-.23,.45-.14l49.49,25.88c.16,.09,.23,.29,.14,.45-.06,.11-.18,.18-.3,.18Z"></path></g></g><path class="cls-28" d="M223.95,195.66c-1.36,3.67,.46,7.67,1.42,10.21,1.86,4.92,2.65,8.28,.51,14.07-2.14,5.8,1.89,13.05,.39,16.71-1.49,3.64-9.72,6.63-15.88,6.12,8.75,1.89,20.43-1.61,20.43-9.28l1.82-24.09c1.52-9-1.75-10.44-8.69-13.75Z"></path><path class="cls-33" d="M225.35,212.57l15.47-6.31c1.26-.5-1.94-11.96-3.83-11.41-.33,.1-14.42-1-21.32,1.82-5.05,2.07,2.57,17.27,9.68,15.9Z"></path><path class="cls-42" d="M228.97,352.43l7.63-4.56c.65-.4,.64-1.31-.01-1.68l-12.05-6.66-13.56,3.27,17.99,9.63Z"></path><polygon class="cls-21" points="219.36 346.78 229.49 340.95 219.43 335.56 209.2 341.37 219.36 346.78"></polygon><polygon class="cls-4" points="219.36 343.66 224.45 340.73 219.39 338.02 214.24 340.94 219.36 343.66"></polygon><polygon class="cls-12" points="219.36 346.78 219.35 346.77 219.35 357.96 229.48 352.14 229.48 340.96 219.36 346.78"></polygon><polygon class="cls-16" points="219.36 346.78 209.2 341.37 209.2 352.22 219.54 357.98 219.54 346.68 219.36 346.78"></polygon><path class="cls-42" d="M35.48,342.3l7.63-4.56c.65-.4,.64-1.31-.01-1.68l-12.05-6.66-13.56,3.27,17.99,9.63Z"></path><polygon class="cls-21" points="25.87 336.64 36 330.82 25.94 325.43 15.71 331.24 25.87 336.64"></polygon><polygon class="cls-4" points="25.86 333.52 30.96 330.59 25.9 327.88 20.75 330.81 25.86 333.52"></polygon><polygon class="cls-12" points="25.87 336.64 25.86 336.64 25.86 347.83 35.99 342 35.99 330.83 25.87 336.64"></polygon><polygon class="cls-16" points="25.87 336.64 15.71 331.24 15.71 342.09 26.05 347.85 26.05 336.54 25.87 336.64"></polygon></g></g></g></g></svg> 